%TF.GenerationSoftware,KiCad,Pcbnew,9.0.3*%
%TF.CreationDate,2025-09-02T22:18:53+02:00*%
%TF.ProjectId,digital_organ,64696769-7461-46c5-9f6f-7267616e2e6b,0*%
%TF.SameCoordinates,Original*%
%TF.FileFunction,Legend,Top*%
%TF.FilePolarity,Positive*%
%FSLAX46Y46*%
G04 Gerber Fmt 4.6, Leading zero omitted, Abs format (unit mm)*
G04 Created by KiCad (PCBNEW 9.0.3) date 2025-09-02 22:18:53*
%MOMM*%
%LPD*%
G01*
G04 APERTURE LIST*
%ADD10C,0.150000*%
%ADD11C,0.120000*%
G04 APERTURE END LIST*
D10*
X164833333Y-112174819D02*
X164500000Y-111698628D01*
X164261905Y-112174819D02*
X164261905Y-111174819D01*
X164261905Y-111174819D02*
X164642857Y-111174819D01*
X164642857Y-111174819D02*
X164738095Y-111222438D01*
X164738095Y-111222438D02*
X164785714Y-111270057D01*
X164785714Y-111270057D02*
X164833333Y-111365295D01*
X164833333Y-111365295D02*
X164833333Y-111508152D01*
X164833333Y-111508152D02*
X164785714Y-111603390D01*
X164785714Y-111603390D02*
X164738095Y-111651009D01*
X164738095Y-111651009D02*
X164642857Y-111698628D01*
X164642857Y-111698628D02*
X164261905Y-111698628D01*
X165785714Y-112174819D02*
X165214286Y-112174819D01*
X165500000Y-112174819D02*
X165500000Y-111174819D01*
X165500000Y-111174819D02*
X165404762Y-111317676D01*
X165404762Y-111317676D02*
X165309524Y-111412914D01*
X165309524Y-111412914D02*
X165214286Y-111460533D01*
X146414819Y-108468094D02*
X145414819Y-108468094D01*
X145414819Y-108468094D02*
X145414819Y-108229999D01*
X145414819Y-108229999D02*
X145462438Y-108087142D01*
X145462438Y-108087142D02*
X145557676Y-107991904D01*
X145557676Y-107991904D02*
X145652914Y-107944285D01*
X145652914Y-107944285D02*
X145843390Y-107896666D01*
X145843390Y-107896666D02*
X145986247Y-107896666D01*
X145986247Y-107896666D02*
X146176723Y-107944285D01*
X146176723Y-107944285D02*
X146271961Y-107991904D01*
X146271961Y-107991904D02*
X146367200Y-108087142D01*
X146367200Y-108087142D02*
X146414819Y-108229999D01*
X146414819Y-108229999D02*
X146414819Y-108468094D01*
X146414819Y-106944285D02*
X146414819Y-107515713D01*
X146414819Y-107229999D02*
X145414819Y-107229999D01*
X145414819Y-107229999D02*
X145557676Y-107325237D01*
X145557676Y-107325237D02*
X145652914Y-107420475D01*
X145652914Y-107420475D02*
X145700533Y-107515713D01*
X156214285Y-94551009D02*
X156357142Y-94598628D01*
X156357142Y-94598628D02*
X156404761Y-94646247D01*
X156404761Y-94646247D02*
X156452380Y-94741485D01*
X156452380Y-94741485D02*
X156452380Y-94884342D01*
X156452380Y-94884342D02*
X156404761Y-94979580D01*
X156404761Y-94979580D02*
X156357142Y-95027200D01*
X156357142Y-95027200D02*
X156261904Y-95074819D01*
X156261904Y-95074819D02*
X155880952Y-95074819D01*
X155880952Y-95074819D02*
X155880952Y-94074819D01*
X155880952Y-94074819D02*
X156214285Y-94074819D01*
X156214285Y-94074819D02*
X156309523Y-94122438D01*
X156309523Y-94122438D02*
X156357142Y-94170057D01*
X156357142Y-94170057D02*
X156404761Y-94265295D01*
X156404761Y-94265295D02*
X156404761Y-94360533D01*
X156404761Y-94360533D02*
X156357142Y-94455771D01*
X156357142Y-94455771D02*
X156309523Y-94503390D01*
X156309523Y-94503390D02*
X156214285Y-94551009D01*
X156214285Y-94551009D02*
X155880952Y-94551009D01*
X156738095Y-94074819D02*
X157309523Y-94074819D01*
X157023809Y-95074819D02*
X157023809Y-94074819D01*
X158166666Y-95074819D02*
X157595238Y-95074819D01*
X157880952Y-95074819D02*
X157880952Y-94074819D01*
X157880952Y-94074819D02*
X157785714Y-94217676D01*
X157785714Y-94217676D02*
X157690476Y-94312914D01*
X157690476Y-94312914D02*
X157595238Y-94360533D01*
D11*
%TO.C,R1*%
X170310000Y-109000000D02*
X169620000Y-109000000D01*
X159690000Y-109000000D02*
X160380000Y-109000000D01*
X169620000Y-110720000D02*
X160380000Y-110720000D01*
X160380000Y-107280000D01*
X169620000Y-107280000D01*
X169620000Y-110720000D01*
%TO.C,D1*%
X143545000Y-105170000D02*
X140455000Y-105170000D01*
X143544830Y-105170000D02*
G75*
G02*
X142000000Y-110720000I-1544830J-2560000D01*
G01*
X142000000Y-110720000D02*
G75*
G02*
X140455170Y-105170000I0J2990000D01*
G01*
X144500000Y-107730000D02*
G75*
G02*
X139500000Y-107730000I-2500000J0D01*
G01*
X139500000Y-107730000D02*
G75*
G02*
X144500000Y-107730000I2500000J0D01*
G01*
%TD*%
M02*
