M48
; DRILL file {KiCad 9.0.3} date 2025-10-02T22:40:33+0200
; FORMAT={-:-/ absolute / metric / decimal}
; #@! TF.CreationDate,2025-10-02T22:40:33+02:00
; #@! TF.GenerationSoftware,Kicad,Pcbnew,9.0.3
; #@! TF.FileFunction,Plated,1,2,PTH
FMAT,2
METRIC
; #@! TA.AperFunction,Plated,PTH,ViaDrill
T1C0.300
; #@! TA.AperFunction,Plated,PTH,ComponentDrill
T2C0.800
; #@! TA.AperFunction,Plated,PTH,ComponentDrill
T3C1.000
%
G90
G05
T1
X69.85Y-35.306
X69.85Y-50.038
X69.85Y-64.77
X69.85Y-79.502
X69.85Y-94.234
X69.85Y-108.966
X69.85Y-123.698
X69.85Y-138.43
X122.174Y-262.636
X122.174Y-264.16
X138.43Y-35.306
X138.43Y-50.038
X138.43Y-64.77
X138.43Y-79.502
X138.43Y-94.234
X138.43Y-108.966
X138.43Y-123.698
X138.43Y-138.43
X190.754Y-262.636
X190.754Y-264.16
X207.03Y-35.306
X207.03Y-50.038
X207.03Y-64.77
X207.03Y-79.502
X207.03Y-94.234
X207.03Y-108.966
X207.03Y-123.698
X207.03Y-138.43
T2
X49.535Y-249.701
X49.535Y-259.861
X54.615Y-249.701
X54.615Y-259.861
X58.415Y-223.793
X58.415Y-233.953
X58.425Y-238.017
X58.425Y-245.637
X59.695Y-249.701
X59.695Y-259.861
X60.965Y-238.017
X60.965Y-245.637
X62.225Y-227.604
X62.225Y-230.104
X63.505Y-238.017
X63.505Y-245.637
X64.775Y-250.971
X64.775Y-258.591
X66.035Y-223.793
X66.035Y-233.953
X66.045Y-238.017
X66.045Y-245.637
X73.406Y-22.606
X73.406Y-26.162
X73.406Y-29.718
X73.406Y-33.274
X73.406Y-37.338
X73.406Y-40.894
X73.406Y-44.45
X73.406Y-48.006
X73.406Y-52.07
X73.406Y-55.626
X73.406Y-59.182
X73.406Y-62.738
X73.406Y-66.802
X73.406Y-70.358
X73.406Y-73.914
X73.406Y-77.47
X73.406Y-81.534
X73.406Y-85.09
X73.406Y-88.646
X73.406Y-92.202
X73.406Y-96.266
X73.406Y-99.822
X73.406Y-103.378
X73.406Y-106.934
X73.406Y-110.998
X73.406Y-114.554
X73.406Y-118.11
X73.406Y-121.666
X73.406Y-125.73
X73.406Y-129.286
X73.406Y-132.842
X73.406Y-136.398
X73.406Y-145.542
X73.406Y-149.098
X73.406Y-152.654
X73.406Y-156.21
X73.406Y-160.274
X73.406Y-163.83
X73.406Y-167.386
X73.406Y-170.942
X73.406Y-175.006
X73.406Y-178.562
X73.406Y-182.118
X73.406Y-185.674
X73.406Y-189.738
X73.406Y-193.294
X73.406Y-196.85
X73.406Y-200.406
X73.406Y-204.47
X73.406Y-208.026
X73.406Y-211.582
X73.406Y-215.138
X73.406Y-219.202
X73.406Y-222.758
X73.406Y-226.314
X73.406Y-229.87
X73.406Y-233.934
X73.406Y-237.49
X73.406Y-241.046
X73.406Y-244.602
X73.406Y-248.666
X73.406Y-252.222
X73.406Y-255.778
X73.406Y-259.334
X83.566Y-22.606
X83.566Y-26.162
X83.566Y-29.718
X83.566Y-33.274
X83.566Y-37.338
X83.566Y-40.894
X83.566Y-44.45
X83.566Y-48.006
X83.566Y-52.07
X83.566Y-55.626
X83.566Y-59.182
X83.566Y-62.738
X83.566Y-66.802
X83.566Y-70.358
X83.566Y-73.914
X83.566Y-77.47
X83.566Y-81.534
X83.566Y-85.09
X83.566Y-88.646
X83.566Y-92.202
X83.566Y-96.266
X83.566Y-99.822
X83.566Y-103.378
X83.566Y-106.934
X83.566Y-110.998
X83.566Y-114.554
X83.566Y-118.11
X83.566Y-121.666
X83.566Y-125.73
X83.566Y-129.286
X83.566Y-132.842
X83.566Y-136.398
X83.566Y-145.542
X83.566Y-149.098
X83.566Y-152.654
X83.566Y-156.21
X83.566Y-160.274
X83.566Y-163.83
X83.566Y-167.386
X83.566Y-170.942
X83.566Y-175.006
X83.566Y-178.562
X83.566Y-182.118
X83.566Y-185.674
X83.566Y-189.738
X83.566Y-193.294
X83.566Y-196.85
X83.566Y-200.406
X83.566Y-204.47
X83.566Y-208.026
X83.566Y-211.582
X83.566Y-215.138
X83.566Y-219.202
X83.566Y-222.758
X83.566Y-226.314
X83.566Y-229.87
X83.566Y-233.934
X83.566Y-237.49
X83.566Y-241.046
X83.566Y-244.602
X83.566Y-248.666
X83.566Y-252.222
X83.566Y-255.778
X83.566Y-259.334
X86.106Y-22.606
X86.106Y-26.162
X86.106Y-29.718
X86.106Y-33.274
X86.106Y-37.338
X86.106Y-40.894
X86.106Y-44.45
X86.106Y-48.006
X86.106Y-52.07
X86.106Y-55.626
X86.106Y-59.182
X86.106Y-62.738
X86.106Y-66.802
X86.106Y-70.358
X86.106Y-73.914
X86.106Y-77.47
X86.106Y-81.534
X86.106Y-85.09
X86.106Y-88.646
X86.106Y-92.202
X86.106Y-96.266
X86.106Y-99.822
X86.106Y-103.378
X86.106Y-106.934
X86.106Y-110.998
X86.106Y-114.554
X86.106Y-118.11
X86.106Y-121.666
X86.106Y-125.73
X86.106Y-129.286
X86.106Y-132.842
X86.106Y-136.398
X86.106Y-145.542
X86.106Y-149.098
X86.106Y-152.654
X86.106Y-156.21
X86.106Y-160.274
X86.106Y-163.83
X86.106Y-167.386
X86.106Y-170.942
X86.106Y-175.006
X86.106Y-178.562
X86.106Y-182.118
X86.106Y-185.674
X86.106Y-189.738
X86.106Y-193.294
X86.106Y-196.85
X86.106Y-200.406
X86.106Y-204.47
X86.106Y-208.026
X86.106Y-211.582
X86.106Y-215.138
X86.106Y-219.202
X86.106Y-222.758
X86.106Y-226.314
X86.106Y-229.87
X86.106Y-233.934
X86.106Y-237.49
X86.106Y-241.046
X86.106Y-244.602
X86.106Y-248.666
X86.106Y-252.222
X86.106Y-255.778
X86.106Y-259.334
X96.266Y-22.606
X96.266Y-26.162
X96.266Y-29.718
X96.266Y-33.274
X96.266Y-37.338
X96.266Y-40.894
X96.266Y-44.45
X96.266Y-48.006
X96.266Y-52.07
X96.266Y-55.626
X96.266Y-59.182
X96.266Y-62.738
X96.266Y-66.802
X96.266Y-70.358
X96.266Y-73.914
X96.266Y-77.47
X96.266Y-81.534
X96.266Y-85.09
X96.266Y-88.646
X96.266Y-92.202
X96.266Y-96.266
X96.266Y-99.822
X96.266Y-103.378
X96.266Y-106.934
X96.266Y-110.998
X96.266Y-114.554
X96.266Y-118.11
X96.266Y-121.666
X96.266Y-125.73
X96.266Y-129.286
X96.266Y-132.842
X96.266Y-136.398
X96.266Y-145.542
X96.266Y-149.098
X96.266Y-152.654
X96.266Y-156.21
X96.266Y-160.274
X96.266Y-163.83
X96.266Y-167.386
X96.266Y-170.942
X96.266Y-175.006
X96.266Y-178.562
X96.266Y-182.118
X96.266Y-185.674
X96.266Y-189.738
X96.266Y-193.294
X96.266Y-196.85
X96.266Y-200.406
X96.266Y-204.47
X96.266Y-208.026
X96.266Y-211.582
X96.266Y-215.138
X96.266Y-219.202
X96.266Y-222.758
X96.266Y-226.314
X96.266Y-229.87
X96.266Y-233.934
X96.266Y-237.49
X96.266Y-241.046
X96.266Y-244.602
X96.266Y-248.666
X96.266Y-252.222
X96.266Y-255.778
X96.266Y-259.334
X102.108Y-24.13
X102.108Y-31.75
X102.108Y-38.862
X102.108Y-46.482
X102.108Y-53.594
X102.108Y-61.214
X102.108Y-68.326
X102.108Y-75.946
X102.108Y-83.058
X102.108Y-90.678
X102.108Y-97.79
X102.108Y-105.41
X102.108Y-112.522
X102.108Y-120.142
X102.108Y-127.254
X102.108Y-134.874
X102.108Y-147.066
X102.108Y-154.686
X102.108Y-161.798
X102.108Y-169.418
X102.108Y-176.53
X102.108Y-184.15
X102.108Y-191.262
X102.108Y-198.882
X102.108Y-205.994
X102.108Y-213.614
X102.108Y-220.726
X102.108Y-228.346
X102.108Y-235.458
X102.108Y-243.078
X102.108Y-250.19
X102.108Y-257.81
X104.648Y-24.13
X104.648Y-31.75
X104.648Y-38.862
X104.648Y-46.482
X104.648Y-53.594
X104.648Y-61.214
X104.648Y-68.326
X104.648Y-75.946
X104.648Y-83.058
X104.648Y-90.678
X104.648Y-97.79
X104.648Y-105.41
X104.648Y-112.522
X104.648Y-120.142
X104.648Y-127.254
X104.648Y-134.874
X104.648Y-147.066
X104.648Y-154.686
X104.648Y-161.798
X104.648Y-169.418
X104.648Y-176.53
X104.648Y-184.15
X104.648Y-191.262
X104.648Y-198.882
X104.648Y-205.994
X104.648Y-213.614
X104.648Y-220.726
X104.648Y-228.346
X104.648Y-235.458
X104.648Y-243.078
X104.648Y-250.19
X104.648Y-257.81
X104.648Y-261.366
X104.668Y-123.698
X104.688Y-35.306
X104.688Y-50.038
X104.688Y-64.77
X104.688Y-79.502
X104.688Y-94.234
X104.688Y-108.966
X104.688Y-138.43
X104.688Y-158.242
X104.688Y-187.706
X104.688Y-202.438
X104.688Y-217.17
X104.688Y-231.902
X104.688Y-246.634
X104.942Y-172.974
X107.148Y-261.366
X107.168Y-123.698
X107.188Y-24.13
X107.188Y-31.75
X107.188Y-35.306
X107.188Y-38.862
X107.188Y-46.482
X107.188Y-50.038
X107.188Y-53.594
X107.188Y-61.214
X107.188Y-64.77
X107.188Y-68.326
X107.188Y-75.946
X107.188Y-79.502
X107.188Y-83.058
X107.188Y-90.678
X107.188Y-94.234
X107.188Y-97.79
X107.188Y-105.41
X107.188Y-108.966
X107.188Y-112.522
X107.188Y-120.142
X107.188Y-127.254
X107.188Y-134.874
X107.188Y-138.43
X107.188Y-147.066
X107.188Y-154.686
X107.188Y-158.242
X107.188Y-161.798
X107.188Y-169.418
X107.188Y-176.53
X107.188Y-184.15
X107.188Y-187.706
X107.188Y-191.262
X107.188Y-198.882
X107.188Y-202.438
X107.188Y-205.994
X107.188Y-213.614
X107.188Y-217.17
X107.188Y-220.726
X107.188Y-228.346
X107.188Y-231.902
X107.188Y-235.458
X107.188Y-243.078
X107.188Y-246.634
X107.188Y-250.19
X107.188Y-257.81
X107.442Y-172.974
X109.728Y-24.13
X109.728Y-31.75
X109.728Y-38.862
X109.728Y-46.482
X109.728Y-53.594
X109.728Y-61.214
X109.728Y-68.326
X109.728Y-75.946
X109.728Y-83.058
X109.728Y-90.678
X109.728Y-97.79
X109.728Y-105.41
X109.728Y-112.522
X109.728Y-120.142
X109.728Y-127.254
X109.728Y-134.874
X109.728Y-147.066
X109.728Y-154.686
X109.728Y-161.798
X109.728Y-169.418
X109.728Y-176.53
X109.728Y-184.15
X109.728Y-191.262
X109.728Y-198.882
X109.728Y-205.994
X109.728Y-213.614
X109.728Y-220.726
X109.728Y-228.346
X109.728Y-235.458
X109.728Y-243.078
X109.728Y-250.19
X109.728Y-257.81
X112.268Y-24.13
X112.268Y-31.75
X112.268Y-38.862
X112.268Y-46.482
X112.268Y-53.594
X112.268Y-61.214
X112.268Y-68.326
X112.268Y-75.946
X112.268Y-83.058
X112.268Y-90.678
X112.268Y-97.79
X112.268Y-105.41
X112.268Y-112.522
X112.268Y-120.142
X112.268Y-127.254
X112.268Y-134.874
X112.268Y-147.066
X112.268Y-154.686
X112.268Y-161.798
X112.268Y-169.418
X112.268Y-176.53
X112.268Y-184.15
X112.268Y-191.262
X112.268Y-198.882
X112.268Y-205.994
X112.268Y-213.614
X112.268Y-220.726
X112.268Y-228.346
X112.268Y-235.458
X112.268Y-243.078
X112.268Y-250.19
X112.268Y-257.81
X114.808Y-24.13
X114.808Y-31.75
X114.808Y-38.862
X114.808Y-46.482
X114.808Y-53.594
X114.808Y-61.214
X114.808Y-68.326
X114.808Y-75.946
X114.808Y-83.058
X114.808Y-90.678
X114.808Y-97.79
X114.808Y-105.41
X114.808Y-112.522
X114.808Y-120.142
X114.808Y-127.254
X114.808Y-134.874
X114.808Y-147.066
X114.808Y-154.686
X114.808Y-161.798
X114.808Y-169.418
X114.808Y-176.53
X114.808Y-184.15
X114.808Y-191.262
X114.808Y-198.882
X114.808Y-205.994
X114.808Y-213.614
X114.808Y-220.726
X114.808Y-228.346
X114.808Y-235.458
X114.808Y-243.078
X114.808Y-250.19
X114.808Y-257.81
X117.348Y-24.13
X117.348Y-31.75
X117.348Y-38.862
X117.348Y-46.482
X117.348Y-53.594
X117.348Y-61.214
X117.348Y-68.326
X117.348Y-75.946
X117.348Y-83.058
X117.348Y-90.678
X117.348Y-97.79
X117.348Y-105.41
X117.348Y-112.522
X117.348Y-120.142
X117.348Y-127.254
X117.348Y-134.874
X117.348Y-147.066
X117.348Y-154.686
X117.348Y-161.798
X117.348Y-169.418
X117.348Y-176.53
X117.348Y-184.15
X117.348Y-191.262
X117.348Y-198.882
X117.348Y-205.994
X117.348Y-213.614
X117.348Y-220.726
X117.348Y-228.346
X117.348Y-235.458
X117.348Y-243.078
X117.348Y-250.19
X117.348Y-257.81
X119.888Y-24.13
X119.888Y-31.75
X119.888Y-38.862
X119.888Y-46.482
X119.888Y-53.594
X119.888Y-61.214
X119.888Y-68.326
X119.888Y-75.946
X119.888Y-83.058
X119.888Y-90.678
X119.888Y-97.79
X119.888Y-105.41
X119.888Y-112.522
X119.888Y-120.142
X119.888Y-127.254
X119.888Y-134.874
X119.888Y-147.066
X119.888Y-154.686
X119.888Y-161.798
X119.888Y-169.418
X119.888Y-176.53
X119.888Y-184.15
X119.888Y-191.262
X119.888Y-198.882
X119.888Y-205.994
X119.888Y-213.614
X119.888Y-220.726
X119.888Y-228.346
X119.888Y-235.458
X119.888Y-243.078
X119.888Y-250.19
X119.888Y-257.81
X141.986Y-22.606
X141.986Y-26.162
X141.986Y-29.718
X141.986Y-33.274
X141.986Y-37.338
X141.986Y-40.894
X141.986Y-44.45
X141.986Y-48.006
X141.986Y-52.07
X141.986Y-55.626
X141.986Y-59.182
X141.986Y-62.738
X141.986Y-66.802
X141.986Y-70.358
X141.986Y-73.914
X141.986Y-77.47
X141.986Y-81.534
X141.986Y-85.09
X141.986Y-88.646
X141.986Y-92.202
X141.986Y-96.266
X141.986Y-99.822
X141.986Y-103.378
X141.986Y-106.934
X141.986Y-110.998
X141.986Y-114.554
X141.986Y-118.11
X141.986Y-121.666
X141.986Y-125.73
X141.986Y-129.286
X141.986Y-132.842
X141.986Y-136.398
X141.986Y-145.542
X141.986Y-149.098
X141.986Y-152.654
X141.986Y-156.21
X141.986Y-160.274
X141.986Y-163.83
X141.986Y-167.386
X141.986Y-170.942
X141.986Y-175.006
X141.986Y-178.562
X141.986Y-182.118
X141.986Y-185.674
X141.986Y-189.738
X141.986Y-193.294
X141.986Y-196.85
X141.986Y-200.406
X141.986Y-204.47
X141.986Y-208.026
X141.986Y-211.582
X141.986Y-215.138
X141.986Y-219.202
X141.986Y-222.758
X141.986Y-226.314
X141.986Y-229.87
X141.986Y-233.934
X141.986Y-237.49
X141.986Y-241.046
X141.986Y-244.602
X141.986Y-248.666
X141.986Y-252.222
X141.986Y-255.778
X141.986Y-259.334
X152.146Y-22.606
X152.146Y-26.162
X152.146Y-29.718
X152.146Y-33.274
X152.146Y-37.338
X152.146Y-40.894
X152.146Y-44.45
X152.146Y-48.006
X152.146Y-52.07
X152.146Y-55.626
X152.146Y-59.182
X152.146Y-62.738
X152.146Y-66.802
X152.146Y-70.358
X152.146Y-73.914
X152.146Y-77.47
X152.146Y-81.534
X152.146Y-85.09
X152.146Y-88.646
X152.146Y-92.202
X152.146Y-96.266
X152.146Y-99.822
X152.146Y-103.378
X152.146Y-106.934
X152.146Y-110.998
X152.146Y-114.554
X152.146Y-118.11
X152.146Y-121.666
X152.146Y-125.73
X152.146Y-129.286
X152.146Y-132.842
X152.146Y-136.398
X152.146Y-145.542
X152.146Y-149.098
X152.146Y-152.654
X152.146Y-156.21
X152.146Y-160.274
X152.146Y-163.83
X152.146Y-167.386
X152.146Y-170.942
X152.146Y-175.006
X152.146Y-178.562
X152.146Y-182.118
X152.146Y-185.674
X152.146Y-189.738
X152.146Y-193.294
X152.146Y-196.85
X152.146Y-200.406
X152.146Y-204.47
X152.146Y-208.026
X152.146Y-211.582
X152.146Y-215.138
X152.146Y-219.202
X152.146Y-222.758
X152.146Y-226.314
X152.146Y-229.87
X152.146Y-233.934
X152.146Y-237.49
X152.146Y-241.046
X152.146Y-244.602
X152.146Y-248.666
X152.146Y-252.222
X152.146Y-255.778
X152.146Y-259.334
X154.686Y-22.606
X154.686Y-26.162
X154.686Y-29.718
X154.686Y-33.274
X154.686Y-37.338
X154.686Y-40.894
X154.686Y-44.45
X154.686Y-48.006
X154.686Y-52.07
X154.686Y-55.626
X154.686Y-59.182
X154.686Y-62.738
X154.686Y-66.802
X154.686Y-70.358
X154.686Y-73.914
X154.686Y-77.47
X154.686Y-81.534
X154.686Y-85.09
X154.686Y-88.646
X154.686Y-92.202
X154.686Y-96.266
X154.686Y-99.822
X154.686Y-103.378
X154.686Y-106.934
X154.686Y-110.998
X154.686Y-114.554
X154.686Y-118.11
X154.686Y-121.666
X154.686Y-125.73
X154.686Y-129.286
X154.686Y-132.842
X154.686Y-136.398
X154.686Y-145.542
X154.686Y-149.098
X154.686Y-152.654
X154.686Y-156.21
X154.686Y-160.274
X154.686Y-163.83
X154.686Y-167.386
X154.686Y-170.942
X154.686Y-175.006
X154.686Y-178.562
X154.686Y-182.118
X154.686Y-185.674
X154.686Y-189.738
X154.686Y-193.294
X154.686Y-196.85
X154.686Y-200.406
X154.686Y-204.47
X154.686Y-208.026
X154.686Y-211.582
X154.686Y-215.138
X154.686Y-219.202
X154.686Y-222.758
X154.686Y-226.314
X154.686Y-229.87
X154.686Y-233.934
X154.686Y-237.49
X154.686Y-241.046
X154.686Y-244.602
X154.686Y-248.666
X154.686Y-252.222
X154.686Y-255.778
X154.686Y-259.334
X164.846Y-22.606
X164.846Y-26.162
X164.846Y-29.718
X164.846Y-33.274
X164.846Y-37.338
X164.846Y-40.894
X164.846Y-44.45
X164.846Y-48.006
X164.846Y-52.07
X164.846Y-55.626
X164.846Y-59.182
X164.846Y-62.738
X164.846Y-66.802
X164.846Y-70.358
X164.846Y-73.914
X164.846Y-77.47
X164.846Y-81.534
X164.846Y-85.09
X164.846Y-88.646
X164.846Y-92.202
X164.846Y-96.266
X164.846Y-99.822
X164.846Y-103.378
X164.846Y-106.934
X164.846Y-110.998
X164.846Y-114.554
X164.846Y-118.11
X164.846Y-121.666
X164.846Y-125.73
X164.846Y-129.286
X164.846Y-132.842
X164.846Y-136.398
X164.846Y-145.542
X164.846Y-149.098
X164.846Y-152.654
X164.846Y-156.21
X164.846Y-160.274
X164.846Y-163.83
X164.846Y-167.386
X164.846Y-170.942
X164.846Y-175.006
X164.846Y-178.562
X164.846Y-182.118
X164.846Y-185.674
X164.846Y-189.738
X164.846Y-193.294
X164.846Y-196.85
X164.846Y-200.406
X164.846Y-204.47
X164.846Y-208.026
X164.846Y-211.582
X164.846Y-215.138
X164.846Y-219.202
X164.846Y-222.758
X164.846Y-226.314
X164.846Y-229.87
X164.846Y-233.934
X164.846Y-237.49
X164.846Y-241.046
X164.846Y-244.602
X164.846Y-248.666
X164.846Y-252.222
X164.846Y-255.778
X164.846Y-259.334
X170.688Y-24.13
X170.688Y-31.75
X170.688Y-38.862
X170.688Y-46.482
X170.688Y-53.594
X170.688Y-61.214
X170.688Y-68.326
X170.688Y-75.946
X170.688Y-83.058
X170.688Y-90.678
X170.688Y-97.79
X170.688Y-105.41
X170.688Y-112.522
X170.688Y-120.142
X170.688Y-127.254
X170.688Y-134.874
X170.688Y-147.066
X170.688Y-154.686
X170.688Y-161.798
X170.688Y-169.418
X170.688Y-176.53
X170.688Y-184.15
X170.688Y-191.262
X170.688Y-198.882
X170.688Y-205.994
X170.688Y-213.614
X170.688Y-220.726
X170.688Y-228.346
X170.688Y-235.458
X170.688Y-243.078
X170.688Y-250.19
X170.688Y-257.81
X173.228Y-24.13
X173.228Y-31.75
X173.228Y-38.862
X173.228Y-46.482
X173.228Y-50.038
X173.228Y-53.594
X173.228Y-61.214
X173.228Y-64.77
X173.228Y-68.326
X173.228Y-75.946
X173.228Y-79.502
X173.228Y-83.058
X173.228Y-90.678
X173.228Y-94.234
X173.228Y-97.79
X173.228Y-105.41
X173.228Y-112.522
X173.228Y-120.142
X173.228Y-123.698
X173.228Y-127.254
X173.228Y-134.874
X173.228Y-147.066
X173.228Y-154.686
X173.228Y-158.242
X173.228Y-161.798
X173.228Y-169.418
X173.228Y-172.974
X173.228Y-176.53
X173.228Y-184.15
X173.228Y-187.706
X173.228Y-191.262
X173.228Y-198.882
X173.228Y-202.438
X173.228Y-205.994
X173.228Y-213.614
X173.228Y-217.17
X173.228Y-220.726
X173.228Y-228.346
X173.228Y-231.902
X173.228Y-235.458
X173.228Y-243.078
X173.228Y-246.634
X173.228Y-250.19
X173.228Y-257.81
X173.248Y-108.966
X173.268Y-35.306
X173.268Y-138.43
X173.482Y-261.366
X175.728Y-50.038
X175.728Y-64.77
X175.728Y-79.502
X175.728Y-94.234
X175.728Y-123.698
X175.728Y-158.242
X175.728Y-172.974
X175.728Y-187.706
X175.728Y-202.438
X175.728Y-217.17
X175.728Y-231.902
X175.728Y-246.634
X175.748Y-108.966
X175.768Y-24.13
X175.768Y-31.75
X175.768Y-35.306
X175.768Y-38.862
X175.768Y-46.482
X175.768Y-53.594
X175.768Y-61.214
X175.768Y-68.326
X175.768Y-75.946
X175.768Y-83.058
X175.768Y-90.678
X175.768Y-97.79
X175.768Y-105.41
X175.768Y-112.522
X175.768Y-120.142
X175.768Y-127.254
X175.768Y-134.874
X175.768Y-138.43
X175.768Y-147.066
X175.768Y-154.686
X175.768Y-161.798
X175.768Y-169.418
X175.768Y-176.53
X175.768Y-184.15
X175.768Y-191.262
X175.768Y-198.882
X175.768Y-205.994
X175.768Y-213.614
X175.768Y-220.726
X175.768Y-228.346
X175.768Y-235.458
X175.768Y-243.078
X175.768Y-250.19
X175.768Y-257.81
X175.982Y-261.366
X178.308Y-24.13
X178.308Y-31.75
X178.308Y-38.862
X178.308Y-46.482
X178.308Y-53.594
X178.308Y-61.214
X178.308Y-68.326
X178.308Y-75.946
X178.308Y-83.058
X178.308Y-90.678
X178.308Y-97.79
X178.308Y-105.41
X178.308Y-112.522
X178.308Y-120.142
X178.308Y-127.254
X178.308Y-134.874
X178.308Y-147.066
X178.308Y-154.686
X178.308Y-161.798
X178.308Y-169.418
X178.308Y-176.53
X178.308Y-184.15
X178.308Y-191.262
X178.308Y-198.882
X178.308Y-205.994
X178.308Y-213.614
X178.308Y-220.726
X178.308Y-228.346
X178.308Y-235.458
X178.308Y-243.078
X178.308Y-250.19
X178.308Y-257.81
X180.848Y-24.13
X180.848Y-31.75
X180.848Y-38.862
X180.848Y-46.482
X180.848Y-53.594
X180.848Y-61.214
X180.848Y-68.326
X180.848Y-75.946
X180.848Y-83.058
X180.848Y-90.678
X180.848Y-97.79
X180.848Y-105.41
X180.848Y-112.522
X180.848Y-120.142
X180.848Y-127.254
X180.848Y-134.874
X180.848Y-147.066
X180.848Y-154.686
X180.848Y-161.798
X180.848Y-169.418
X180.848Y-176.53
X180.848Y-184.15
X180.848Y-191.262
X180.848Y-198.882
X180.848Y-205.994
X180.848Y-213.614
X180.848Y-220.726
X180.848Y-228.346
X180.848Y-235.458
X180.848Y-243.078
X180.848Y-250.19
X180.848Y-257.81
X183.388Y-24.13
X183.388Y-31.75
X183.388Y-38.862
X183.388Y-46.482
X183.388Y-53.594
X183.388Y-61.214
X183.388Y-68.326
X183.388Y-75.946
X183.388Y-83.058
X183.388Y-90.678
X183.388Y-97.79
X183.388Y-105.41
X183.388Y-112.522
X183.388Y-120.142
X183.388Y-127.254
X183.388Y-134.874
X183.388Y-147.066
X183.388Y-154.686
X183.388Y-161.798
X183.388Y-169.418
X183.388Y-176.53
X183.388Y-184.15
X183.388Y-191.262
X183.388Y-198.882
X183.388Y-205.994
X183.388Y-213.614
X183.388Y-220.726
X183.388Y-228.346
X183.388Y-235.458
X183.388Y-243.078
X183.388Y-250.19
X183.388Y-257.81
X185.928Y-24.13
X185.928Y-31.75
X185.928Y-38.862
X185.928Y-46.482
X185.928Y-53.594
X185.928Y-61.214
X185.928Y-68.326
X185.928Y-75.946
X185.928Y-83.058
X185.928Y-90.678
X185.928Y-97.79
X185.928Y-105.41
X185.928Y-112.522
X185.928Y-120.142
X185.928Y-127.254
X185.928Y-134.874
X185.928Y-147.066
X185.928Y-154.686
X185.928Y-161.798
X185.928Y-169.418
X185.928Y-176.53
X185.928Y-184.15
X185.928Y-191.262
X185.928Y-198.882
X185.928Y-205.994
X185.928Y-213.614
X185.928Y-220.726
X185.928Y-228.346
X185.928Y-235.458
X185.928Y-243.078
X185.928Y-250.19
X185.928Y-257.81
X188.468Y-24.13
X188.468Y-31.75
X188.468Y-38.862
X188.468Y-46.482
X188.468Y-53.594
X188.468Y-61.214
X188.468Y-68.326
X188.468Y-75.946
X188.468Y-83.058
X188.468Y-90.678
X188.468Y-97.79
X188.468Y-105.41
X188.468Y-112.522
X188.468Y-120.142
X188.468Y-127.254
X188.468Y-134.874
X188.468Y-147.066
X188.468Y-154.686
X188.468Y-161.798
X188.468Y-169.418
X188.468Y-176.53
X188.468Y-184.15
X188.468Y-191.262
X188.468Y-198.882
X188.468Y-205.994
X188.468Y-213.614
X188.468Y-220.726
X188.468Y-228.346
X188.468Y-235.458
X188.468Y-243.078
X188.468Y-250.19
X188.468Y-257.81
X210.566Y-22.606
X210.566Y-26.162
X210.566Y-29.718
X210.566Y-33.274
X210.566Y-37.338
X210.566Y-40.894
X210.566Y-44.45
X210.566Y-48.006
X210.566Y-52.07
X210.566Y-55.626
X210.566Y-59.182
X210.566Y-62.738
X210.566Y-66.802
X210.566Y-70.358
X210.566Y-73.914
X210.566Y-77.47
X210.566Y-81.534
X210.566Y-85.09
X210.566Y-88.646
X210.566Y-92.202
X210.566Y-96.266
X210.566Y-99.822
X210.566Y-103.378
X210.566Y-106.934
X210.566Y-110.998
X210.566Y-114.554
X210.566Y-118.11
X210.566Y-121.666
X210.566Y-125.73
X210.566Y-129.286
X210.566Y-132.842
X210.566Y-136.398
X210.566Y-145.542
X210.566Y-149.098
X210.566Y-152.654
X210.566Y-156.21
X210.566Y-160.274
X210.566Y-163.83
X210.566Y-167.386
X210.566Y-170.942
X210.566Y-175.006
X210.566Y-178.562
X210.566Y-182.118
X210.566Y-185.674
X210.566Y-189.738
X210.566Y-193.294
X210.566Y-196.85
X210.566Y-200.406
X210.566Y-204.47
X210.566Y-208.026
X210.566Y-211.582
X210.566Y-215.138
X210.566Y-219.202
X210.566Y-222.758
X210.566Y-226.314
X210.566Y-229.87
X210.566Y-233.934
X210.566Y-237.49
X210.566Y-241.046
X210.566Y-244.602
X210.566Y-248.666
X210.566Y-252.222
X210.566Y-255.778
X210.566Y-259.334
X220.726Y-22.606
X220.726Y-26.162
X220.726Y-29.718
X220.726Y-33.274
X220.726Y-37.338
X220.726Y-40.894
X220.726Y-44.45
X220.726Y-48.006
X220.726Y-52.07
X220.726Y-55.626
X220.726Y-59.182
X220.726Y-62.738
X220.726Y-66.802
X220.726Y-70.358
X220.726Y-73.914
X220.726Y-77.47
X220.726Y-81.534
X220.726Y-85.09
X220.726Y-88.646
X220.726Y-92.202
X220.726Y-96.266
X220.726Y-99.822
X220.726Y-103.378
X220.726Y-106.934
X220.726Y-110.998
X220.726Y-114.554
X220.726Y-118.11
X220.726Y-121.666
X220.726Y-125.73
X220.726Y-129.286
X220.726Y-132.842
X220.726Y-136.398
X220.726Y-145.542
X220.726Y-149.098
X220.726Y-152.654
X220.726Y-156.21
X220.726Y-160.274
X220.726Y-163.83
X220.726Y-167.386
X220.726Y-170.942
X220.726Y-175.006
X220.726Y-178.562
X220.726Y-182.118
X220.726Y-185.674
X220.726Y-189.738
X220.726Y-193.294
X220.726Y-196.85
X220.726Y-200.406
X220.726Y-204.47
X220.726Y-208.026
X220.726Y-211.582
X220.726Y-215.138
X220.726Y-219.202
X220.726Y-222.758
X220.726Y-226.314
X220.726Y-229.87
X220.726Y-233.934
X220.726Y-237.49
X220.726Y-241.046
X220.726Y-244.602
X220.726Y-248.666
X220.726Y-252.222
X220.726Y-255.778
X220.726Y-259.334
X223.266Y-22.606
X223.266Y-26.162
X223.266Y-29.718
X223.266Y-33.274
X223.266Y-37.338
X223.266Y-40.894
X223.266Y-44.45
X223.266Y-48.006
X223.266Y-52.07
X223.266Y-55.626
X223.266Y-59.182
X223.266Y-62.738
X223.266Y-66.802
X223.266Y-70.358
X223.266Y-73.914
X223.266Y-77.47
X223.266Y-81.534
X223.266Y-85.09
X223.266Y-88.646
X223.266Y-92.202
X223.266Y-96.266
X223.266Y-99.822
X223.266Y-103.378
X223.266Y-106.934
X223.266Y-110.998
X223.266Y-114.554
X223.266Y-118.11
X223.266Y-121.666
X223.266Y-125.73
X223.266Y-129.286
X223.266Y-132.842
X223.266Y-136.398
X223.266Y-145.542
X223.266Y-149.098
X223.266Y-152.654
X223.266Y-156.21
X223.266Y-160.274
X223.266Y-163.83
X223.266Y-167.386
X223.266Y-170.942
X223.266Y-175.006
X223.266Y-178.562
X223.266Y-182.118
X223.266Y-185.674
X223.266Y-189.738
X223.266Y-193.294
X223.266Y-196.85
X223.266Y-200.406
X223.266Y-204.47
X223.266Y-208.026
X223.266Y-211.582
X223.266Y-215.138
X223.266Y-219.202
X223.266Y-222.758
X223.266Y-226.314
X223.266Y-229.87
X223.266Y-233.934
X223.266Y-237.49
X223.266Y-241.046
X223.266Y-244.602
X223.266Y-248.666
X223.266Y-252.222
X223.266Y-255.778
X223.266Y-259.334
X233.426Y-22.606
X233.426Y-26.162
X233.426Y-29.718
X233.426Y-33.274
X233.426Y-37.338
X233.426Y-40.894
X233.426Y-44.45
X233.426Y-48.006
X233.426Y-52.07
X233.426Y-55.626
X233.426Y-59.182
X233.426Y-62.738
X233.426Y-66.802
X233.426Y-70.358
X233.426Y-73.914
X233.426Y-77.47
X233.426Y-81.534
X233.426Y-85.09
X233.426Y-88.646
X233.426Y-92.202
X233.426Y-96.266
X233.426Y-99.822
X233.426Y-103.378
X233.426Y-106.934
X233.426Y-110.998
X233.426Y-114.554
X233.426Y-118.11
X233.426Y-121.666
X233.426Y-125.73
X233.426Y-129.286
X233.426Y-132.842
X233.426Y-136.398
X233.426Y-145.542
X233.426Y-149.098
X233.426Y-152.654
X233.426Y-156.21
X233.426Y-160.274
X233.426Y-163.83
X233.426Y-167.386
X233.426Y-170.942
X233.426Y-175.006
X233.426Y-178.562
X233.426Y-182.118
X233.426Y-185.674
X233.426Y-189.738
X233.426Y-193.294
X233.426Y-196.85
X233.426Y-200.406
X233.426Y-204.47
X233.426Y-208.026
X233.426Y-211.582
X233.426Y-215.138
X233.426Y-219.202
X233.426Y-222.758
X233.426Y-226.314
X233.426Y-229.87
X233.426Y-233.934
X233.426Y-237.49
X233.426Y-241.046
X233.426Y-244.602
X233.426Y-248.666
X233.426Y-252.222
X233.426Y-255.778
X233.426Y-259.334
X239.268Y-24.13
X239.268Y-31.75
X239.268Y-38.862
X239.268Y-46.482
X239.268Y-53.594
X239.268Y-61.214
X239.268Y-68.326
X239.268Y-75.946
X239.268Y-83.058
X239.268Y-90.678
X239.268Y-97.79
X239.268Y-105.41
X239.268Y-112.522
X239.268Y-120.142
X239.268Y-127.254
X239.268Y-134.874
X239.268Y-147.066
X239.268Y-154.686
X239.268Y-161.798
X239.268Y-169.418
X239.268Y-176.53
X239.268Y-184.15
X239.268Y-191.262
X239.268Y-198.882
X239.268Y-205.994
X239.268Y-213.614
X239.268Y-220.726
X239.268Y-228.346
X239.268Y-235.458
X239.268Y-243.078
X239.268Y-250.19
X239.268Y-257.81
X241.808Y-24.13
X241.808Y-31.75
X241.808Y-38.862
X241.808Y-46.482
X241.808Y-53.594
X241.808Y-61.214
X241.808Y-68.326
X241.808Y-75.946
X241.808Y-83.058
X241.808Y-90.678
X241.808Y-97.79
X241.808Y-105.41
X241.808Y-112.522
X241.808Y-120.142
X241.808Y-127.254
X241.808Y-134.874
X241.808Y-147.066
X241.808Y-154.686
X241.808Y-161.798
X241.808Y-169.418
X241.808Y-176.53
X241.808Y-184.15
X241.808Y-191.262
X241.808Y-198.882
X241.808Y-205.994
X241.808Y-213.614
X241.808Y-220.726
X241.808Y-228.346
X241.808Y-235.458
X241.808Y-243.078
X241.808Y-250.19
X241.808Y-257.81
X241.848Y-35.306
X241.848Y-50.038
X241.848Y-64.77
X241.848Y-79.502
X241.848Y-94.234
X241.848Y-108.966
X241.848Y-123.698
X241.848Y-138.43
X241.848Y-158.242
X241.848Y-172.974
X241.848Y-187.706
X241.848Y-202.438
X241.848Y-217.17
X241.848Y-231.902
X241.848Y-246.634
X241.848Y-261.366
X244.348Y-24.13
X244.348Y-31.75
X244.348Y-35.306
X244.348Y-38.862
X244.348Y-46.482
X244.348Y-50.038
X244.348Y-53.594
X244.348Y-61.214
X244.348Y-64.77
X244.348Y-68.326
X244.348Y-75.946
X244.348Y-79.502
X244.348Y-83.058
X244.348Y-90.678
X244.348Y-94.234
X244.348Y-97.79
X244.348Y-105.41
X244.348Y-108.966
X244.348Y-112.522
X244.348Y-120.142
X244.348Y-123.698
X244.348Y-127.254
X244.348Y-134.874
X244.348Y-138.43
X244.348Y-147.066
X244.348Y-154.686
X244.348Y-158.242
X244.348Y-161.798
X244.348Y-169.418
X244.348Y-172.974
X244.348Y-176.53
X244.348Y-184.15
X244.348Y-187.706
X244.348Y-191.262
X244.348Y-198.882
X244.348Y-202.438
X244.348Y-205.994
X244.348Y-213.614
X244.348Y-217.17
X244.348Y-220.726
X244.348Y-228.346
X244.348Y-231.902
X244.348Y-235.458
X244.348Y-243.078
X244.348Y-246.634
X244.348Y-250.19
X244.348Y-257.81
X244.348Y-261.366
X246.888Y-24.13
X246.888Y-31.75
X246.888Y-38.862
X246.888Y-46.482
X246.888Y-53.594
X246.888Y-61.214
X246.888Y-68.326
X246.888Y-75.946
X246.888Y-83.058
X246.888Y-90.678
X246.888Y-97.79
X246.888Y-105.41
X246.888Y-112.522
X246.888Y-120.142
X246.888Y-127.254
X246.888Y-134.874
X246.888Y-147.066
X246.888Y-154.686
X246.888Y-161.798
X246.888Y-169.418
X246.888Y-176.53
X246.888Y-184.15
X246.888Y-191.262
X246.888Y-198.882
X246.888Y-205.994
X246.888Y-213.614
X246.888Y-220.726
X246.888Y-228.346
X246.888Y-235.458
X246.888Y-243.078
X246.888Y-250.19
X246.888Y-257.81
X249.428Y-24.13
X249.428Y-31.75
X249.428Y-38.862
X249.428Y-46.482
X249.428Y-53.594
X249.428Y-61.214
X249.428Y-68.326
X249.428Y-75.946
X249.428Y-83.058
X249.428Y-90.678
X249.428Y-97.79
X249.428Y-105.41
X249.428Y-112.522
X249.428Y-120.142
X249.428Y-127.254
X249.428Y-134.874
X249.428Y-147.066
X249.428Y-154.686
X249.428Y-161.798
X249.428Y-169.418
X249.428Y-176.53
X249.428Y-184.15
X249.428Y-191.262
X249.428Y-198.882
X249.428Y-205.994
X249.428Y-213.614
X249.428Y-220.726
X249.428Y-228.346
X249.428Y-235.458
X249.428Y-243.078
X249.428Y-250.19
X249.428Y-257.81
X251.968Y-24.13
X251.968Y-31.75
X251.968Y-38.862
X251.968Y-46.482
X251.968Y-53.594
X251.968Y-61.214
X251.968Y-68.326
X251.968Y-75.946
X251.968Y-83.058
X251.968Y-90.678
X251.968Y-97.79
X251.968Y-105.41
X251.968Y-112.522
X251.968Y-120.142
X251.968Y-127.254
X251.968Y-134.874
X251.968Y-147.066
X251.968Y-154.686
X251.968Y-161.798
X251.968Y-169.418
X251.968Y-176.53
X251.968Y-184.15
X251.968Y-191.262
X251.968Y-198.882
X251.968Y-205.994
X251.968Y-213.614
X251.968Y-220.726
X251.968Y-228.346
X251.968Y-235.458
X251.968Y-243.078
X251.968Y-250.19
X251.968Y-257.81
X254.508Y-24.13
X254.508Y-31.75
X254.508Y-38.862
X254.508Y-46.482
X254.508Y-53.594
X254.508Y-61.214
X254.508Y-68.326
X254.508Y-75.946
X254.508Y-83.058
X254.508Y-90.678
X254.508Y-97.79
X254.508Y-105.41
X254.508Y-112.522
X254.508Y-120.142
X254.508Y-127.254
X254.508Y-134.874
X254.508Y-147.066
X254.508Y-154.686
X254.508Y-161.798
X254.508Y-169.418
X254.508Y-176.53
X254.508Y-184.15
X254.508Y-191.262
X254.508Y-198.882
X254.508Y-205.994
X254.508Y-213.614
X254.508Y-220.726
X254.508Y-228.346
X254.508Y-235.458
X254.508Y-243.078
X254.508Y-250.19
X254.508Y-257.81
X257.048Y-24.13
X257.048Y-31.75
X257.048Y-38.862
X257.048Y-46.482
X257.048Y-53.594
X257.048Y-61.214
X257.048Y-68.326
X257.048Y-75.946
X257.048Y-83.058
X257.048Y-90.678
X257.048Y-97.79
X257.048Y-105.41
X257.048Y-112.522
X257.048Y-120.142
X257.048Y-127.254
X257.048Y-134.874
X257.048Y-147.066
X257.048Y-154.686
X257.048Y-161.798
X257.048Y-169.418
X257.048Y-176.53
X257.048Y-184.15
X257.048Y-191.262
X257.048Y-198.882
X257.048Y-205.994
X257.048Y-213.614
X257.048Y-220.726
X257.048Y-228.346
X257.048Y-235.458
X257.048Y-243.078
X257.048Y-250.19
X257.048Y-257.81
T3
X33.02Y-203.2
X33.02Y-205.74
X33.02Y-208.28
X33.02Y-214.63
X33.02Y-217.17
X33.02Y-219.71
X33.02Y-226.06
X33.02Y-228.6
X33.02Y-231.14
X33.02Y-237.49
X33.02Y-240.03
X33.02Y-242.57
X33.02Y-248.92
X33.02Y-251.46
X33.02Y-254.0
X33.02Y-256.54
X40.64Y-264.179
X43.18Y-264.179
X45.72Y-157.734
X45.72Y-160.274
X45.72Y-162.814
X45.72Y-165.354
X45.72Y-167.894
X45.72Y-170.434
X45.72Y-172.974
X45.72Y-175.514
X45.72Y-178.054
X45.72Y-180.594
X45.72Y-183.134
X45.72Y-185.674
X45.72Y-188.214
X45.72Y-190.754
X45.72Y-193.294
X49.535Y-264.179
X52.075Y-264.179
X54.615Y-264.179
X60.96Y-157.734
X60.96Y-160.274
X60.96Y-162.814
X60.96Y-165.354
X60.96Y-167.894
X60.96Y-170.434
X60.96Y-172.974
X60.96Y-175.514
X60.96Y-178.054
X60.96Y-180.594
X60.96Y-183.134
X60.96Y-185.674
X60.96Y-188.214
X60.96Y-190.754
X60.96Y-193.294
X60.965Y-264.179
X63.505Y-264.179
X130.048Y-29.718
X130.048Y-32.258
X130.048Y-34.798
X130.048Y-37.338
X130.048Y-39.878
X130.048Y-42.418
X130.048Y-44.958
X130.048Y-47.498
X130.048Y-50.038
X130.048Y-52.578
X130.048Y-55.118
X130.048Y-57.658
X130.048Y-60.198
X130.048Y-62.738
X130.048Y-65.278
X130.048Y-67.818
X130.048Y-70.358
X130.048Y-91.186
X130.048Y-93.726
X130.048Y-96.266
X130.048Y-98.806
X130.048Y-101.346
X130.048Y-103.886
X130.048Y-106.426
X130.048Y-108.966
X130.048Y-111.506
X130.048Y-114.046
X130.048Y-116.586
X130.048Y-119.126
X130.048Y-121.666
X130.048Y-124.206
X130.048Y-126.746
X130.048Y-129.286
X130.048Y-131.826
X130.048Y-152.654
X130.048Y-155.194
X130.048Y-157.734
X130.048Y-160.274
X130.048Y-162.814
X130.048Y-165.354
X130.048Y-167.894
X130.048Y-170.434
X130.048Y-172.974
X130.048Y-175.514
X130.048Y-178.054
X130.048Y-180.594
X130.048Y-183.134
X130.048Y-185.674
X130.048Y-188.214
X130.048Y-190.754
X130.048Y-193.294
X130.048Y-214.122
X130.048Y-216.662
X130.048Y-219.202
X130.048Y-221.742
X130.048Y-224.282
X130.048Y-226.822
X130.048Y-229.362
X130.048Y-231.902
X130.048Y-234.442
X130.048Y-236.982
X130.048Y-239.522
X130.048Y-242.062
X130.048Y-244.602
X130.048Y-247.142
X130.048Y-249.682
X130.048Y-252.222
X130.048Y-254.762
X132.588Y-29.718
X132.588Y-32.258
X132.588Y-34.798
X132.588Y-37.338
X132.588Y-39.878
X132.588Y-42.418
X132.588Y-44.958
X132.588Y-47.498
X132.588Y-50.038
X132.588Y-52.578
X132.588Y-55.118
X132.588Y-57.658
X132.588Y-60.198
X132.588Y-62.738
X132.588Y-65.278
X132.588Y-67.818
X132.588Y-70.358
X132.588Y-91.186
X132.588Y-93.726
X132.588Y-96.266
X132.588Y-98.806
X132.588Y-101.346
X132.588Y-103.886
X132.588Y-106.426
X132.588Y-108.966
X132.588Y-111.506
X132.588Y-114.046
X132.588Y-116.586
X132.588Y-119.126
X132.588Y-121.666
X132.588Y-124.206
X132.588Y-126.746
X132.588Y-129.286
X132.588Y-131.826
X132.588Y-152.654
X132.588Y-155.194
X132.588Y-157.734
X132.588Y-160.274
X132.588Y-162.814
X132.588Y-165.354
X132.588Y-167.894
X132.588Y-170.434
X132.588Y-172.974
X132.588Y-175.514
X132.588Y-178.054
X132.588Y-180.594
X132.588Y-183.134
X132.588Y-185.674
X132.588Y-188.214
X132.588Y-190.754
X132.588Y-193.294
X132.588Y-214.122
X132.588Y-216.662
X132.588Y-219.202
X132.588Y-221.742
X132.588Y-224.282
X132.588Y-226.822
X132.588Y-229.362
X132.588Y-231.902
X132.588Y-234.442
X132.588Y-236.982
X132.588Y-239.522
X132.588Y-242.062
X132.588Y-244.602
X132.588Y-247.142
X132.588Y-249.682
X132.588Y-252.222
X132.588Y-254.762
X198.628Y-29.718
X198.628Y-32.258
X198.628Y-34.798
X198.628Y-37.338
X198.628Y-39.878
X198.628Y-42.418
X198.628Y-44.958
X198.628Y-47.498
X198.628Y-50.038
X198.628Y-52.578
X198.628Y-55.118
X198.628Y-57.658
X198.628Y-60.198
X198.628Y-62.738
X198.628Y-65.278
X198.628Y-67.818
X198.628Y-70.358
X198.628Y-91.186
X198.628Y-93.726
X198.628Y-96.266
X198.628Y-98.806
X198.628Y-101.346
X198.628Y-103.886
X198.628Y-106.426
X198.628Y-108.966
X198.628Y-111.506
X198.628Y-114.046
X198.628Y-116.586
X198.628Y-119.126
X198.628Y-121.666
X198.628Y-124.206
X198.628Y-126.746
X198.628Y-129.286
X198.628Y-131.826
X198.628Y-152.654
X198.628Y-155.194
X198.628Y-157.734
X198.628Y-160.274
X198.628Y-162.814
X198.628Y-165.354
X198.628Y-167.894
X198.628Y-170.434
X198.628Y-172.974
X198.628Y-175.514
X198.628Y-178.054
X198.628Y-180.594
X198.628Y-183.134
X198.628Y-185.674
X198.628Y-188.214
X198.628Y-190.754
X198.628Y-193.294
X198.628Y-214.122
X198.628Y-216.662
X198.628Y-219.202
X198.628Y-221.742
X198.628Y-224.282
X198.628Y-226.822
X198.628Y-229.362
X198.628Y-231.902
X198.628Y-234.442
X198.628Y-236.982
X198.628Y-239.522
X198.628Y-242.062
X198.628Y-244.602
X198.628Y-247.142
X198.628Y-249.682
X198.628Y-252.222
X198.628Y-254.762
X201.168Y-29.718
X201.168Y-32.258
X201.168Y-34.798
X201.168Y-37.338
X201.168Y-39.878
X201.168Y-42.418
X201.168Y-44.958
X201.168Y-47.498
X201.168Y-50.038
X201.168Y-52.578
X201.168Y-55.118
X201.168Y-57.658
X201.168Y-60.198
X201.168Y-62.738
X201.168Y-65.278
X201.168Y-67.818
X201.168Y-70.358
X201.168Y-91.186
X201.168Y-93.726
X201.168Y-96.266
X201.168Y-98.806
X201.168Y-101.346
X201.168Y-103.886
X201.168Y-106.426
X201.168Y-108.966
X201.168Y-111.506
X201.168Y-114.046
X201.168Y-116.586
X201.168Y-119.126
X201.168Y-121.666
X201.168Y-124.206
X201.168Y-126.746
X201.168Y-129.286
X201.168Y-131.826
X201.168Y-152.654
X201.168Y-155.194
X201.168Y-157.734
X201.168Y-160.274
X201.168Y-162.814
X201.168Y-165.354
X201.168Y-167.894
X201.168Y-170.434
X201.168Y-172.974
X201.168Y-175.514
X201.168Y-178.054
X201.168Y-180.594
X201.168Y-183.134
X201.168Y-185.674
X201.168Y-188.214
X201.168Y-190.754
X201.168Y-193.294
X201.168Y-214.122
X201.168Y-216.662
X201.168Y-219.202
X201.168Y-221.742
X201.168Y-224.282
X201.168Y-226.822
X201.168Y-229.362
X201.168Y-231.902
X201.168Y-234.442
X201.168Y-236.982
X201.168Y-239.522
X201.168Y-242.062
X201.168Y-244.602
X201.168Y-247.142
X201.168Y-249.682
X201.168Y-252.222
X201.168Y-254.762
X267.208Y-29.718
X267.208Y-32.258
X267.208Y-34.798
X267.208Y-37.338
X267.208Y-39.878
X267.208Y-42.418
X267.208Y-44.958
X267.208Y-47.498
X267.208Y-50.038
X267.208Y-52.578
X267.208Y-55.118
X267.208Y-57.658
X267.208Y-60.198
X267.208Y-62.738
X267.208Y-65.278
X267.208Y-67.818
X267.208Y-70.358
X267.208Y-91.186
X267.208Y-93.726
X267.208Y-96.266
X267.208Y-98.806
X267.208Y-101.346
X267.208Y-103.886
X267.208Y-106.426
X267.208Y-108.966
X267.208Y-111.506
X267.208Y-114.046
X267.208Y-116.586
X267.208Y-119.126
X267.208Y-121.666
X267.208Y-124.206
X267.208Y-126.746
X267.208Y-129.286
X267.208Y-131.826
X267.208Y-152.654
X267.208Y-155.194
X267.208Y-157.734
X267.208Y-160.274
X267.208Y-162.814
X267.208Y-165.354
X267.208Y-167.894
X267.208Y-170.434
X267.208Y-172.974
X267.208Y-175.514
X267.208Y-178.054
X267.208Y-180.594
X267.208Y-183.134
X267.208Y-185.674
X267.208Y-188.214
X267.208Y-190.754
X267.208Y-193.294
X267.208Y-214.122
X267.208Y-216.662
X267.208Y-219.202
X267.208Y-221.742
X267.208Y-224.282
X267.208Y-226.822
X267.208Y-229.362
X267.208Y-231.902
X267.208Y-234.442
X267.208Y-236.982
X267.208Y-239.522
X267.208Y-242.062
X267.208Y-244.602
X267.208Y-247.142
X267.208Y-249.682
X267.208Y-252.222
X267.208Y-254.762
X269.748Y-29.718
X269.748Y-32.258
X269.748Y-34.798
X269.748Y-37.338
X269.748Y-39.878
X269.748Y-42.418
X269.748Y-44.958
X269.748Y-47.498
X269.748Y-50.038
X269.748Y-52.578
X269.748Y-55.118
X269.748Y-57.658
X269.748Y-60.198
X269.748Y-62.738
X269.748Y-65.278
X269.748Y-67.818
X269.748Y-70.358
X269.748Y-91.186
X269.748Y-93.726
X269.748Y-96.266
X269.748Y-98.806
X269.748Y-101.346
X269.748Y-103.886
X269.748Y-106.426
X269.748Y-108.966
X269.748Y-111.506
X269.748Y-114.046
X269.748Y-116.586
X269.748Y-119.126
X269.748Y-121.666
X269.748Y-124.206
X269.748Y-126.746
X269.748Y-129.286
X269.748Y-131.826
X269.748Y-152.654
X269.748Y-155.194
X269.748Y-157.734
X269.748Y-160.274
X269.748Y-162.814
X269.748Y-165.354
X269.748Y-167.894
X269.748Y-170.434
X269.748Y-172.974
X269.748Y-175.514
X269.748Y-178.054
X269.748Y-180.594
X269.748Y-183.134
X269.748Y-185.674
X269.748Y-188.214
X269.748Y-190.754
X269.748Y-193.294
X269.748Y-214.122
X269.748Y-216.662
X269.748Y-219.202
X269.748Y-221.742
X269.748Y-224.282
X269.748Y-226.822
X269.748Y-229.362
X269.748Y-231.902
X269.748Y-234.442
X269.748Y-236.982
X269.748Y-239.522
X269.748Y-242.062
X269.748Y-244.602
X269.748Y-247.142
X269.748Y-249.682
X269.748Y-252.222
X269.748Y-254.762
M30
