G04 #@! TF.GenerationSoftware,KiCad,Pcbnew,9.0.3*
G04 #@! TF.CreationDate,2025-10-26T18:59:10+01:00*
G04 #@! TF.ProjectId,digital_organ,64696769-7461-46c5-9f6f-7267616e2e6b,rev?*
G04 #@! TF.SameCoordinates,Original*
G04 #@! TF.FileFunction,Soldermask,Bot*
G04 #@! TF.FilePolarity,Negative*
%FSLAX46Y46*%
G04 Gerber Fmt 4.6, Leading zero omitted, Abs format (unit mm)*
G04 Created by KiCad (PCBNEW 9.0.3) date 2025-10-26 18:59:10*
%MOMM*%
%LPD*%
G01*
G04 APERTURE LIST*
G04 Aperture macros list*
%AMRoundRect*
0 Rectangle with rounded corners*
0 $1 Rounding radius*
0 $2 $3 $4 $5 $6 $7 $8 $9 X,Y pos of 4 corners*
0 Add a 4 corners polygon primitive as box body*
4,1,4,$2,$3,$4,$5,$6,$7,$8,$9,$2,$3,0*
0 Add four circle primitives for the rounded corners*
1,1,$1+$1,$2,$3*
1,1,$1+$1,$4,$5*
1,1,$1+$1,$6,$7*
1,1,$1+$1,$8,$9*
0 Add four rect primitives between the rounded corners*
20,1,$1+$1,$2,$3,$4,$5,0*
20,1,$1+$1,$4,$5,$6,$7,0*
20,1,$1+$1,$6,$7,$8,$9,0*
20,1,$1+$1,$8,$9,$2,$3,0*%
G04 Aperture macros list end*
%ADD10C,3.200000*%
%ADD11C,1.600000*%
%ADD12RoundRect,0.250000X-0.550000X0.550000X-0.550000X-0.550000X0.550000X-0.550000X0.550000X0.550000X0*%
%ADD13RoundRect,0.250000X-0.600000X-0.600000X0.600000X-0.600000X0.600000X0.600000X-0.600000X0.600000X0*%
%ADD14C,1.700000*%
%ADD15R,1.700000X1.700000*%
%ADD16R,1.600000X1.600000*%
%ADD17O,1.600000X1.600000*%
%ADD18RoundRect,0.250000X0.550000X0.550000X-0.550000X0.550000X-0.550000X-0.550000X0.550000X-0.550000X0*%
%ADD19RoundRect,0.250000X-0.550000X-0.550000X0.550000X-0.550000X0.550000X0.550000X-0.550000X0.550000X0*%
G04 APERTURE END LIST*
D10*
X204470000Y-114300000D03*
X62230000Y-114300000D03*
X133350000Y-114300000D03*
D11*
X27940000Y-72644000D03*
X38100000Y-72644000D03*
X99060000Y-127529092D03*
X109220000Y-127529092D03*
X27940000Y-148844000D03*
X38100000Y-148844000D03*
D12*
X162560000Y-148611092D03*
D11*
X160020000Y-148611092D03*
X157480000Y-148611092D03*
X154940000Y-148611092D03*
X152400000Y-148611092D03*
X149860000Y-148611092D03*
X147320000Y-148611092D03*
X144780000Y-148611092D03*
X144780000Y-156231092D03*
X147320000Y-156231092D03*
X149860000Y-156231092D03*
X152400000Y-156231092D03*
X154940000Y-156231092D03*
X157480000Y-156231092D03*
X160020000Y-156231092D03*
X162560000Y-156231092D03*
X99060000Y-123973092D03*
X109220000Y-123973092D03*
X170180000Y-61976000D03*
X180340000Y-61976000D03*
X27940000Y-83312000D03*
X38100000Y-83312000D03*
X99060000Y-83333092D03*
X109220000Y-83333092D03*
X27940000Y-138176000D03*
X38100000Y-138176000D03*
D12*
X233680000Y-163830000D03*
D11*
X231140000Y-163830000D03*
X228600000Y-163830000D03*
X226060000Y-163830000D03*
X223520000Y-163830000D03*
X220980000Y-163830000D03*
X218440000Y-163830000D03*
X215900000Y-163830000D03*
X215900000Y-171450000D03*
X218440000Y-171450000D03*
X220980000Y-171450000D03*
X223520000Y-171450000D03*
X226060000Y-171450000D03*
X228600000Y-171450000D03*
X231140000Y-171450000D03*
X233680000Y-171450000D03*
D13*
X203200000Y-64770000D03*
D14*
X205740000Y-64770000D03*
X203200000Y-67310000D03*
X205740000Y-67310000D03*
X203200000Y-69850000D03*
X205740000Y-69850000D03*
X203200000Y-72390000D03*
X205740000Y-72390000D03*
X203200000Y-74930000D03*
X205740000Y-74930000D03*
X203200000Y-77470000D03*
X205740000Y-77470000D03*
X203200000Y-80010000D03*
X205740000Y-80010000D03*
X203200000Y-82550000D03*
X205740000Y-82550000D03*
X203200000Y-85090000D03*
X205740000Y-85090000D03*
X203200000Y-87630000D03*
X205740000Y-87630000D03*
X203200000Y-90170000D03*
X205740000Y-90170000D03*
X203200000Y-92710000D03*
X205740000Y-92710000D03*
X203200000Y-95250000D03*
X205740000Y-95250000D03*
X203200000Y-97790000D03*
X205740000Y-97790000D03*
X203200000Y-100330000D03*
X205740000Y-100330000D03*
X203200000Y-102870000D03*
X205740000Y-102870000D03*
X203200000Y-105410000D03*
X205740000Y-105410000D03*
D11*
X170180000Y-72644000D03*
X180340000Y-72644000D03*
X99060000Y-101113092D03*
X109220000Y-101113092D03*
X162560000Y-83841092D03*
X160060000Y-83841092D03*
X233680000Y-114300000D03*
X231180000Y-114300000D03*
X99060000Y-131085092D03*
X109220000Y-131085092D03*
D15*
X83820000Y-29210000D03*
D14*
X86360000Y-29210000D03*
D11*
X99060000Y-155977092D03*
X109220000Y-155977092D03*
X182880000Y-69088000D03*
X193040000Y-69088000D03*
D12*
X233680000Y-118110000D03*
D11*
X231140000Y-118110000D03*
X228600000Y-118110000D03*
X226060000Y-118110000D03*
X223520000Y-118110000D03*
X220980000Y-118110000D03*
X218440000Y-118110000D03*
X215900000Y-118110000D03*
X215900000Y-125730000D03*
X218440000Y-125730000D03*
X220980000Y-125730000D03*
X223520000Y-125730000D03*
X226060000Y-125730000D03*
X228600000Y-125730000D03*
X231140000Y-125730000D03*
X233680000Y-125730000D03*
D12*
X162560000Y-87651092D03*
D11*
X160020000Y-87651092D03*
X157480000Y-87651092D03*
X154940000Y-87651092D03*
X152400000Y-87651092D03*
X149860000Y-87651092D03*
X147320000Y-87651092D03*
X144780000Y-87651092D03*
X144780000Y-95271092D03*
X147320000Y-95271092D03*
X149860000Y-95271092D03*
X152400000Y-95271092D03*
X154940000Y-95271092D03*
X157480000Y-95271092D03*
X160020000Y-95271092D03*
X162560000Y-95271092D03*
X40640000Y-79756000D03*
X50800000Y-79756000D03*
X170180000Y-120396000D03*
X180340000Y-120396000D03*
X162560000Y-175281092D03*
X160060000Y-175281092D03*
X40640000Y-127508000D03*
X50800000Y-127508000D03*
X182880000Y-104648000D03*
X193040000Y-104648000D03*
X170180000Y-145288000D03*
X180340000Y-145288000D03*
X182880000Y-138176000D03*
X193040000Y-138176000D03*
X99060000Y-58441092D03*
X109220000Y-58441092D03*
X170180000Y-108204000D03*
X180340000Y-108204000D03*
D15*
X160020000Y-36830000D03*
D14*
X160020000Y-34290000D03*
X160020000Y-31750000D03*
D11*
X40640000Y-65532000D03*
X50800000Y-65532000D03*
X91440000Y-68580000D03*
X88940000Y-68580000D03*
X99060000Y-141753092D03*
X109220000Y-141753092D03*
X99060000Y-120417092D03*
X109220000Y-120417092D03*
D12*
X233680000Y-148590000D03*
D11*
X231140000Y-148590000D03*
X228600000Y-148590000D03*
X226060000Y-148590000D03*
X223520000Y-148590000D03*
X220980000Y-148590000D03*
X218440000Y-148590000D03*
X215900000Y-148590000D03*
X215900000Y-156210000D03*
X218440000Y-156210000D03*
X220980000Y-156210000D03*
X223520000Y-156210000D03*
X226060000Y-156210000D03*
X228600000Y-156210000D03*
X231140000Y-156210000D03*
X233680000Y-156210000D03*
X170180000Y-116840000D03*
X180340000Y-116840000D03*
X111760000Y-116861092D03*
X121920000Y-116861092D03*
X91440000Y-114300000D03*
X88940000Y-114300000D03*
X58166000Y-39360000D03*
X68326000Y-39360000D03*
X99060000Y-152421092D03*
X109220000Y-152421092D03*
X40640000Y-170180000D03*
X50800000Y-170180000D03*
X99060000Y-69109092D03*
X109220000Y-69109092D03*
X182880000Y-111760000D03*
X193040000Y-111760000D03*
X233680000Y-83820000D03*
X231180000Y-83820000D03*
X99060000Y-76221092D03*
X109220000Y-76221092D03*
D12*
X91440000Y-163830000D03*
D11*
X88900000Y-163830000D03*
X86360000Y-163830000D03*
X83820000Y-163830000D03*
X81280000Y-163830000D03*
X78740000Y-163830000D03*
X76200000Y-163830000D03*
X73660000Y-163830000D03*
X73660000Y-171450000D03*
X76200000Y-171450000D03*
X78740000Y-171450000D03*
X81280000Y-171450000D03*
X83820000Y-171450000D03*
X86360000Y-171450000D03*
X88900000Y-171450000D03*
X91440000Y-171450000D03*
X40640000Y-108204000D03*
X50800000Y-108204000D03*
X40640000Y-83312000D03*
X50800000Y-83312000D03*
X111760000Y-134641092D03*
X121920000Y-134641092D03*
X27940000Y-61976000D03*
X38100000Y-61976000D03*
X182880000Y-159512000D03*
X193040000Y-159512000D03*
X182880000Y-155956000D03*
X193040000Y-155956000D03*
X40640000Y-152400000D03*
X50800000Y-152400000D03*
X40640000Y-166624000D03*
X50800000Y-166624000D03*
X162560000Y-99081092D03*
X160060000Y-99081092D03*
X182880000Y-58420000D03*
X193040000Y-58420000D03*
X111760000Y-72665092D03*
X121920000Y-72665092D03*
X170180000Y-163068000D03*
X180340000Y-163068000D03*
X182880000Y-72644000D03*
X193040000Y-72644000D03*
X27940000Y-97536000D03*
X38100000Y-97536000D03*
D12*
X91440000Y-148590000D03*
D11*
X88900000Y-148590000D03*
X86360000Y-148590000D03*
X83820000Y-148590000D03*
X81280000Y-148590000D03*
X78740000Y-148590000D03*
X76200000Y-148590000D03*
X73660000Y-148590000D03*
X73660000Y-156210000D03*
X76200000Y-156210000D03*
X78740000Y-156210000D03*
X81280000Y-156210000D03*
X83820000Y-156210000D03*
X86360000Y-156210000D03*
X88900000Y-156210000D03*
X91440000Y-156210000D03*
X27940000Y-159512000D03*
X38100000Y-159512000D03*
D10*
X21700000Y-27518908D03*
D11*
X170180000Y-65532000D03*
X180340000Y-65532000D03*
D16*
X99060000Y-46990000D03*
D17*
X101600000Y-46990000D03*
X104140000Y-46990000D03*
X106680000Y-46990000D03*
X109220000Y-46990000D03*
X111760000Y-46990000D03*
X114300000Y-46990000D03*
X116840000Y-46990000D03*
X119380000Y-46990000D03*
X121920000Y-46990000D03*
X124460000Y-46990000D03*
X127000000Y-46990000D03*
X129540000Y-46990000D03*
X132080000Y-46990000D03*
X134620000Y-46990000D03*
X134620000Y-31750000D03*
X132080000Y-31750000D03*
X129540000Y-31750000D03*
X127000000Y-31750000D03*
X124460000Y-31750000D03*
X121920000Y-31750000D03*
X119380000Y-31750000D03*
X116840000Y-31750000D03*
X114300000Y-31750000D03*
X111760000Y-31750000D03*
X109220000Y-31750000D03*
X106680000Y-31750000D03*
X104140000Y-31750000D03*
X101600000Y-31750000D03*
X99060000Y-31750000D03*
D13*
X60960000Y-64770000D03*
D14*
X63500000Y-64770000D03*
X60960000Y-67310000D03*
X63500000Y-67310000D03*
X60960000Y-69850000D03*
X63500000Y-69850000D03*
X60960000Y-72390000D03*
X63500000Y-72390000D03*
X60960000Y-74930000D03*
X63500000Y-74930000D03*
X60960000Y-77470000D03*
X63500000Y-77470000D03*
X60960000Y-80010000D03*
X63500000Y-80010000D03*
X60960000Y-82550000D03*
X63500000Y-82550000D03*
X60960000Y-85090000D03*
X63500000Y-85090000D03*
X60960000Y-87630000D03*
X63500000Y-87630000D03*
X60960000Y-90170000D03*
X63500000Y-90170000D03*
X60960000Y-92710000D03*
X63500000Y-92710000D03*
X60960000Y-95250000D03*
X63500000Y-95250000D03*
X60960000Y-97790000D03*
X63500000Y-97790000D03*
X60960000Y-100330000D03*
X63500000Y-100330000D03*
X60960000Y-102870000D03*
X63500000Y-102870000D03*
X60960000Y-105410000D03*
X63500000Y-105410000D03*
D11*
X182880000Y-83312000D03*
X193040000Y-83312000D03*
X27940000Y-65532000D03*
X38100000Y-65532000D03*
D15*
X154940000Y-36830000D03*
D14*
X154940000Y-34290000D03*
X154940000Y-31750000D03*
D11*
X233680000Y-144780000D03*
X231180000Y-144780000D03*
X182880000Y-127508000D03*
X193040000Y-127508000D03*
X32258000Y-30480000D03*
X42418000Y-30480000D03*
X170180000Y-123952000D03*
X180340000Y-123952000D03*
D14*
X27940000Y-41910000D03*
D15*
X27940000Y-44450000D03*
D11*
X27940000Y-134620000D03*
X38100000Y-134620000D03*
D12*
X233680000Y-72390000D03*
D11*
X231140000Y-72390000D03*
X228600000Y-72390000D03*
X226060000Y-72390000D03*
X223520000Y-72390000D03*
X220980000Y-72390000D03*
X218440000Y-72390000D03*
X215900000Y-72390000D03*
X215900000Y-80010000D03*
X218440000Y-80010000D03*
X220980000Y-80010000D03*
X223520000Y-80010000D03*
X226060000Y-80010000D03*
X228600000Y-80010000D03*
X231140000Y-80010000D03*
X233680000Y-80010000D03*
X111760000Y-131085092D03*
X121920000Y-131085092D03*
X40640000Y-163068000D03*
X50800000Y-163068000D03*
X170180000Y-101092000D03*
X180340000Y-101092000D03*
X111760000Y-83333092D03*
X121920000Y-83333092D03*
X170180000Y-166624000D03*
X180340000Y-166624000D03*
D18*
X41148000Y-45720000D03*
D11*
X33528000Y-45720000D03*
D13*
X203200000Y-123190000D03*
D14*
X205740000Y-123190000D03*
X203200000Y-125730000D03*
X205740000Y-125730000D03*
X203200000Y-128270000D03*
X205740000Y-128270000D03*
X203200000Y-130810000D03*
X205740000Y-130810000D03*
X203200000Y-133350000D03*
X205740000Y-133350000D03*
X203200000Y-135890000D03*
X205740000Y-135890000D03*
X203200000Y-138430000D03*
X205740000Y-138430000D03*
X203200000Y-140970000D03*
X205740000Y-140970000D03*
X203200000Y-143510000D03*
X205740000Y-143510000D03*
X203200000Y-146050000D03*
X205740000Y-146050000D03*
X203200000Y-148590000D03*
X205740000Y-148590000D03*
X203200000Y-151130000D03*
X205740000Y-151130000D03*
X203200000Y-153670000D03*
X205740000Y-153670000D03*
X203200000Y-156210000D03*
X205740000Y-156210000D03*
X203200000Y-158750000D03*
X205740000Y-158750000D03*
X203200000Y-161290000D03*
X205740000Y-161290000D03*
X203200000Y-163830000D03*
X205740000Y-163830000D03*
D11*
X111760000Y-69109092D03*
X121920000Y-69109092D03*
X182880000Y-86868000D03*
X193040000Y-86868000D03*
X111760000Y-58441092D03*
X121920000Y-58441092D03*
X170180000Y-79756000D03*
X180340000Y-79756000D03*
D13*
X60960000Y-123190000D03*
D14*
X63500000Y-123190000D03*
X60960000Y-125730000D03*
X63500000Y-125730000D03*
X60960000Y-128270000D03*
X63500000Y-128270000D03*
X60960000Y-130810000D03*
X63500000Y-130810000D03*
X60960000Y-133350000D03*
X63500000Y-133350000D03*
X60960000Y-135890000D03*
X63500000Y-135890000D03*
X60960000Y-138430000D03*
X63500000Y-138430000D03*
X60960000Y-140970000D03*
X63500000Y-140970000D03*
X60960000Y-143510000D03*
X63500000Y-143510000D03*
X60960000Y-146050000D03*
X63500000Y-146050000D03*
X60960000Y-148590000D03*
X63500000Y-148590000D03*
X60960000Y-151130000D03*
X63500000Y-151130000D03*
X60960000Y-153670000D03*
X63500000Y-153670000D03*
X60960000Y-156210000D03*
X63500000Y-156210000D03*
X60960000Y-158750000D03*
X63500000Y-158750000D03*
X60960000Y-161290000D03*
X63500000Y-161290000D03*
X60960000Y-163830000D03*
X63500000Y-163830000D03*
D11*
X182880000Y-148844000D03*
X193040000Y-148844000D03*
X99060000Y-97557092D03*
X109220000Y-97557092D03*
X99060000Y-61997092D03*
X109220000Y-61997092D03*
D12*
X233680000Y-102870000D03*
D11*
X231140000Y-102870000D03*
X228600000Y-102870000D03*
X226060000Y-102870000D03*
X223520000Y-102870000D03*
X220980000Y-102870000D03*
X218440000Y-102870000D03*
X215900000Y-102870000D03*
X215900000Y-110490000D03*
X218440000Y-110490000D03*
X220980000Y-110490000D03*
X223520000Y-110490000D03*
X226060000Y-110490000D03*
X228600000Y-110490000D03*
X231140000Y-110490000D03*
X233680000Y-110490000D03*
X40640000Y-131064000D03*
X50800000Y-131064000D03*
X64515138Y-43170000D03*
X62015138Y-43170000D03*
X233680000Y-68580000D03*
X231180000Y-68580000D03*
X182880000Y-65532000D03*
X193040000Y-65532000D03*
X111760000Y-61997092D03*
X121920000Y-61997092D03*
X40640000Y-61976000D03*
X50800000Y-61976000D03*
D12*
X91440000Y-72390000D03*
D11*
X88900000Y-72390000D03*
X86360000Y-72390000D03*
X83820000Y-72390000D03*
X81280000Y-72390000D03*
X78740000Y-72390000D03*
X76200000Y-72390000D03*
X73660000Y-72390000D03*
X73660000Y-80010000D03*
X76200000Y-80010000D03*
X78740000Y-80010000D03*
X81280000Y-80010000D03*
X83820000Y-80010000D03*
X86360000Y-80010000D03*
X88900000Y-80010000D03*
X91440000Y-80010000D03*
X27940000Y-131064000D03*
X38100000Y-131064000D03*
X111760000Y-141753092D03*
X121920000Y-141753092D03*
X99060000Y-65553092D03*
X109220000Y-65553092D03*
X40640000Y-123952000D03*
X50800000Y-123952000D03*
X40640000Y-97536000D03*
X50800000Y-97536000D03*
X99060000Y-145309092D03*
X109220000Y-145309092D03*
X27940000Y-104648000D03*
X38100000Y-104648000D03*
X40640000Y-148844000D03*
X50800000Y-148844000D03*
X40640000Y-76200000D03*
X50800000Y-76200000D03*
X182880000Y-145288000D03*
X193040000Y-145288000D03*
D10*
X241700000Y-177540000D03*
D11*
X170180000Y-97536000D03*
X180340000Y-97536000D03*
X99060000Y-72665092D03*
X109220000Y-72665092D03*
X111760000Y-120417092D03*
X121920000Y-120417092D03*
X40640000Y-120396000D03*
X50800000Y-120396000D03*
X170180000Y-155956000D03*
X180340000Y-155956000D03*
X99060000Y-148865092D03*
X109220000Y-148865092D03*
X111760000Y-138197092D03*
X121920000Y-138197092D03*
X111760000Y-166645092D03*
X121920000Y-166645092D03*
X170180000Y-131064000D03*
X180340000Y-131064000D03*
X182880000Y-90424000D03*
X193040000Y-90424000D03*
X233680000Y-129540000D03*
X231180000Y-129540000D03*
X27940000Y-116840000D03*
X38100000Y-116840000D03*
X182880000Y-76200000D03*
X193040000Y-76200000D03*
D12*
X91440000Y-102870000D03*
D11*
X88900000Y-102870000D03*
X86360000Y-102870000D03*
X83820000Y-102870000D03*
X81280000Y-102870000D03*
X78740000Y-102870000D03*
X76200000Y-102870000D03*
X73660000Y-102870000D03*
X73660000Y-110490000D03*
X76200000Y-110490000D03*
X78740000Y-110490000D03*
X81280000Y-110490000D03*
X83820000Y-110490000D03*
X86360000Y-110490000D03*
X88900000Y-110490000D03*
X91440000Y-110490000D03*
D13*
X132080000Y-123211092D03*
D14*
X134620000Y-123211092D03*
X132080000Y-125751092D03*
X134620000Y-125751092D03*
X132080000Y-128291092D03*
X134620000Y-128291092D03*
X132080000Y-130831092D03*
X134620000Y-130831092D03*
X132080000Y-133371092D03*
X134620000Y-133371092D03*
X132080000Y-135911092D03*
X134620000Y-135911092D03*
X132080000Y-138451092D03*
X134620000Y-138451092D03*
X132080000Y-140991092D03*
X134620000Y-140991092D03*
X132080000Y-143531092D03*
X134620000Y-143531092D03*
X132080000Y-146071092D03*
X134620000Y-146071092D03*
X132080000Y-148611092D03*
X134620000Y-148611092D03*
X132080000Y-151151092D03*
X134620000Y-151151092D03*
X132080000Y-153691092D03*
X134620000Y-153691092D03*
X132080000Y-156231092D03*
X134620000Y-156231092D03*
X132080000Y-158771092D03*
X134620000Y-158771092D03*
X132080000Y-161311092D03*
X134620000Y-161311092D03*
X132080000Y-163851092D03*
X134620000Y-163851092D03*
D11*
X99060000Y-170201092D03*
X109220000Y-170201092D03*
D12*
X91440000Y-118110000D03*
D11*
X88900000Y-118110000D03*
X86360000Y-118110000D03*
X83820000Y-118110000D03*
X81280000Y-118110000D03*
X78740000Y-118110000D03*
X76200000Y-118110000D03*
X73660000Y-118110000D03*
X73660000Y-125730000D03*
X76200000Y-125730000D03*
X78740000Y-125730000D03*
X81280000Y-125730000D03*
X83820000Y-125730000D03*
X86360000Y-125730000D03*
X88900000Y-125730000D03*
X91440000Y-125730000D03*
X27940000Y-166624000D03*
X38100000Y-166624000D03*
X111760000Y-79777092D03*
X121920000Y-79777092D03*
X99060000Y-79777092D03*
X109220000Y-79777092D03*
X182880000Y-101092000D03*
X193040000Y-101092000D03*
X111760000Y-155977092D03*
X121920000Y-155977092D03*
D15*
X149860000Y-36830000D03*
D14*
X149860000Y-34290000D03*
X149860000Y-31750000D03*
D11*
X111760000Y-152421092D03*
X121920000Y-152421092D03*
D12*
X85090000Y-38394000D03*
D11*
X85090000Y-40894000D03*
X40640000Y-134620000D03*
X50800000Y-134620000D03*
X27940000Y-170180000D03*
X38100000Y-170180000D03*
X182880000Y-93980000D03*
X193040000Y-93980000D03*
X91440000Y-129540000D03*
X88940000Y-129540000D03*
X182880000Y-152400000D03*
X193040000Y-152400000D03*
D10*
X241700000Y-27540000D03*
D11*
X40640000Y-116840000D03*
X50800000Y-116840000D03*
D12*
X162560000Y-163851092D03*
D11*
X160020000Y-163851092D03*
X157480000Y-163851092D03*
X154940000Y-163851092D03*
X152400000Y-163851092D03*
X149860000Y-163851092D03*
X147320000Y-163851092D03*
X144780000Y-163851092D03*
X144780000Y-171471092D03*
X147320000Y-171471092D03*
X149860000Y-171471092D03*
X152400000Y-171471092D03*
X154940000Y-171471092D03*
X157480000Y-171471092D03*
X160020000Y-171471092D03*
X162560000Y-171471092D03*
D12*
X162560000Y-118131092D03*
D11*
X160020000Y-118131092D03*
X157480000Y-118131092D03*
X154940000Y-118131092D03*
X152400000Y-118131092D03*
X149860000Y-118131092D03*
X147320000Y-118131092D03*
X144780000Y-118131092D03*
X144780000Y-125751092D03*
X147320000Y-125751092D03*
X149860000Y-125751092D03*
X152400000Y-125751092D03*
X154940000Y-125751092D03*
X157480000Y-125751092D03*
X160020000Y-125751092D03*
X162560000Y-125751092D03*
X182880000Y-120396000D03*
X193040000Y-120396000D03*
D12*
X162560000Y-102891092D03*
D11*
X160020000Y-102891092D03*
X157480000Y-102891092D03*
X154940000Y-102891092D03*
X152400000Y-102891092D03*
X149860000Y-102891092D03*
X147320000Y-102891092D03*
X144780000Y-102891092D03*
X144780000Y-110511092D03*
X147320000Y-110511092D03*
X149860000Y-110511092D03*
X152400000Y-110511092D03*
X154940000Y-110511092D03*
X157480000Y-110511092D03*
X160020000Y-110511092D03*
X162560000Y-110511092D03*
X170180000Y-76200000D03*
X180340000Y-76200000D03*
X182880000Y-79756000D03*
X193040000Y-79756000D03*
X91420000Y-160020000D03*
X88920000Y-160020000D03*
D13*
X132080000Y-64791092D03*
D14*
X134620000Y-64791092D03*
X132080000Y-67331092D03*
X134620000Y-67331092D03*
X132080000Y-69871092D03*
X134620000Y-69871092D03*
X132080000Y-72411092D03*
X134620000Y-72411092D03*
X132080000Y-74951092D03*
X134620000Y-74951092D03*
X132080000Y-77491092D03*
X134620000Y-77491092D03*
X132080000Y-80031092D03*
X134620000Y-80031092D03*
X132080000Y-82571092D03*
X134620000Y-82571092D03*
X132080000Y-85111092D03*
X134620000Y-85111092D03*
X132080000Y-87651092D03*
X134620000Y-87651092D03*
X132080000Y-90191092D03*
X134620000Y-90191092D03*
X132080000Y-92731092D03*
X134620000Y-92731092D03*
X132080000Y-95271092D03*
X134620000Y-95271092D03*
X132080000Y-97811092D03*
X134620000Y-97811092D03*
X132080000Y-100351092D03*
X134620000Y-100351092D03*
X132080000Y-102891092D03*
X134620000Y-102891092D03*
X132080000Y-105431092D03*
X134620000Y-105431092D03*
D15*
X185420000Y-31750000D03*
D14*
X185420000Y-34290000D03*
X185420000Y-36830000D03*
X185420000Y-39370000D03*
X185420000Y-41910000D03*
X185420000Y-44450000D03*
X185420000Y-46990000D03*
D11*
X111760000Y-76221092D03*
X121920000Y-76221092D03*
X27940000Y-86868000D03*
X38100000Y-86868000D03*
D12*
X233680000Y-57150000D03*
D11*
X231140000Y-57150000D03*
X228600000Y-57150000D03*
X226060000Y-57150000D03*
X223520000Y-57150000D03*
X220980000Y-57150000D03*
X218440000Y-57150000D03*
X215900000Y-57150000D03*
X215900000Y-64770000D03*
X218440000Y-64770000D03*
X220980000Y-64770000D03*
X223520000Y-64770000D03*
X226060000Y-64770000D03*
X228600000Y-64770000D03*
X231140000Y-64770000D03*
X233680000Y-64770000D03*
X170180000Y-111760000D03*
X180340000Y-111760000D03*
X99060000Y-94001092D03*
X109220000Y-94001092D03*
X182880000Y-134620000D03*
X193040000Y-134620000D03*
X170180000Y-159512000D03*
X180340000Y-159512000D03*
X27940000Y-90424000D03*
X38100000Y-90424000D03*
X162560000Y-68601092D03*
X160060000Y-68601092D03*
X40640000Y-86868000D03*
X50800000Y-86868000D03*
X32258000Y-35560000D03*
X42418000Y-35560000D03*
D12*
X91440000Y-57150000D03*
D11*
X88900000Y-57150000D03*
X86360000Y-57150000D03*
X83820000Y-57150000D03*
X81280000Y-57150000D03*
X78740000Y-57150000D03*
X76200000Y-57150000D03*
X73660000Y-57150000D03*
X73660000Y-64770000D03*
X76200000Y-64770000D03*
X78740000Y-64770000D03*
X81280000Y-64770000D03*
X83820000Y-64770000D03*
X86360000Y-64770000D03*
X88900000Y-64770000D03*
X91440000Y-64770000D03*
X40640000Y-72644000D03*
X50800000Y-72644000D03*
X170180000Y-86868000D03*
X180340000Y-86868000D03*
X27940000Y-145288000D03*
X38100000Y-145288000D03*
X40640000Y-58420000D03*
X50800000Y-58420000D03*
D12*
X91440000Y-133350000D03*
D11*
X88900000Y-133350000D03*
X86360000Y-133350000D03*
X83820000Y-133350000D03*
X81280000Y-133350000D03*
X78740000Y-133350000D03*
X76200000Y-133350000D03*
X73660000Y-133350000D03*
X73660000Y-140970000D03*
X76200000Y-140970000D03*
X78740000Y-140970000D03*
X81280000Y-140970000D03*
X83820000Y-140970000D03*
X86360000Y-140970000D03*
X88900000Y-140970000D03*
X91440000Y-140970000D03*
X40640000Y-155956000D03*
X50800000Y-155956000D03*
X182880000Y-116840000D03*
X193040000Y-116840000D03*
X182880000Y-131064000D03*
X193040000Y-131064000D03*
D15*
X193040000Y-31745000D03*
D14*
X193040000Y-34285000D03*
D11*
X40640000Y-141732000D03*
X50800000Y-141732000D03*
X182880000Y-166624000D03*
X193040000Y-166624000D03*
D15*
X165100000Y-36830000D03*
D14*
X165100000Y-34290000D03*
X165100000Y-31750000D03*
D11*
X27940000Y-111760000D03*
X38100000Y-111760000D03*
X99060000Y-134641092D03*
X109220000Y-134641092D03*
X27940000Y-141732000D03*
X38100000Y-141732000D03*
X99060000Y-163089092D03*
X109220000Y-163089092D03*
X40640000Y-159512000D03*
X50800000Y-159512000D03*
X233680000Y-160020000D03*
X231180000Y-160020000D03*
X111760000Y-159533092D03*
X121920000Y-159533092D03*
X99060000Y-108225092D03*
X109220000Y-108225092D03*
X111760000Y-108225092D03*
X121920000Y-108225092D03*
D15*
X172720000Y-39370000D03*
D14*
X172720000Y-36830000D03*
X172720000Y-34290000D03*
X172720000Y-31750000D03*
D11*
X99060000Y-86889092D03*
X109220000Y-86889092D03*
X170180000Y-58420000D03*
X180340000Y-58420000D03*
X111760000Y-127529092D03*
X121920000Y-127529092D03*
X27940000Y-69088000D03*
X38100000Y-69088000D03*
X91440000Y-99060000D03*
X88940000Y-99060000D03*
X170180000Y-138176000D03*
X180340000Y-138176000D03*
X182880000Y-97536000D03*
X193040000Y-97536000D03*
X111760000Y-163089092D03*
X121920000Y-163089092D03*
D12*
X162560000Y-72411092D03*
D11*
X160020000Y-72411092D03*
X157480000Y-72411092D03*
X154940000Y-72411092D03*
X152400000Y-72411092D03*
X149860000Y-72411092D03*
X147320000Y-72411092D03*
X144780000Y-72411092D03*
X144780000Y-80031092D03*
X147320000Y-80031092D03*
X149860000Y-80031092D03*
X152400000Y-80031092D03*
X154940000Y-80031092D03*
X157480000Y-80031092D03*
X160020000Y-80031092D03*
X162560000Y-80031092D03*
X32258000Y-40640000D03*
X42418000Y-40640000D03*
X27940000Y-108204000D03*
X38100000Y-108204000D03*
D12*
X162560000Y-57171092D03*
D11*
X160020000Y-57171092D03*
X157480000Y-57171092D03*
X154940000Y-57171092D03*
X152400000Y-57171092D03*
X149860000Y-57171092D03*
X147320000Y-57171092D03*
X144780000Y-57171092D03*
X144780000Y-64791092D03*
X147320000Y-64791092D03*
X149860000Y-64791092D03*
X152400000Y-64791092D03*
X154940000Y-64791092D03*
X157480000Y-64791092D03*
X160020000Y-64791092D03*
X162560000Y-64791092D03*
X111760000Y-148865092D03*
X121920000Y-148865092D03*
X111760000Y-123973092D03*
X121920000Y-123973092D03*
X91440000Y-144780000D03*
X88940000Y-144780000D03*
X68326000Y-46980000D03*
X58166000Y-46980000D03*
X162520000Y-160041092D03*
X160020000Y-160041092D03*
D12*
X162560000Y-133371092D03*
D11*
X160020000Y-133371092D03*
X157480000Y-133371092D03*
X154940000Y-133371092D03*
X152400000Y-133371092D03*
X149860000Y-133371092D03*
X147320000Y-133371092D03*
X144780000Y-133371092D03*
X144780000Y-140991092D03*
X147320000Y-140991092D03*
X149860000Y-140991092D03*
X152400000Y-140991092D03*
X154940000Y-140991092D03*
X157480000Y-140991092D03*
X160020000Y-140991092D03*
X162560000Y-140991092D03*
D12*
X233680000Y-133350000D03*
D11*
X231140000Y-133350000D03*
X228600000Y-133350000D03*
X226060000Y-133350000D03*
X223520000Y-133350000D03*
X220980000Y-133350000D03*
X218440000Y-133350000D03*
X215900000Y-133350000D03*
X215900000Y-140970000D03*
X218440000Y-140970000D03*
X220980000Y-140970000D03*
X223520000Y-140970000D03*
X226060000Y-140970000D03*
X228600000Y-140970000D03*
X231140000Y-140970000D03*
X233680000Y-140970000D03*
X182880000Y-170180000D03*
X193040000Y-170180000D03*
X111760000Y-104669092D03*
X121920000Y-104669092D03*
X111760000Y-86889092D03*
X121920000Y-86889092D03*
X111760000Y-65553092D03*
X121920000Y-65553092D03*
X27940000Y-123952000D03*
X38100000Y-123952000D03*
X27940000Y-101092000D03*
X38100000Y-101092000D03*
X162560000Y-114321092D03*
X160060000Y-114321092D03*
X162560000Y-129561092D03*
X160060000Y-129561092D03*
X40640000Y-93980000D03*
X50800000Y-93980000D03*
X170180000Y-148844000D03*
X180340000Y-148844000D03*
X99060000Y-90445092D03*
X109220000Y-90445092D03*
X111760000Y-97557092D03*
X121920000Y-97557092D03*
D12*
X91440000Y-87630000D03*
D11*
X88900000Y-87630000D03*
X86360000Y-87630000D03*
X83820000Y-87630000D03*
X81280000Y-87630000D03*
X78740000Y-87630000D03*
X76200000Y-87630000D03*
X73660000Y-87630000D03*
X73660000Y-95250000D03*
X76200000Y-95250000D03*
X78740000Y-95250000D03*
X81280000Y-95250000D03*
X83820000Y-95250000D03*
X86360000Y-95250000D03*
X88900000Y-95250000D03*
X91440000Y-95250000D03*
X27940000Y-152400000D03*
X38100000Y-152400000D03*
X111760000Y-170201092D03*
X121920000Y-170201092D03*
X182880000Y-61976000D03*
X193040000Y-61976000D03*
X182880000Y-123952000D03*
X193040000Y-123952000D03*
X40640000Y-104648000D03*
X50800000Y-104648000D03*
X170180000Y-141732000D03*
X180340000Y-141732000D03*
X170180000Y-93980000D03*
X180340000Y-93980000D03*
X99060000Y-116861092D03*
X109220000Y-116861092D03*
X170180000Y-90424000D03*
X180340000Y-90424000D03*
X27940000Y-93980000D03*
X38100000Y-93980000D03*
X40640000Y-111760000D03*
X50800000Y-111760000D03*
D10*
X21700000Y-177540000D03*
D11*
X162540000Y-144801092D03*
X160040000Y-144801092D03*
X111760000Y-94001092D03*
X121920000Y-94001092D03*
X99060000Y-111781092D03*
X109220000Y-111781092D03*
X170180000Y-170180000D03*
X180340000Y-170180000D03*
X40640000Y-69088000D03*
X50800000Y-69088000D03*
X40640000Y-138176000D03*
X50800000Y-138176000D03*
X27940000Y-155956000D03*
X38100000Y-155956000D03*
X111760000Y-111781092D03*
X121920000Y-111781092D03*
X99060000Y-104669092D03*
X109220000Y-104669092D03*
X170180000Y-134620000D03*
X180340000Y-134620000D03*
X99060000Y-159533092D03*
X109220000Y-159533092D03*
X99060000Y-138197092D03*
X109220000Y-138197092D03*
X233680000Y-99060000D03*
X231180000Y-99060000D03*
X182880000Y-163068000D03*
X193040000Y-163068000D03*
X40640000Y-101092000D03*
X50800000Y-101092000D03*
D19*
X46482000Y-39370000D03*
D11*
X46482000Y-41910000D03*
X46482000Y-44450000D03*
X46482000Y-46990000D03*
X54102000Y-46990000D03*
X54102000Y-44450000D03*
X54102000Y-41910000D03*
X54102000Y-39370000D03*
X27940000Y-79756000D03*
X38100000Y-79756000D03*
X111760000Y-90445092D03*
X121920000Y-90445092D03*
X170180000Y-104648000D03*
X180340000Y-104648000D03*
X182880000Y-108204000D03*
X193040000Y-108204000D03*
X40640000Y-90424000D03*
X50800000Y-90424000D03*
D15*
X60960000Y-31750000D03*
D14*
X60960000Y-29210000D03*
X63500000Y-31750000D03*
X63500000Y-29210000D03*
X66040000Y-31750000D03*
X66040000Y-29210000D03*
D11*
X27940000Y-163068000D03*
X38100000Y-163068000D03*
X91440000Y-83820000D03*
X88940000Y-83820000D03*
X91440000Y-175260000D03*
X88940000Y-175260000D03*
X111760000Y-145309092D03*
X121920000Y-145309092D03*
X27940000Y-120396000D03*
X38100000Y-120396000D03*
D14*
X27940000Y-33020000D03*
X27940000Y-30480000D03*
D15*
X27940000Y-35560000D03*
D11*
X170180000Y-69088000D03*
X180340000Y-69088000D03*
X27940000Y-127508000D03*
X38100000Y-127508000D03*
X170180000Y-83312000D03*
X180340000Y-83312000D03*
X27940000Y-76200000D03*
X38100000Y-76200000D03*
X170180000Y-127508000D03*
X180340000Y-127508000D03*
X40640000Y-145288000D03*
X50800000Y-145288000D03*
X233640000Y-175260000D03*
X231140000Y-175260000D03*
X27940000Y-58420000D03*
X38100000Y-58420000D03*
X99060000Y-166645092D03*
X109220000Y-166645092D03*
D12*
X233680000Y-87630000D03*
D11*
X231140000Y-87630000D03*
X228600000Y-87630000D03*
X226060000Y-87630000D03*
X223520000Y-87630000D03*
X220980000Y-87630000D03*
X218440000Y-87630000D03*
X215900000Y-87630000D03*
X215900000Y-95250000D03*
X218440000Y-95250000D03*
X220980000Y-95250000D03*
X223520000Y-95250000D03*
X226060000Y-95250000D03*
X228600000Y-95250000D03*
X231140000Y-95250000D03*
X233680000Y-95250000D03*
X182880000Y-141732000D03*
X193040000Y-141732000D03*
X111760000Y-101113092D03*
X121920000Y-101113092D03*
X170180000Y-152400000D03*
X180340000Y-152400000D03*
M02*
