M48
; DRILL file {KiCad 9.0.3} date 2025-10-26T18:59:20+0100
; FORMAT={-:-/ absolute / metric / decimal}
; #@! TF.CreationDate,2025-10-26T18:59:20+01:00
; #@! TF.GenerationSoftware,Kicad,Pcbnew,9.0.3
; #@! TF.FileFunction,Plated,1,2,PTH
FMAT,2
METRIC
; #@! TA.AperFunction,Plated,PTH,ComponentDrill
T1C0.800
; #@! TA.AperFunction,Plated,PTH,ComponentDrill
T2C1.000
%
G90
G05
T1
X27.94Y-58.42
X27.94Y-61.976
X27.94Y-65.532
X27.94Y-69.088
X27.94Y-72.644
X27.94Y-76.2
X27.94Y-79.756
X27.94Y-83.312
X27.94Y-86.868
X27.94Y-90.424
X27.94Y-93.98
X27.94Y-97.536
X27.94Y-101.092
X27.94Y-104.648
X27.94Y-108.204
X27.94Y-111.76
X27.94Y-116.84
X27.94Y-120.396
X27.94Y-123.952
X27.94Y-127.508
X27.94Y-131.064
X27.94Y-134.62
X27.94Y-138.176
X27.94Y-141.732
X27.94Y-145.288
X27.94Y-148.844
X27.94Y-152.4
X27.94Y-155.956
X27.94Y-159.512
X27.94Y-163.068
X27.94Y-166.624
X27.94Y-170.18
X32.258Y-30.48
X32.258Y-35.56
X32.258Y-40.64
X33.528Y-45.72
X38.1Y-58.42
X38.1Y-61.976
X38.1Y-65.532
X38.1Y-69.088
X38.1Y-72.644
X38.1Y-76.2
X38.1Y-79.756
X38.1Y-83.312
X38.1Y-86.868
X38.1Y-90.424
X38.1Y-93.98
X38.1Y-97.536
X38.1Y-101.092
X38.1Y-104.648
X38.1Y-108.204
X38.1Y-111.76
X38.1Y-116.84
X38.1Y-120.396
X38.1Y-123.952
X38.1Y-127.508
X38.1Y-131.064
X38.1Y-134.62
X38.1Y-138.176
X38.1Y-141.732
X38.1Y-145.288
X38.1Y-148.844
X38.1Y-152.4
X38.1Y-155.956
X38.1Y-159.512
X38.1Y-163.068
X38.1Y-166.624
X38.1Y-170.18
X40.64Y-58.42
X40.64Y-61.976
X40.64Y-65.532
X40.64Y-69.088
X40.64Y-72.644
X40.64Y-76.2
X40.64Y-79.756
X40.64Y-83.312
X40.64Y-86.868
X40.64Y-90.424
X40.64Y-93.98
X40.64Y-97.536
X40.64Y-101.092
X40.64Y-104.648
X40.64Y-108.204
X40.64Y-111.76
X40.64Y-116.84
X40.64Y-120.396
X40.64Y-123.952
X40.64Y-127.508
X40.64Y-131.064
X40.64Y-134.62
X40.64Y-138.176
X40.64Y-141.732
X40.64Y-145.288
X40.64Y-148.844
X40.64Y-152.4
X40.64Y-155.956
X40.64Y-159.512
X40.64Y-163.068
X40.64Y-166.624
X40.64Y-170.18
X41.148Y-45.72
X42.418Y-30.48
X42.418Y-35.56
X42.418Y-40.64
X46.482Y-39.37
X46.482Y-41.91
X46.482Y-44.45
X46.482Y-46.99
X50.8Y-58.42
X50.8Y-61.976
X50.8Y-65.532
X50.8Y-69.088
X50.8Y-72.644
X50.8Y-76.2
X50.8Y-79.756
X50.8Y-83.312
X50.8Y-86.868
X50.8Y-90.424
X50.8Y-93.98
X50.8Y-97.536
X50.8Y-101.092
X50.8Y-104.648
X50.8Y-108.204
X50.8Y-111.76
X50.8Y-116.84
X50.8Y-120.396
X50.8Y-123.952
X50.8Y-127.508
X50.8Y-131.064
X50.8Y-134.62
X50.8Y-138.176
X50.8Y-141.732
X50.8Y-145.288
X50.8Y-148.844
X50.8Y-152.4
X50.8Y-155.956
X50.8Y-159.512
X50.8Y-163.068
X50.8Y-166.624
X50.8Y-170.18
X54.102Y-39.37
X54.102Y-41.91
X54.102Y-44.45
X54.102Y-46.99
X58.166Y-39.36
X58.166Y-46.98
X62.015Y-43.17
X64.515Y-43.17
X68.326Y-39.36
X68.326Y-46.98
X73.66Y-57.15
X73.66Y-64.77
X73.66Y-72.39
X73.66Y-80.01
X73.66Y-87.63
X73.66Y-95.25
X73.66Y-102.87
X73.66Y-110.49
X73.66Y-118.11
X73.66Y-125.73
X73.66Y-133.35
X73.66Y-140.97
X73.66Y-148.59
X73.66Y-156.21
X73.66Y-163.83
X73.66Y-171.45
X76.2Y-57.15
X76.2Y-64.77
X76.2Y-72.39
X76.2Y-80.01
X76.2Y-87.63
X76.2Y-95.25
X76.2Y-102.87
X76.2Y-110.49
X76.2Y-118.11
X76.2Y-125.73
X76.2Y-133.35
X76.2Y-140.97
X76.2Y-148.59
X76.2Y-156.21
X76.2Y-163.83
X76.2Y-171.45
X78.74Y-57.15
X78.74Y-64.77
X78.74Y-72.39
X78.74Y-80.01
X78.74Y-87.63
X78.74Y-95.25
X78.74Y-102.87
X78.74Y-110.49
X78.74Y-118.11
X78.74Y-125.73
X78.74Y-133.35
X78.74Y-140.97
X78.74Y-148.59
X78.74Y-156.21
X78.74Y-163.83
X78.74Y-171.45
X81.28Y-57.15
X81.28Y-64.77
X81.28Y-72.39
X81.28Y-80.01
X81.28Y-87.63
X81.28Y-95.25
X81.28Y-102.87
X81.28Y-110.49
X81.28Y-118.11
X81.28Y-125.73
X81.28Y-133.35
X81.28Y-140.97
X81.28Y-148.59
X81.28Y-156.21
X81.28Y-163.83
X81.28Y-171.45
X83.82Y-57.15
X83.82Y-64.77
X83.82Y-72.39
X83.82Y-80.01
X83.82Y-87.63
X83.82Y-95.25
X83.82Y-102.87
X83.82Y-110.49
X83.82Y-118.11
X83.82Y-125.73
X83.82Y-133.35
X83.82Y-140.97
X83.82Y-148.59
X83.82Y-156.21
X83.82Y-163.83
X83.82Y-171.45
X85.09Y-38.394
X85.09Y-40.894
X86.36Y-57.15
X86.36Y-64.77
X86.36Y-72.39
X86.36Y-80.01
X86.36Y-87.63
X86.36Y-95.25
X86.36Y-102.87
X86.36Y-110.49
X86.36Y-118.11
X86.36Y-125.73
X86.36Y-133.35
X86.36Y-140.97
X86.36Y-148.59
X86.36Y-156.21
X86.36Y-163.83
X86.36Y-171.45
X88.9Y-57.15
X88.9Y-64.77
X88.9Y-72.39
X88.9Y-80.01
X88.9Y-87.63
X88.9Y-95.25
X88.9Y-102.87
X88.9Y-110.49
X88.9Y-118.11
X88.9Y-125.73
X88.9Y-133.35
X88.9Y-140.97
X88.9Y-148.59
X88.9Y-156.21
X88.9Y-163.83
X88.9Y-171.45
X88.92Y-160.02
X88.94Y-68.58
X88.94Y-83.82
X88.94Y-99.06
X88.94Y-114.3
X88.94Y-129.54
X88.94Y-144.78
X88.94Y-175.26
X91.42Y-160.02
X91.44Y-57.15
X91.44Y-64.77
X91.44Y-68.58
X91.44Y-72.39
X91.44Y-80.01
X91.44Y-83.82
X91.44Y-87.63
X91.44Y-95.25
X91.44Y-99.06
X91.44Y-102.87
X91.44Y-110.49
X91.44Y-114.3
X91.44Y-118.11
X91.44Y-125.73
X91.44Y-129.54
X91.44Y-133.35
X91.44Y-140.97
X91.44Y-144.78
X91.44Y-148.59
X91.44Y-156.21
X91.44Y-163.83
X91.44Y-171.45
X91.44Y-175.26
X99.06Y-58.441
X99.06Y-61.997
X99.06Y-65.553
X99.06Y-69.109
X99.06Y-72.665
X99.06Y-76.221
X99.06Y-79.777
X99.06Y-83.333
X99.06Y-86.889
X99.06Y-90.445
X99.06Y-94.001
X99.06Y-97.557
X99.06Y-101.113
X99.06Y-104.669
X99.06Y-108.225
X99.06Y-111.781
X99.06Y-116.861
X99.06Y-120.417
X99.06Y-123.973
X99.06Y-127.529
X99.06Y-131.085
X99.06Y-134.641
X99.06Y-138.197
X99.06Y-141.753
X99.06Y-145.309
X99.06Y-148.865
X99.06Y-152.421
X99.06Y-155.977
X99.06Y-159.533
X99.06Y-163.089
X99.06Y-166.645
X99.06Y-170.201
X109.22Y-58.441
X109.22Y-61.997
X109.22Y-65.553
X109.22Y-69.109
X109.22Y-72.665
X109.22Y-76.221
X109.22Y-79.777
X109.22Y-83.333
X109.22Y-86.889
X109.22Y-90.445
X109.22Y-94.001
X109.22Y-97.557
X109.22Y-101.113
X109.22Y-104.669
X109.22Y-108.225
X109.22Y-111.781
X109.22Y-116.861
X109.22Y-120.417
X109.22Y-123.973
X109.22Y-127.529
X109.22Y-131.085
X109.22Y-134.641
X109.22Y-138.197
X109.22Y-141.753
X109.22Y-145.309
X109.22Y-148.865
X109.22Y-152.421
X109.22Y-155.977
X109.22Y-159.533
X109.22Y-163.089
X109.22Y-166.645
X109.22Y-170.201
X111.76Y-58.441
X111.76Y-61.997
X111.76Y-65.553
X111.76Y-69.109
X111.76Y-72.665
X111.76Y-76.221
X111.76Y-79.777
X111.76Y-83.333
X111.76Y-86.889
X111.76Y-90.445
X111.76Y-94.001
X111.76Y-97.557
X111.76Y-101.113
X111.76Y-104.669
X111.76Y-108.225
X111.76Y-111.781
X111.76Y-116.861
X111.76Y-120.417
X111.76Y-123.973
X111.76Y-127.529
X111.76Y-131.085
X111.76Y-134.641
X111.76Y-138.197
X111.76Y-141.753
X111.76Y-145.309
X111.76Y-148.865
X111.76Y-152.421
X111.76Y-155.977
X111.76Y-159.533
X111.76Y-163.089
X111.76Y-166.645
X111.76Y-170.201
X121.92Y-58.441
X121.92Y-61.997
X121.92Y-65.553
X121.92Y-69.109
X121.92Y-72.665
X121.92Y-76.221
X121.92Y-79.777
X121.92Y-83.333
X121.92Y-86.889
X121.92Y-90.445
X121.92Y-94.001
X121.92Y-97.557
X121.92Y-101.113
X121.92Y-104.669
X121.92Y-108.225
X121.92Y-111.781
X121.92Y-116.861
X121.92Y-120.417
X121.92Y-123.973
X121.92Y-127.529
X121.92Y-131.085
X121.92Y-134.641
X121.92Y-138.197
X121.92Y-141.753
X121.92Y-145.309
X121.92Y-148.865
X121.92Y-152.421
X121.92Y-155.977
X121.92Y-159.533
X121.92Y-163.089
X121.92Y-166.645
X121.92Y-170.201
X144.78Y-57.171
X144.78Y-64.791
X144.78Y-72.411
X144.78Y-80.031
X144.78Y-87.651
X144.78Y-95.271
X144.78Y-102.891
X144.78Y-110.511
X144.78Y-118.131
X144.78Y-125.751
X144.78Y-133.371
X144.78Y-140.991
X144.78Y-148.611
X144.78Y-156.231
X144.78Y-163.851
X144.78Y-171.471
X147.32Y-57.171
X147.32Y-64.791
X147.32Y-72.411
X147.32Y-80.031
X147.32Y-87.651
X147.32Y-95.271
X147.32Y-102.891
X147.32Y-110.511
X147.32Y-118.131
X147.32Y-125.751
X147.32Y-133.371
X147.32Y-140.991
X147.32Y-148.611
X147.32Y-156.231
X147.32Y-163.851
X147.32Y-171.471
X149.86Y-57.171
X149.86Y-64.791
X149.86Y-72.411
X149.86Y-80.031
X149.86Y-87.651
X149.86Y-95.271
X149.86Y-102.891
X149.86Y-110.511
X149.86Y-118.131
X149.86Y-125.751
X149.86Y-133.371
X149.86Y-140.991
X149.86Y-148.611
X149.86Y-156.231
X149.86Y-163.851
X149.86Y-171.471
X152.4Y-57.171
X152.4Y-64.791
X152.4Y-72.411
X152.4Y-80.031
X152.4Y-87.651
X152.4Y-95.271
X152.4Y-102.891
X152.4Y-110.511
X152.4Y-118.131
X152.4Y-125.751
X152.4Y-133.371
X152.4Y-140.991
X152.4Y-148.611
X152.4Y-156.231
X152.4Y-163.851
X152.4Y-171.471
X154.94Y-57.171
X154.94Y-64.791
X154.94Y-72.411
X154.94Y-80.031
X154.94Y-87.651
X154.94Y-95.271
X154.94Y-102.891
X154.94Y-110.511
X154.94Y-118.131
X154.94Y-125.751
X154.94Y-133.371
X154.94Y-140.991
X154.94Y-148.611
X154.94Y-156.231
X154.94Y-163.851
X154.94Y-171.471
X157.48Y-57.171
X157.48Y-64.791
X157.48Y-72.411
X157.48Y-80.031
X157.48Y-87.651
X157.48Y-95.271
X157.48Y-102.891
X157.48Y-110.511
X157.48Y-118.131
X157.48Y-125.751
X157.48Y-133.371
X157.48Y-140.991
X157.48Y-148.611
X157.48Y-156.231
X157.48Y-163.851
X157.48Y-171.471
X160.02Y-57.171
X160.02Y-64.791
X160.02Y-72.411
X160.02Y-80.031
X160.02Y-87.651
X160.02Y-95.271
X160.02Y-102.891
X160.02Y-110.511
X160.02Y-118.131
X160.02Y-125.751
X160.02Y-133.371
X160.02Y-140.991
X160.02Y-148.611
X160.02Y-156.231
X160.02Y-160.041
X160.02Y-163.851
X160.02Y-171.471
X160.04Y-144.801
X160.06Y-68.601
X160.06Y-83.841
X160.06Y-99.081
X160.06Y-114.321
X160.06Y-129.561
X160.06Y-175.281
X162.52Y-160.041
X162.54Y-144.801
X162.56Y-57.171
X162.56Y-64.791
X162.56Y-68.601
X162.56Y-72.411
X162.56Y-80.031
X162.56Y-83.841
X162.56Y-87.651
X162.56Y-95.271
X162.56Y-99.081
X162.56Y-102.891
X162.56Y-110.511
X162.56Y-114.321
X162.56Y-118.131
X162.56Y-125.751
X162.56Y-129.561
X162.56Y-133.371
X162.56Y-140.991
X162.56Y-148.611
X162.56Y-156.231
X162.56Y-163.851
X162.56Y-171.471
X162.56Y-175.281
X170.18Y-58.42
X170.18Y-61.976
X170.18Y-65.532
X170.18Y-69.088
X170.18Y-72.644
X170.18Y-76.2
X170.18Y-79.756
X170.18Y-83.312
X170.18Y-86.868
X170.18Y-90.424
X170.18Y-93.98
X170.18Y-97.536
X170.18Y-101.092
X170.18Y-104.648
X170.18Y-108.204
X170.18Y-111.76
X170.18Y-116.84
X170.18Y-120.396
X170.18Y-123.952
X170.18Y-127.508
X170.18Y-131.064
X170.18Y-134.62
X170.18Y-138.176
X170.18Y-141.732
X170.18Y-145.288
X170.18Y-148.844
X170.18Y-152.4
X170.18Y-155.956
X170.18Y-159.512
X170.18Y-163.068
X170.18Y-166.624
X170.18Y-170.18
X180.34Y-58.42
X180.34Y-61.976
X180.34Y-65.532
X180.34Y-69.088
X180.34Y-72.644
X180.34Y-76.2
X180.34Y-79.756
X180.34Y-83.312
X180.34Y-86.868
X180.34Y-90.424
X180.34Y-93.98
X180.34Y-97.536
X180.34Y-101.092
X180.34Y-104.648
X180.34Y-108.204
X180.34Y-111.76
X180.34Y-116.84
X180.34Y-120.396
X180.34Y-123.952
X180.34Y-127.508
X180.34Y-131.064
X180.34Y-134.62
X180.34Y-138.176
X180.34Y-141.732
X180.34Y-145.288
X180.34Y-148.844
X180.34Y-152.4
X180.34Y-155.956
X180.34Y-159.512
X180.34Y-163.068
X180.34Y-166.624
X180.34Y-170.18
X182.88Y-58.42
X182.88Y-61.976
X182.88Y-65.532
X182.88Y-69.088
X182.88Y-72.644
X182.88Y-76.2
X182.88Y-79.756
X182.88Y-83.312
X182.88Y-86.868
X182.88Y-90.424
X182.88Y-93.98
X182.88Y-97.536
X182.88Y-101.092
X182.88Y-104.648
X182.88Y-108.204
X182.88Y-111.76
X182.88Y-116.84
X182.88Y-120.396
X182.88Y-123.952
X182.88Y-127.508
X182.88Y-131.064
X182.88Y-134.62
X182.88Y-138.176
X182.88Y-141.732
X182.88Y-145.288
X182.88Y-148.844
X182.88Y-152.4
X182.88Y-155.956
X182.88Y-159.512
X182.88Y-163.068
X182.88Y-166.624
X182.88Y-170.18
X193.04Y-58.42
X193.04Y-61.976
X193.04Y-65.532
X193.04Y-69.088
X193.04Y-72.644
X193.04Y-76.2
X193.04Y-79.756
X193.04Y-83.312
X193.04Y-86.868
X193.04Y-90.424
X193.04Y-93.98
X193.04Y-97.536
X193.04Y-101.092
X193.04Y-104.648
X193.04Y-108.204
X193.04Y-111.76
X193.04Y-116.84
X193.04Y-120.396
X193.04Y-123.952
X193.04Y-127.508
X193.04Y-131.064
X193.04Y-134.62
X193.04Y-138.176
X193.04Y-141.732
X193.04Y-145.288
X193.04Y-148.844
X193.04Y-152.4
X193.04Y-155.956
X193.04Y-159.512
X193.04Y-163.068
X193.04Y-166.624
X193.04Y-170.18
X215.9Y-57.15
X215.9Y-64.77
X215.9Y-72.39
X215.9Y-80.01
X215.9Y-87.63
X215.9Y-95.25
X215.9Y-102.87
X215.9Y-110.49
X215.9Y-118.11
X215.9Y-125.73
X215.9Y-133.35
X215.9Y-140.97
X215.9Y-148.59
X215.9Y-156.21
X215.9Y-163.83
X215.9Y-171.45
X218.44Y-57.15
X218.44Y-64.77
X218.44Y-72.39
X218.44Y-80.01
X218.44Y-87.63
X218.44Y-95.25
X218.44Y-102.87
X218.44Y-110.49
X218.44Y-118.11
X218.44Y-125.73
X218.44Y-133.35
X218.44Y-140.97
X218.44Y-148.59
X218.44Y-156.21
X218.44Y-163.83
X218.44Y-171.45
X220.98Y-57.15
X220.98Y-64.77
X220.98Y-72.39
X220.98Y-80.01
X220.98Y-87.63
X220.98Y-95.25
X220.98Y-102.87
X220.98Y-110.49
X220.98Y-118.11
X220.98Y-125.73
X220.98Y-133.35
X220.98Y-140.97
X220.98Y-148.59
X220.98Y-156.21
X220.98Y-163.83
X220.98Y-171.45
X223.52Y-57.15
X223.52Y-64.77
X223.52Y-72.39
X223.52Y-80.01
X223.52Y-87.63
X223.52Y-95.25
X223.52Y-102.87
X223.52Y-110.49
X223.52Y-118.11
X223.52Y-125.73
X223.52Y-133.35
X223.52Y-140.97
X223.52Y-148.59
X223.52Y-156.21
X223.52Y-163.83
X223.52Y-171.45
X226.06Y-57.15
X226.06Y-64.77
X226.06Y-72.39
X226.06Y-80.01
X226.06Y-87.63
X226.06Y-95.25
X226.06Y-102.87
X226.06Y-110.49
X226.06Y-118.11
X226.06Y-125.73
X226.06Y-133.35
X226.06Y-140.97
X226.06Y-148.59
X226.06Y-156.21
X226.06Y-163.83
X226.06Y-171.45
X228.6Y-57.15
X228.6Y-64.77
X228.6Y-72.39
X228.6Y-80.01
X228.6Y-87.63
X228.6Y-95.25
X228.6Y-102.87
X228.6Y-110.49
X228.6Y-118.11
X228.6Y-125.73
X228.6Y-133.35
X228.6Y-140.97
X228.6Y-148.59
X228.6Y-156.21
X228.6Y-163.83
X228.6Y-171.45
X231.14Y-57.15
X231.14Y-64.77
X231.14Y-72.39
X231.14Y-80.01
X231.14Y-87.63
X231.14Y-95.25
X231.14Y-102.87
X231.14Y-110.49
X231.14Y-118.11
X231.14Y-125.73
X231.14Y-133.35
X231.14Y-140.97
X231.14Y-148.59
X231.14Y-156.21
X231.14Y-163.83
X231.14Y-171.45
X231.14Y-175.26
X231.18Y-68.58
X231.18Y-83.82
X231.18Y-99.06
X231.18Y-114.3
X231.18Y-129.54
X231.18Y-144.78
X231.18Y-160.02
X233.64Y-175.26
X233.68Y-57.15
X233.68Y-64.77
X233.68Y-68.58
X233.68Y-72.39
X233.68Y-80.01
X233.68Y-83.82
X233.68Y-87.63
X233.68Y-95.25
X233.68Y-99.06
X233.68Y-102.87
X233.68Y-110.49
X233.68Y-114.3
X233.68Y-118.11
X233.68Y-125.73
X233.68Y-129.54
X233.68Y-133.35
X233.68Y-140.97
X233.68Y-144.78
X233.68Y-148.59
X233.68Y-156.21
X233.68Y-160.02
X233.68Y-163.83
X233.68Y-171.45
T2
X27.94Y-30.48
X27.94Y-33.02
X27.94Y-35.56
X27.94Y-41.91
X27.94Y-44.45
X60.96Y-29.21
X60.96Y-31.75
X60.96Y-64.77
X60.96Y-67.31
X60.96Y-69.85
X60.96Y-72.39
X60.96Y-74.93
X60.96Y-77.47
X60.96Y-80.01
X60.96Y-82.55
X60.96Y-85.09
X60.96Y-87.63
X60.96Y-90.17
X60.96Y-92.71
X60.96Y-95.25
X60.96Y-97.79
X60.96Y-100.33
X60.96Y-102.87
X60.96Y-105.41
X60.96Y-123.19
X60.96Y-125.73
X60.96Y-128.27
X60.96Y-130.81
X60.96Y-133.35
X60.96Y-135.89
X60.96Y-138.43
X60.96Y-140.97
X60.96Y-143.51
X60.96Y-146.05
X60.96Y-148.59
X60.96Y-151.13
X60.96Y-153.67
X60.96Y-156.21
X60.96Y-158.75
X60.96Y-161.29
X60.96Y-163.83
X63.5Y-29.21
X63.5Y-31.75
X63.5Y-64.77
X63.5Y-67.31
X63.5Y-69.85
X63.5Y-72.39
X63.5Y-74.93
X63.5Y-77.47
X63.5Y-80.01
X63.5Y-82.55
X63.5Y-85.09
X63.5Y-87.63
X63.5Y-90.17
X63.5Y-92.71
X63.5Y-95.25
X63.5Y-97.79
X63.5Y-100.33
X63.5Y-102.87
X63.5Y-105.41
X63.5Y-123.19
X63.5Y-125.73
X63.5Y-128.27
X63.5Y-130.81
X63.5Y-133.35
X63.5Y-135.89
X63.5Y-138.43
X63.5Y-140.97
X63.5Y-143.51
X63.5Y-146.05
X63.5Y-148.59
X63.5Y-151.13
X63.5Y-153.67
X63.5Y-156.21
X63.5Y-158.75
X63.5Y-161.29
X63.5Y-163.83
X66.04Y-29.21
X66.04Y-31.75
X83.82Y-29.21
X86.36Y-29.21
X99.06Y-31.75
X99.06Y-46.99
X101.6Y-31.75
X101.6Y-46.99
X104.14Y-31.75
X104.14Y-46.99
X106.68Y-31.75
X106.68Y-46.99
X109.22Y-31.75
X109.22Y-46.99
X111.76Y-31.75
X111.76Y-46.99
X114.3Y-31.75
X114.3Y-46.99
X116.84Y-31.75
X116.84Y-46.99
X119.38Y-31.75
X119.38Y-46.99
X121.92Y-31.75
X121.92Y-46.99
X124.46Y-31.75
X124.46Y-46.99
X127.0Y-31.75
X127.0Y-46.99
X129.54Y-31.75
X129.54Y-46.99
X132.08Y-31.75
X132.08Y-46.99
X132.08Y-64.791
X132.08Y-67.331
X132.08Y-69.871
X132.08Y-72.411
X132.08Y-74.951
X132.08Y-77.491
X132.08Y-80.031
X132.08Y-82.571
X132.08Y-85.111
X132.08Y-87.651
X132.08Y-90.191
X132.08Y-92.731
X132.08Y-95.271
X132.08Y-97.811
X132.08Y-100.351
X132.08Y-102.891
X132.08Y-105.431
X132.08Y-123.211
X132.08Y-125.751
X132.08Y-128.291
X132.08Y-130.831
X132.08Y-133.371
X132.08Y-135.911
X132.08Y-138.451
X132.08Y-140.991
X132.08Y-143.531
X132.08Y-146.071
X132.08Y-148.611
X132.08Y-151.151
X132.08Y-153.691
X132.08Y-156.231
X132.08Y-158.771
X132.08Y-161.311
X132.08Y-163.851
X134.62Y-31.75
X134.62Y-46.99
X134.62Y-64.791
X134.62Y-67.331
X134.62Y-69.871
X134.62Y-72.411
X134.62Y-74.951
X134.62Y-77.491
X134.62Y-80.031
X134.62Y-82.571
X134.62Y-85.111
X134.62Y-87.651
X134.62Y-90.191
X134.62Y-92.731
X134.62Y-95.271
X134.62Y-97.811
X134.62Y-100.351
X134.62Y-102.891
X134.62Y-105.431
X134.62Y-123.211
X134.62Y-125.751
X134.62Y-128.291
X134.62Y-130.831
X134.62Y-133.371
X134.62Y-135.911
X134.62Y-138.451
X134.62Y-140.991
X134.62Y-143.531
X134.62Y-146.071
X134.62Y-148.611
X134.62Y-151.151
X134.62Y-153.691
X134.62Y-156.231
X134.62Y-158.771
X134.62Y-161.311
X134.62Y-163.851
X149.86Y-31.75
X149.86Y-34.29
X149.86Y-36.83
X154.94Y-31.75
X154.94Y-34.29
X154.94Y-36.83
X160.02Y-31.75
X160.02Y-34.29
X160.02Y-36.83
X165.1Y-31.75
X165.1Y-34.29
X165.1Y-36.83
X172.72Y-31.75
X172.72Y-34.29
X172.72Y-36.83
X172.72Y-39.37
X185.42Y-31.75
X185.42Y-34.29
X185.42Y-36.83
X185.42Y-39.37
X185.42Y-41.91
X185.42Y-44.45
X185.42Y-46.99
X193.04Y-31.745
X193.04Y-34.285
X203.2Y-64.77
X203.2Y-67.31
X203.2Y-69.85
X203.2Y-72.39
X203.2Y-74.93
X203.2Y-77.47
X203.2Y-80.01
X203.2Y-82.55
X203.2Y-85.09
X203.2Y-87.63
X203.2Y-90.17
X203.2Y-92.71
X203.2Y-95.25
X203.2Y-97.79
X203.2Y-100.33
X203.2Y-102.87
X203.2Y-105.41
X203.2Y-123.19
X203.2Y-125.73
X203.2Y-128.27
X203.2Y-130.81
X203.2Y-133.35
X203.2Y-135.89
X203.2Y-138.43
X203.2Y-140.97
X203.2Y-143.51
X203.2Y-146.05
X203.2Y-148.59
X203.2Y-151.13
X203.2Y-153.67
X203.2Y-156.21
X203.2Y-158.75
X203.2Y-161.29
X203.2Y-163.83
X205.74Y-64.77
X205.74Y-67.31
X205.74Y-69.85
X205.74Y-72.39
X205.74Y-74.93
X205.74Y-77.47
X205.74Y-80.01
X205.74Y-82.55
X205.74Y-85.09
X205.74Y-87.63
X205.74Y-90.17
X205.74Y-92.71
X205.74Y-95.25
X205.74Y-97.79
X205.74Y-100.33
X205.74Y-102.87
X205.74Y-105.41
X205.74Y-123.19
X205.74Y-125.73
X205.74Y-128.27
X205.74Y-130.81
X205.74Y-133.35
X205.74Y-135.89
X205.74Y-138.43
X205.74Y-140.97
X205.74Y-143.51
X205.74Y-146.05
X205.74Y-148.59
X205.74Y-151.13
X205.74Y-153.67
X205.74Y-156.21
X205.74Y-158.75
X205.74Y-161.29
X205.74Y-163.83
M30
