G04 #@! TF.GenerationSoftware,KiCad,Pcbnew,9.0.3*
G04 #@! TF.CreationDate,2025-10-02T22:38:57+02:00*
G04 #@! TF.ProjectId,digital_organ,64696769-7461-46c5-9f6f-7267616e2e6b,rev?*
G04 #@! TF.SameCoordinates,Original*
G04 #@! TF.FileFunction,Soldermask,Bot*
G04 #@! TF.FilePolarity,Negative*
%FSLAX46Y46*%
G04 Gerber Fmt 4.6, Leading zero omitted, Abs format (unit mm)*
G04 Created by KiCad (PCBNEW 9.0.3) date 2025-10-02 22:38:57*
%MOMM*%
%LPD*%
G01*
G04 APERTURE LIST*
G04 Aperture macros list*
%AMRoundRect*
0 Rectangle with rounded corners*
0 $1 Rounding radius*
0 $2 $3 $4 $5 $6 $7 $8 $9 X,Y pos of 4 corners*
0 Add a 4 corners polygon primitive as box body*
4,1,4,$2,$3,$4,$5,$6,$7,$8,$9,$2,$3,0*
0 Add four circle primitives for the rounded corners*
1,1,$1+$1,$2,$3*
1,1,$1+$1,$4,$5*
1,1,$1+$1,$6,$7*
1,1,$1+$1,$8,$9*
0 Add four rect primitives between the rounded corners*
20,1,$1+$1,$2,$3,$4,$5,0*
20,1,$1+$1,$4,$5,$6,$7,0*
20,1,$1+$1,$6,$7,$8,$9,0*
20,1,$1+$1,$8,$9,$2,$3,0*%
G04 Aperture macros list end*
%ADD10C,3.200000*%
%ADD11R,1.700000X1.700000*%
%ADD12C,1.700000*%
%ADD13C,1.600000*%
%ADD14RoundRect,0.250000X-0.550000X0.550000X-0.550000X-0.550000X0.550000X-0.550000X0.550000X0.550000X0*%
%ADD15RoundRect,0.250000X-0.600000X-0.600000X0.600000X-0.600000X0.600000X0.600000X-0.600000X0.600000X0*%
%ADD16R,1.600000X1.600000*%
%ADD17O,1.600000X1.600000*%
%ADD18RoundRect,0.250000X0.550000X-0.550000X0.550000X0.550000X-0.550000X0.550000X-0.550000X-0.550000X0*%
G04 APERTURE END LIST*
D10*
X33020000Y-264160000D03*
X276860000Y-264160000D03*
X276860000Y-20320000D03*
X33020000Y-20320000D03*
D11*
X33020000Y-231140000D03*
D12*
X33020000Y-228600000D03*
X33020000Y-226060000D03*
D11*
X33020000Y-219710000D03*
D12*
X33020000Y-217170000D03*
X33020000Y-214630000D03*
D11*
X33020000Y-208280000D03*
D12*
X33020000Y-205740000D03*
X33020000Y-203200000D03*
D11*
X33020000Y-242570000D03*
D12*
X33020000Y-240030000D03*
X33020000Y-237490000D03*
D11*
X33020000Y-256540000D03*
D12*
X33020000Y-254000000D03*
X33020000Y-251460000D03*
X33020000Y-248920000D03*
D13*
X86106000Y-37338000D03*
X96266000Y-37338000D03*
X210566000Y-66802000D03*
X220726000Y-66802000D03*
X210566000Y-229870000D03*
X220726000Y-229870000D03*
X73406000Y-200406000D03*
X83566000Y-200406000D03*
X154686000Y-92202000D03*
X164846000Y-92202000D03*
X86106000Y-114554000D03*
X96266000Y-114554000D03*
X141986000Y-182118000D03*
X152146000Y-182118000D03*
D14*
X188468000Y-112522000D03*
D13*
X185928000Y-112522000D03*
X183388000Y-112522000D03*
X180848000Y-112522000D03*
X178308000Y-112522000D03*
X175768000Y-112522000D03*
X173228000Y-112522000D03*
X170688000Y-112522000D03*
X170688000Y-120142000D03*
X173228000Y-120142000D03*
X175768000Y-120142000D03*
X178308000Y-120142000D03*
X180848000Y-120142000D03*
X183388000Y-120142000D03*
X185928000Y-120142000D03*
X188468000Y-120142000D03*
X154686000Y-88646000D03*
X164846000Y-88646000D03*
X86106000Y-237490000D03*
X96266000Y-237490000D03*
X86106000Y-48006000D03*
X96266000Y-48006000D03*
D14*
X257048000Y-161798000D03*
D13*
X254508000Y-161798000D03*
X251968000Y-161798000D03*
X249428000Y-161798000D03*
X246888000Y-161798000D03*
X244348000Y-161798000D03*
X241808000Y-161798000D03*
X239268000Y-161798000D03*
X239268000Y-169418000D03*
X241808000Y-169418000D03*
X244348000Y-169418000D03*
X246888000Y-169418000D03*
X249428000Y-169418000D03*
X251968000Y-169418000D03*
X254508000Y-169418000D03*
X257048000Y-169418000D03*
X86106000Y-185674000D03*
X96266000Y-185674000D03*
X154686000Y-48006000D03*
X164846000Y-48006000D03*
X86106000Y-103378000D03*
X96266000Y-103378000D03*
D14*
X257048000Y-127254000D03*
D13*
X254508000Y-127254000D03*
X251968000Y-127254000D03*
X249428000Y-127254000D03*
X246888000Y-127254000D03*
X244348000Y-127254000D03*
X241808000Y-127254000D03*
X239268000Y-127254000D03*
X239268000Y-134874000D03*
X241808000Y-134874000D03*
X244348000Y-134874000D03*
X246888000Y-134874000D03*
X249428000Y-134874000D03*
X251968000Y-134874000D03*
X254508000Y-134874000D03*
X257048000Y-134874000D03*
X223266000Y-170942000D03*
X233426000Y-170942000D03*
D15*
X267208000Y-29718000D03*
D12*
X269748000Y-29718000D03*
X267208000Y-32258000D03*
X269748000Y-32258000D03*
X267208000Y-34798000D03*
X269748000Y-34798000D03*
X267208000Y-37338000D03*
X269748000Y-37338000D03*
X267208000Y-39878000D03*
X269748000Y-39878000D03*
X267208000Y-42418000D03*
X269748000Y-42418000D03*
X267208000Y-44958000D03*
X269748000Y-44958000D03*
X267208000Y-47498000D03*
X269748000Y-47498000D03*
X267208000Y-50038000D03*
X269748000Y-50038000D03*
X267208000Y-52578000D03*
X269748000Y-52578000D03*
X267208000Y-55118000D03*
X269748000Y-55118000D03*
X267208000Y-57658000D03*
X269748000Y-57658000D03*
X267208000Y-60198000D03*
X269748000Y-60198000D03*
X267208000Y-62738000D03*
X269748000Y-62738000D03*
X267208000Y-65278000D03*
X269748000Y-65278000D03*
X267208000Y-67818000D03*
X269748000Y-67818000D03*
X267208000Y-70358000D03*
X269748000Y-70358000D03*
D13*
X86106000Y-200406000D03*
X96266000Y-200406000D03*
X244348000Y-172974000D03*
X241848000Y-172974000D03*
X154686000Y-252222000D03*
X164846000Y-252222000D03*
X141986000Y-152654000D03*
X152146000Y-152654000D03*
X73406000Y-226314000D03*
X83566000Y-226314000D03*
X223266000Y-178562000D03*
X233426000Y-178562000D03*
X154686000Y-248666000D03*
X164846000Y-248666000D03*
X154686000Y-66802000D03*
X164846000Y-66802000D03*
X175728000Y-50038000D03*
X173228000Y-50038000D03*
X73406000Y-241046000D03*
X83566000Y-241046000D03*
X86106000Y-152654000D03*
X96266000Y-152654000D03*
X223266000Y-77470000D03*
X233426000Y-77470000D03*
X244348000Y-79502000D03*
X241848000Y-79502000D03*
X154686000Y-96266000D03*
X164846000Y-96266000D03*
D14*
X257048000Y-250190000D03*
D13*
X254508000Y-250190000D03*
X251968000Y-250190000D03*
X249428000Y-250190000D03*
X246888000Y-250190000D03*
X244348000Y-250190000D03*
X241808000Y-250190000D03*
X239268000Y-250190000D03*
X239268000Y-257810000D03*
X241808000Y-257810000D03*
X244348000Y-257810000D03*
X246888000Y-257810000D03*
X249428000Y-257810000D03*
X251968000Y-257810000D03*
X254508000Y-257810000D03*
X257048000Y-257810000D03*
D14*
X119888000Y-176530000D03*
D13*
X117348000Y-176530000D03*
X114808000Y-176530000D03*
X112268000Y-176530000D03*
X109728000Y-176530000D03*
X107188000Y-176530000D03*
X104648000Y-176530000D03*
X102108000Y-176530000D03*
X102108000Y-184150000D03*
X104648000Y-184150000D03*
X107188000Y-184150000D03*
X109728000Y-184150000D03*
X112268000Y-184150000D03*
X114808000Y-184150000D03*
X117348000Y-184150000D03*
X119888000Y-184150000D03*
D12*
X40640000Y-264179138D03*
D11*
X43180000Y-264179138D03*
D13*
X154686000Y-121666000D03*
X164846000Y-121666000D03*
X86106000Y-211582000D03*
X96266000Y-211582000D03*
X154686000Y-196850000D03*
X164846000Y-196850000D03*
D14*
X257048000Y-83058000D03*
D13*
X254508000Y-83058000D03*
X251968000Y-83058000D03*
X249428000Y-83058000D03*
X246888000Y-83058000D03*
X244348000Y-83058000D03*
X241808000Y-83058000D03*
X239268000Y-83058000D03*
X239268000Y-90678000D03*
X241808000Y-90678000D03*
X244348000Y-90678000D03*
X246888000Y-90678000D03*
X249428000Y-90678000D03*
X251968000Y-90678000D03*
X254508000Y-90678000D03*
X257048000Y-90678000D03*
X141986000Y-178562000D03*
X152146000Y-178562000D03*
X210566000Y-185674000D03*
X220726000Y-185674000D03*
D14*
X188468000Y-53594000D03*
D13*
X185928000Y-53594000D03*
X183388000Y-53594000D03*
X180848000Y-53594000D03*
X178308000Y-53594000D03*
X175768000Y-53594000D03*
X173228000Y-53594000D03*
X170688000Y-53594000D03*
X170688000Y-61214000D03*
X173228000Y-61214000D03*
X175768000Y-61214000D03*
X178308000Y-61214000D03*
X180848000Y-61214000D03*
X183388000Y-61214000D03*
X185928000Y-61214000D03*
X188468000Y-61214000D03*
X86106000Y-178562000D03*
X96266000Y-178562000D03*
X73406000Y-237490000D03*
X83566000Y-237490000D03*
X73406000Y-44450000D03*
X83566000Y-44450000D03*
D14*
X119888000Y-235458000D03*
D13*
X117348000Y-235458000D03*
X114808000Y-235458000D03*
X112268000Y-235458000D03*
X109728000Y-235458000D03*
X107188000Y-235458000D03*
X104648000Y-235458000D03*
X102108000Y-235458000D03*
X102108000Y-243078000D03*
X104648000Y-243078000D03*
X107188000Y-243078000D03*
X109728000Y-243078000D03*
X112268000Y-243078000D03*
X114808000Y-243078000D03*
X117348000Y-243078000D03*
X119888000Y-243078000D03*
X86106000Y-160274000D03*
X96266000Y-160274000D03*
X223266000Y-85090000D03*
X233426000Y-85090000D03*
X175768000Y-138430000D03*
X173268000Y-138430000D03*
X73406000Y-92202000D03*
X83566000Y-92202000D03*
X141986000Y-211582000D03*
X152146000Y-211582000D03*
X141986000Y-259334000D03*
X152146000Y-259334000D03*
X73406000Y-170942000D03*
X83566000Y-170942000D03*
X223266000Y-110998000D03*
X233426000Y-110998000D03*
X210566000Y-103378000D03*
X220726000Y-103378000D03*
X154686000Y-22606000D03*
X164846000Y-22606000D03*
X244348000Y-261366000D03*
X241848000Y-261366000D03*
D14*
X188468000Y-191262000D03*
D13*
X185928000Y-191262000D03*
X183388000Y-191262000D03*
X180848000Y-191262000D03*
X178308000Y-191262000D03*
X175768000Y-191262000D03*
X173228000Y-191262000D03*
X170688000Y-191262000D03*
X170688000Y-198882000D03*
X173228000Y-198882000D03*
X175768000Y-198882000D03*
X178308000Y-198882000D03*
X180848000Y-198882000D03*
X183388000Y-198882000D03*
X185928000Y-198882000D03*
X188468000Y-198882000D03*
X210566000Y-33274000D03*
X220726000Y-33274000D03*
X141986000Y-193294000D03*
X152146000Y-193294000D03*
X210566000Y-70358000D03*
X220726000Y-70358000D03*
X175728000Y-172974000D03*
X173228000Y-172974000D03*
D14*
X119888000Y-205994000D03*
D13*
X117348000Y-205994000D03*
X114808000Y-205994000D03*
X112268000Y-205994000D03*
X109728000Y-205994000D03*
X107188000Y-205994000D03*
X104648000Y-205994000D03*
X102108000Y-205994000D03*
X102108000Y-213614000D03*
X104648000Y-213614000D03*
X107188000Y-213614000D03*
X109728000Y-213614000D03*
X112268000Y-213614000D03*
X114808000Y-213614000D03*
X117348000Y-213614000D03*
X119888000Y-213614000D03*
X73406000Y-208026000D03*
X83566000Y-208026000D03*
X73406000Y-29718000D03*
X83566000Y-29718000D03*
X107188000Y-35306000D03*
X104688000Y-35306000D03*
D14*
X188468000Y-250190000D03*
D13*
X185928000Y-250190000D03*
X183388000Y-250190000D03*
X180848000Y-250190000D03*
X178308000Y-250190000D03*
X175768000Y-250190000D03*
X173228000Y-250190000D03*
X170688000Y-250190000D03*
X170688000Y-257810000D03*
X173228000Y-257810000D03*
X175768000Y-257810000D03*
X178308000Y-257810000D03*
X180848000Y-257810000D03*
X183388000Y-257810000D03*
X185928000Y-257810000D03*
X188468000Y-257810000D03*
X154686000Y-106934000D03*
X164846000Y-106934000D03*
X154686000Y-85090000D03*
X164846000Y-85090000D03*
D14*
X257048000Y-112522000D03*
D13*
X254508000Y-112522000D03*
X251968000Y-112522000D03*
X249428000Y-112522000D03*
X246888000Y-112522000D03*
X244348000Y-112522000D03*
X241808000Y-112522000D03*
X239268000Y-112522000D03*
X239268000Y-120142000D03*
X241808000Y-120142000D03*
X244348000Y-120142000D03*
X246888000Y-120142000D03*
X249428000Y-120142000D03*
X251968000Y-120142000D03*
X254508000Y-120142000D03*
X257048000Y-120142000D03*
D14*
X119888000Y-250190000D03*
D13*
X117348000Y-250190000D03*
X114808000Y-250190000D03*
X112268000Y-250190000D03*
X109728000Y-250190000D03*
X107188000Y-250190000D03*
X104648000Y-250190000D03*
X102108000Y-250190000D03*
X102108000Y-257810000D03*
X104648000Y-257810000D03*
X107188000Y-257810000D03*
X109728000Y-257810000D03*
X112268000Y-257810000D03*
X114808000Y-257810000D03*
X117348000Y-257810000D03*
X119888000Y-257810000D03*
X223266000Y-81534000D03*
X233426000Y-81534000D03*
X141986000Y-81534000D03*
X152146000Y-81534000D03*
X107188000Y-79502000D03*
X104688000Y-79502000D03*
X141986000Y-244602000D03*
X152146000Y-244602000D03*
X210566000Y-215138000D03*
X220726000Y-215138000D03*
X58415000Y-223793138D03*
X58415000Y-233953138D03*
X154686000Y-118110000D03*
X164846000Y-118110000D03*
X73406000Y-136398000D03*
X83566000Y-136398000D03*
X175728000Y-202438000D03*
X173228000Y-202438000D03*
X175728000Y-231902000D03*
X173228000Y-231902000D03*
X154686000Y-33274000D03*
X164846000Y-33274000D03*
X244348000Y-64770000D03*
X241848000Y-64770000D03*
X86106000Y-215138000D03*
X96266000Y-215138000D03*
X154686000Y-40894000D03*
X164846000Y-40894000D03*
X223266000Y-26162000D03*
X233426000Y-26162000D03*
D14*
X119888000Y-127254000D03*
D13*
X117348000Y-127254000D03*
X114808000Y-127254000D03*
X112268000Y-127254000D03*
X109728000Y-127254000D03*
X107188000Y-127254000D03*
X104648000Y-127254000D03*
X102108000Y-127254000D03*
X102108000Y-134874000D03*
X104648000Y-134874000D03*
X107188000Y-134874000D03*
X109728000Y-134874000D03*
X112268000Y-134874000D03*
X114808000Y-134874000D03*
X117348000Y-134874000D03*
X119888000Y-134874000D03*
X73406000Y-73914000D03*
X83566000Y-73914000D03*
X73406000Y-48006000D03*
X83566000Y-48006000D03*
X210566000Y-219202000D03*
X220726000Y-219202000D03*
X223266000Y-167386000D03*
X233426000Y-167386000D03*
X141986000Y-99822000D03*
X152146000Y-99822000D03*
X210566000Y-200406000D03*
X220726000Y-200406000D03*
X210566000Y-62738000D03*
X220726000Y-62738000D03*
X86106000Y-26162000D03*
X96266000Y-26162000D03*
X210566000Y-233934000D03*
X220726000Y-233934000D03*
X210566000Y-73914000D03*
X220726000Y-73914000D03*
X210566000Y-125730000D03*
X220726000Y-125730000D03*
X210566000Y-121666000D03*
X220726000Y-121666000D03*
X73406000Y-118110000D03*
X83566000Y-118110000D03*
X73406000Y-132842000D03*
X83566000Y-132842000D03*
X175728000Y-64770000D03*
X173228000Y-64770000D03*
D14*
X257048000Y-147066000D03*
D13*
X254508000Y-147066000D03*
X251968000Y-147066000D03*
X249428000Y-147066000D03*
X246888000Y-147066000D03*
X244348000Y-147066000D03*
X241808000Y-147066000D03*
X239268000Y-147066000D03*
X239268000Y-154686000D03*
X241808000Y-154686000D03*
X244348000Y-154686000D03*
X246888000Y-154686000D03*
X249428000Y-154686000D03*
X251968000Y-154686000D03*
X254508000Y-154686000D03*
X257048000Y-154686000D03*
X86106000Y-182118000D03*
X96266000Y-182118000D03*
X73406000Y-244602000D03*
X83566000Y-244602000D03*
X141986000Y-37338000D03*
X152146000Y-37338000D03*
D15*
X198628000Y-214122000D03*
D12*
X201168000Y-214122000D03*
X198628000Y-216662000D03*
X201168000Y-216662000D03*
X198628000Y-219202000D03*
X201168000Y-219202000D03*
X198628000Y-221742000D03*
X201168000Y-221742000D03*
X198628000Y-224282000D03*
X201168000Y-224282000D03*
X198628000Y-226822000D03*
X201168000Y-226822000D03*
X198628000Y-229362000D03*
X201168000Y-229362000D03*
X198628000Y-231902000D03*
X201168000Y-231902000D03*
X198628000Y-234442000D03*
X201168000Y-234442000D03*
X198628000Y-236982000D03*
X201168000Y-236982000D03*
X198628000Y-239522000D03*
X201168000Y-239522000D03*
X198628000Y-242062000D03*
X201168000Y-242062000D03*
X198628000Y-244602000D03*
X201168000Y-244602000D03*
X198628000Y-247142000D03*
X201168000Y-247142000D03*
X198628000Y-249682000D03*
X201168000Y-249682000D03*
X198628000Y-252222000D03*
X201168000Y-252222000D03*
X198628000Y-254762000D03*
X201168000Y-254762000D03*
D13*
X107188000Y-231902000D03*
X104688000Y-231902000D03*
X86106000Y-219202000D03*
X96266000Y-219202000D03*
X223266000Y-129286000D03*
X233426000Y-129286000D03*
X223266000Y-211582000D03*
X233426000Y-211582000D03*
X86106000Y-62738000D03*
X96266000Y-62738000D03*
D14*
X119888000Y-112522000D03*
D13*
X117348000Y-112522000D03*
X114808000Y-112522000D03*
X112268000Y-112522000D03*
X109728000Y-112522000D03*
X107188000Y-112522000D03*
X104648000Y-112522000D03*
X102108000Y-112522000D03*
X102108000Y-120142000D03*
X104648000Y-120142000D03*
X107188000Y-120142000D03*
X109728000Y-120142000D03*
X112268000Y-120142000D03*
X114808000Y-120142000D03*
X117348000Y-120142000D03*
X119888000Y-120142000D03*
X141986000Y-160274000D03*
X152146000Y-160274000D03*
X86106000Y-125730000D03*
X96266000Y-125730000D03*
D15*
X267208000Y-152654000D03*
D12*
X269748000Y-152654000D03*
X267208000Y-155194000D03*
X269748000Y-155194000D03*
X267208000Y-157734000D03*
X269748000Y-157734000D03*
X267208000Y-160274000D03*
X269748000Y-160274000D03*
X267208000Y-162814000D03*
X269748000Y-162814000D03*
X267208000Y-165354000D03*
X269748000Y-165354000D03*
X267208000Y-167894000D03*
X269748000Y-167894000D03*
X267208000Y-170434000D03*
X269748000Y-170434000D03*
X267208000Y-172974000D03*
X269748000Y-172974000D03*
X267208000Y-175514000D03*
X269748000Y-175514000D03*
X267208000Y-178054000D03*
X269748000Y-178054000D03*
X267208000Y-180594000D03*
X269748000Y-180594000D03*
X267208000Y-183134000D03*
X269748000Y-183134000D03*
X267208000Y-185674000D03*
X269748000Y-185674000D03*
X267208000Y-188214000D03*
X269748000Y-188214000D03*
X267208000Y-190754000D03*
X269748000Y-190754000D03*
X267208000Y-193294000D03*
X269748000Y-193294000D03*
D16*
X60960000Y-193294000D03*
D17*
X60960000Y-190754000D03*
X60960000Y-188214000D03*
X60960000Y-185674000D03*
X60960000Y-183134000D03*
X60960000Y-180594000D03*
X60960000Y-178054000D03*
X60960000Y-175514000D03*
X60960000Y-172974000D03*
X60960000Y-170434000D03*
X60960000Y-167894000D03*
X60960000Y-165354000D03*
X60960000Y-162814000D03*
X60960000Y-160274000D03*
X60960000Y-157734000D03*
X45720000Y-157734000D03*
X45720000Y-160274000D03*
X45720000Y-162814000D03*
X45720000Y-165354000D03*
X45720000Y-167894000D03*
X45720000Y-170434000D03*
X45720000Y-172974000D03*
X45720000Y-175514000D03*
X45720000Y-178054000D03*
X45720000Y-180594000D03*
X45720000Y-183134000D03*
X45720000Y-185674000D03*
X45720000Y-188214000D03*
X45720000Y-190754000D03*
X45720000Y-193294000D03*
D15*
X130048000Y-29718000D03*
D12*
X132588000Y-29718000D03*
X130048000Y-32258000D03*
X132588000Y-32258000D03*
X130048000Y-34798000D03*
X132588000Y-34798000D03*
X130048000Y-37338000D03*
X132588000Y-37338000D03*
X130048000Y-39878000D03*
X132588000Y-39878000D03*
X130048000Y-42418000D03*
X132588000Y-42418000D03*
X130048000Y-44958000D03*
X132588000Y-44958000D03*
X130048000Y-47498000D03*
X132588000Y-47498000D03*
X130048000Y-50038000D03*
X132588000Y-50038000D03*
X130048000Y-52578000D03*
X132588000Y-52578000D03*
X130048000Y-55118000D03*
X132588000Y-55118000D03*
X130048000Y-57658000D03*
X132588000Y-57658000D03*
X130048000Y-60198000D03*
X132588000Y-60198000D03*
X130048000Y-62738000D03*
X132588000Y-62738000D03*
X130048000Y-65278000D03*
X132588000Y-65278000D03*
X130048000Y-67818000D03*
X132588000Y-67818000D03*
X130048000Y-70358000D03*
X132588000Y-70358000D03*
D13*
X141986000Y-237490000D03*
X152146000Y-237490000D03*
X223266000Y-22606000D03*
X233426000Y-22606000D03*
X86106000Y-29718000D03*
X96266000Y-29718000D03*
X223266000Y-152654000D03*
X233426000Y-152654000D03*
X154686000Y-152654000D03*
X164846000Y-152654000D03*
X244348000Y-108966000D03*
X241848000Y-108966000D03*
X154686000Y-211582000D03*
X164846000Y-211582000D03*
X210566000Y-52070000D03*
X220726000Y-52070000D03*
X141986000Y-185674000D03*
X152146000Y-185674000D03*
X210566000Y-92202000D03*
X220726000Y-92202000D03*
X141986000Y-241046000D03*
X152146000Y-241046000D03*
X49535000Y-249701138D03*
X49535000Y-259861138D03*
X223266000Y-88646000D03*
X233426000Y-88646000D03*
X154686000Y-255778000D03*
X164846000Y-255778000D03*
D11*
X63505000Y-264179138D03*
D12*
X60965000Y-264179138D03*
D13*
X86106000Y-99822000D03*
X96266000Y-99822000D03*
D15*
X267208000Y-214122000D03*
D12*
X269748000Y-214122000D03*
X267208000Y-216662000D03*
X269748000Y-216662000D03*
X267208000Y-219202000D03*
X269748000Y-219202000D03*
X267208000Y-221742000D03*
X269748000Y-221742000D03*
X267208000Y-224282000D03*
X269748000Y-224282000D03*
X267208000Y-226822000D03*
X269748000Y-226822000D03*
X267208000Y-229362000D03*
X269748000Y-229362000D03*
X267208000Y-231902000D03*
X269748000Y-231902000D03*
X267208000Y-234442000D03*
X269748000Y-234442000D03*
X267208000Y-236982000D03*
X269748000Y-236982000D03*
X267208000Y-239522000D03*
X269748000Y-239522000D03*
X267208000Y-242062000D03*
X269748000Y-242062000D03*
X267208000Y-244602000D03*
X269748000Y-244602000D03*
X267208000Y-247142000D03*
X269748000Y-247142000D03*
X267208000Y-249682000D03*
X269748000Y-249682000D03*
X267208000Y-252222000D03*
X269748000Y-252222000D03*
X267208000Y-254762000D03*
X269748000Y-254762000D03*
D14*
X257048000Y-38862000D03*
D13*
X254508000Y-38862000D03*
X251968000Y-38862000D03*
X249428000Y-38862000D03*
X246888000Y-38862000D03*
X244348000Y-38862000D03*
X241808000Y-38862000D03*
X239268000Y-38862000D03*
X239268000Y-46482000D03*
X241808000Y-46482000D03*
X244348000Y-46482000D03*
X246888000Y-46482000D03*
X249428000Y-46482000D03*
X251968000Y-46482000D03*
X254508000Y-46482000D03*
X257048000Y-46482000D03*
X154686000Y-244602000D03*
X164846000Y-244602000D03*
X141986000Y-96266000D03*
X152146000Y-96266000D03*
X73406000Y-129286000D03*
X83566000Y-129286000D03*
X141986000Y-48006000D03*
X152146000Y-48006000D03*
X73406000Y-163830000D03*
X83566000Y-163830000D03*
X154686000Y-182118000D03*
X164846000Y-182118000D03*
X154686000Y-175006000D03*
X164846000Y-175006000D03*
X223266000Y-132842000D03*
X233426000Y-132842000D03*
X64775000Y-258591138D03*
D14*
X64775000Y-250971138D03*
D15*
X267208000Y-91186000D03*
D12*
X269748000Y-91186000D03*
X267208000Y-93726000D03*
X269748000Y-93726000D03*
X267208000Y-96266000D03*
X269748000Y-96266000D03*
X267208000Y-98806000D03*
X269748000Y-98806000D03*
X267208000Y-101346000D03*
X269748000Y-101346000D03*
X267208000Y-103886000D03*
X269748000Y-103886000D03*
X267208000Y-106426000D03*
X269748000Y-106426000D03*
X267208000Y-108966000D03*
X269748000Y-108966000D03*
X267208000Y-111506000D03*
X269748000Y-111506000D03*
X267208000Y-114046000D03*
X269748000Y-114046000D03*
X267208000Y-116586000D03*
X269748000Y-116586000D03*
X267208000Y-119126000D03*
X269748000Y-119126000D03*
X267208000Y-121666000D03*
X269748000Y-121666000D03*
X267208000Y-124206000D03*
X269748000Y-124206000D03*
X267208000Y-126746000D03*
X269748000Y-126746000D03*
X267208000Y-129286000D03*
X269748000Y-129286000D03*
X267208000Y-131826000D03*
X269748000Y-131826000D03*
D13*
X141986000Y-33274000D03*
X152146000Y-33274000D03*
X141986000Y-22606000D03*
X152146000Y-22606000D03*
D15*
X130048000Y-91186000D03*
D12*
X132588000Y-91186000D03*
X130048000Y-93726000D03*
X132588000Y-93726000D03*
X130048000Y-96266000D03*
X132588000Y-96266000D03*
X130048000Y-98806000D03*
X132588000Y-98806000D03*
X130048000Y-101346000D03*
X132588000Y-101346000D03*
X130048000Y-103886000D03*
X132588000Y-103886000D03*
X130048000Y-106426000D03*
X132588000Y-106426000D03*
X130048000Y-108966000D03*
X132588000Y-108966000D03*
X130048000Y-111506000D03*
X132588000Y-111506000D03*
X130048000Y-114046000D03*
X132588000Y-114046000D03*
X130048000Y-116586000D03*
X132588000Y-116586000D03*
X130048000Y-119126000D03*
X132588000Y-119126000D03*
X130048000Y-121666000D03*
X132588000Y-121666000D03*
X130048000Y-124206000D03*
X132588000Y-124206000D03*
X130048000Y-126746000D03*
X132588000Y-126746000D03*
X130048000Y-129286000D03*
X132588000Y-129286000D03*
X130048000Y-131826000D03*
X132588000Y-131826000D03*
D13*
X210566000Y-114554000D03*
X220726000Y-114554000D03*
X86106000Y-170942000D03*
X96266000Y-170942000D03*
X223266000Y-237490000D03*
X233426000Y-237490000D03*
X223266000Y-145542000D03*
X233426000Y-145542000D03*
X154686000Y-62738000D03*
X164846000Y-62738000D03*
X154686000Y-26162000D03*
X164846000Y-26162000D03*
X73406000Y-219202000D03*
X83566000Y-219202000D03*
D14*
X257048000Y-68326000D03*
D13*
X254508000Y-68326000D03*
X251968000Y-68326000D03*
X249428000Y-68326000D03*
X246888000Y-68326000D03*
X244348000Y-68326000D03*
X241808000Y-68326000D03*
X239268000Y-68326000D03*
X239268000Y-75946000D03*
X241808000Y-75946000D03*
X244348000Y-75946000D03*
X246888000Y-75946000D03*
X249428000Y-75946000D03*
X251968000Y-75946000D03*
X254508000Y-75946000D03*
X257048000Y-75946000D03*
X73406000Y-96266000D03*
X83566000Y-96266000D03*
X62225000Y-230104000D03*
X62225000Y-227604000D03*
X244348000Y-35306000D03*
X241848000Y-35306000D03*
X223266000Y-193294000D03*
X233426000Y-193294000D03*
X73406000Y-196850000D03*
X83566000Y-196850000D03*
X141986000Y-26162000D03*
X152146000Y-26162000D03*
X141986000Y-170942000D03*
X152146000Y-170942000D03*
X223266000Y-226314000D03*
X233426000Y-226314000D03*
X73406000Y-26162000D03*
X83566000Y-26162000D03*
X86106000Y-156210000D03*
X96266000Y-156210000D03*
X244348000Y-187706000D03*
X241848000Y-187706000D03*
X210566000Y-55626000D03*
X220726000Y-55626000D03*
X223266000Y-52070000D03*
X233426000Y-52070000D03*
X141986000Y-229870000D03*
X152146000Y-229870000D03*
X86106000Y-244602000D03*
X96266000Y-244602000D03*
X86106000Y-229870000D03*
X96266000Y-229870000D03*
D14*
X119888000Y-38862000D03*
D13*
X117348000Y-38862000D03*
X114808000Y-38862000D03*
X112268000Y-38862000D03*
X109728000Y-38862000D03*
X107188000Y-38862000D03*
X104648000Y-38862000D03*
X102108000Y-38862000D03*
X102108000Y-46482000D03*
X104648000Y-46482000D03*
X107188000Y-46482000D03*
X109728000Y-46482000D03*
X112268000Y-46482000D03*
X114808000Y-46482000D03*
X117348000Y-46482000D03*
X119888000Y-46482000D03*
X223266000Y-66802000D03*
X233426000Y-66802000D03*
X210566000Y-22606000D03*
X220726000Y-22606000D03*
X86106000Y-96266000D03*
X96266000Y-96266000D03*
X223266000Y-185674000D03*
X233426000Y-185674000D03*
X141986000Y-106934000D03*
X152146000Y-106934000D03*
X154686000Y-29718000D03*
X164846000Y-29718000D03*
X141986000Y-149098000D03*
X152146000Y-149098000D03*
X223266000Y-59182000D03*
X233426000Y-59182000D03*
X154686000Y-259334000D03*
X164846000Y-259334000D03*
X73406000Y-88646000D03*
X83566000Y-88646000D03*
X141986000Y-167386000D03*
X152146000Y-167386000D03*
X141986000Y-233934000D03*
X152146000Y-233934000D03*
X73406000Y-178562000D03*
X83566000Y-178562000D03*
X73406000Y-62738000D03*
X83566000Y-62738000D03*
X154686000Y-110998000D03*
X164846000Y-110998000D03*
X86106000Y-70358000D03*
X96266000Y-70358000D03*
X73406000Y-114554000D03*
X83566000Y-114554000D03*
X210566000Y-48006000D03*
X220726000Y-48006000D03*
X141986000Y-252222000D03*
X152146000Y-252222000D03*
X73406000Y-40894000D03*
X83566000Y-40894000D03*
X141986000Y-208026000D03*
X152146000Y-208026000D03*
X210566000Y-110998000D03*
X220726000Y-110998000D03*
X107188000Y-187706000D03*
X104688000Y-187706000D03*
X210566000Y-59182000D03*
X220726000Y-59182000D03*
X107148000Y-261366000D03*
X104648000Y-261366000D03*
X210566000Y-145542000D03*
X220726000Y-145542000D03*
X223266000Y-252222000D03*
X233426000Y-252222000D03*
X223266000Y-204470000D03*
X233426000Y-204470000D03*
X154686000Y-37338000D03*
X164846000Y-37338000D03*
X141986000Y-85090000D03*
X152146000Y-85090000D03*
X154686000Y-170942000D03*
X164846000Y-170942000D03*
X210566000Y-163830000D03*
X220726000Y-163830000D03*
X107188000Y-202438000D03*
X104688000Y-202438000D03*
X210566000Y-77470000D03*
X220726000Y-77470000D03*
X73406000Y-85090000D03*
X83566000Y-85090000D03*
X210566000Y-189738000D03*
X220726000Y-189738000D03*
X223266000Y-121666000D03*
X233426000Y-121666000D03*
X154686000Y-114554000D03*
X164846000Y-114554000D03*
X141986000Y-103378000D03*
X152146000Y-103378000D03*
X223266000Y-70358000D03*
X233426000Y-70358000D03*
X223266000Y-244602000D03*
X233426000Y-244602000D03*
X141986000Y-132842000D03*
X152146000Y-132842000D03*
X223266000Y-96266000D03*
X233426000Y-96266000D03*
X244348000Y-94234000D03*
X241848000Y-94234000D03*
X223266000Y-189738000D03*
X233426000Y-189738000D03*
X86106000Y-222758000D03*
X96266000Y-222758000D03*
X86106000Y-81534000D03*
X96266000Y-81534000D03*
X154686000Y-156210000D03*
X164846000Y-156210000D03*
X107188000Y-217170000D03*
X104688000Y-217170000D03*
X86106000Y-255778000D03*
X96266000Y-255778000D03*
X223266000Y-29718000D03*
X233426000Y-29718000D03*
D14*
X119888000Y-68326000D03*
D13*
X117348000Y-68326000D03*
X114808000Y-68326000D03*
X112268000Y-68326000D03*
X109728000Y-68326000D03*
X107188000Y-68326000D03*
X104648000Y-68326000D03*
X102108000Y-68326000D03*
X102108000Y-75946000D03*
X104648000Y-75946000D03*
X107188000Y-75946000D03*
X109728000Y-75946000D03*
X112268000Y-75946000D03*
X114808000Y-75946000D03*
X117348000Y-75946000D03*
X119888000Y-75946000D03*
D15*
X198628000Y-91186000D03*
D12*
X201168000Y-91186000D03*
X198628000Y-93726000D03*
X201168000Y-93726000D03*
X198628000Y-96266000D03*
X201168000Y-96266000D03*
X198628000Y-98806000D03*
X201168000Y-98806000D03*
X198628000Y-101346000D03*
X201168000Y-101346000D03*
X198628000Y-103886000D03*
X201168000Y-103886000D03*
X198628000Y-106426000D03*
X201168000Y-106426000D03*
X198628000Y-108966000D03*
X201168000Y-108966000D03*
X198628000Y-111506000D03*
X201168000Y-111506000D03*
X198628000Y-114046000D03*
X201168000Y-114046000D03*
X198628000Y-116586000D03*
X201168000Y-116586000D03*
X198628000Y-119126000D03*
X201168000Y-119126000D03*
X198628000Y-121666000D03*
X201168000Y-121666000D03*
X198628000Y-124206000D03*
X201168000Y-124206000D03*
X198628000Y-126746000D03*
X201168000Y-126746000D03*
X198628000Y-129286000D03*
X201168000Y-129286000D03*
X198628000Y-131826000D03*
X201168000Y-131826000D03*
D13*
X154686000Y-136398000D03*
X164846000Y-136398000D03*
D14*
X119888000Y-83058000D03*
D13*
X117348000Y-83058000D03*
X114808000Y-83058000D03*
X112268000Y-83058000D03*
X109728000Y-83058000D03*
X107188000Y-83058000D03*
X104648000Y-83058000D03*
X102108000Y-83058000D03*
X102108000Y-90678000D03*
X104648000Y-90678000D03*
X107188000Y-90678000D03*
X109728000Y-90678000D03*
X112268000Y-90678000D03*
X114808000Y-90678000D03*
X117348000Y-90678000D03*
X119888000Y-90678000D03*
X175728000Y-217170000D03*
X173228000Y-217170000D03*
X86106000Y-132842000D03*
X96266000Y-132842000D03*
X141986000Y-44450000D03*
X152146000Y-44450000D03*
X154686000Y-44450000D03*
X164846000Y-44450000D03*
D15*
X130048000Y-214122000D03*
D12*
X132588000Y-214122000D03*
X130048000Y-216662000D03*
X132588000Y-216662000D03*
X130048000Y-219202000D03*
X132588000Y-219202000D03*
X130048000Y-221742000D03*
X132588000Y-221742000D03*
X130048000Y-224282000D03*
X132588000Y-224282000D03*
X130048000Y-226822000D03*
X132588000Y-226822000D03*
X130048000Y-229362000D03*
X132588000Y-229362000D03*
X130048000Y-231902000D03*
X132588000Y-231902000D03*
X130048000Y-234442000D03*
X132588000Y-234442000D03*
X130048000Y-236982000D03*
X132588000Y-236982000D03*
X130048000Y-239522000D03*
X132588000Y-239522000D03*
X130048000Y-242062000D03*
X132588000Y-242062000D03*
X130048000Y-244602000D03*
X132588000Y-244602000D03*
X130048000Y-247142000D03*
X132588000Y-247142000D03*
X130048000Y-249682000D03*
X132588000Y-249682000D03*
X130048000Y-252222000D03*
X132588000Y-252222000D03*
X130048000Y-254762000D03*
X132588000Y-254762000D03*
D13*
X141986000Y-121666000D03*
X152146000Y-121666000D03*
X154686000Y-226314000D03*
X164846000Y-226314000D03*
X141986000Y-200406000D03*
X152146000Y-200406000D03*
X244348000Y-231902000D03*
X241848000Y-231902000D03*
X141986000Y-118110000D03*
X152146000Y-118110000D03*
X210566000Y-149098000D03*
X220726000Y-149098000D03*
X73406000Y-99822000D03*
X83566000Y-99822000D03*
X86106000Y-136398000D03*
X96266000Y-136398000D03*
X107188000Y-94234000D03*
X104688000Y-94234000D03*
X154686000Y-163830000D03*
X164846000Y-163830000D03*
X210566000Y-118110000D03*
X220726000Y-118110000D03*
X223266000Y-160274000D03*
X233426000Y-160274000D03*
X73406000Y-189738000D03*
X83566000Y-189738000D03*
X73406000Y-81534000D03*
X83566000Y-81534000D03*
X154686000Y-185674000D03*
X164846000Y-185674000D03*
D14*
X188468000Y-127254000D03*
D13*
X185928000Y-127254000D03*
X183388000Y-127254000D03*
X180848000Y-127254000D03*
X178308000Y-127254000D03*
X175768000Y-127254000D03*
X173228000Y-127254000D03*
X170688000Y-127254000D03*
X170688000Y-134874000D03*
X173228000Y-134874000D03*
X175768000Y-134874000D03*
X178308000Y-134874000D03*
X180848000Y-134874000D03*
X183388000Y-134874000D03*
X185928000Y-134874000D03*
X188468000Y-134874000D03*
X141986000Y-145542000D03*
X152146000Y-145542000D03*
D14*
X188468000Y-83058000D03*
D13*
X185928000Y-83058000D03*
X183388000Y-83058000D03*
X180848000Y-83058000D03*
X178308000Y-83058000D03*
X175768000Y-83058000D03*
X173228000Y-83058000D03*
X170688000Y-83058000D03*
X170688000Y-90678000D03*
X173228000Y-90678000D03*
X175768000Y-90678000D03*
X178308000Y-90678000D03*
X180848000Y-90678000D03*
X183388000Y-90678000D03*
X185928000Y-90678000D03*
X188468000Y-90678000D03*
X210566000Y-85090000D03*
X220726000Y-85090000D03*
D14*
X188468000Y-68326000D03*
D13*
X185928000Y-68326000D03*
X183388000Y-68326000D03*
X180848000Y-68326000D03*
X178308000Y-68326000D03*
X175768000Y-68326000D03*
X173228000Y-68326000D03*
X170688000Y-68326000D03*
X170688000Y-75946000D03*
X173228000Y-75946000D03*
X175768000Y-75946000D03*
X178308000Y-75946000D03*
X180848000Y-75946000D03*
X183388000Y-75946000D03*
X185928000Y-75946000D03*
X188468000Y-75946000D03*
X154686000Y-178562000D03*
X164846000Y-178562000D03*
X210566000Y-259334000D03*
X220726000Y-259334000D03*
X107168000Y-123698000D03*
X104668000Y-123698000D03*
D15*
X198628000Y-29718000D03*
D12*
X201168000Y-29718000D03*
X198628000Y-32258000D03*
X201168000Y-32258000D03*
X198628000Y-34798000D03*
X201168000Y-34798000D03*
X198628000Y-37338000D03*
X201168000Y-37338000D03*
X198628000Y-39878000D03*
X201168000Y-39878000D03*
X198628000Y-42418000D03*
X201168000Y-42418000D03*
X198628000Y-44958000D03*
X201168000Y-44958000D03*
X198628000Y-47498000D03*
X201168000Y-47498000D03*
X198628000Y-50038000D03*
X201168000Y-50038000D03*
X198628000Y-52578000D03*
X201168000Y-52578000D03*
X198628000Y-55118000D03*
X201168000Y-55118000D03*
X198628000Y-57658000D03*
X201168000Y-57658000D03*
X198628000Y-60198000D03*
X201168000Y-60198000D03*
X198628000Y-62738000D03*
X201168000Y-62738000D03*
X198628000Y-65278000D03*
X201168000Y-65278000D03*
X198628000Y-67818000D03*
X201168000Y-67818000D03*
X198628000Y-70358000D03*
X201168000Y-70358000D03*
D13*
X223266000Y-73914000D03*
X233426000Y-73914000D03*
X141986000Y-40894000D03*
X152146000Y-40894000D03*
X223266000Y-233934000D03*
X233426000Y-233934000D03*
X86106000Y-52070000D03*
X96266000Y-52070000D03*
X154686000Y-160274000D03*
X164846000Y-160274000D03*
D15*
X198628000Y-152654000D03*
D12*
X201168000Y-152654000D03*
X198628000Y-155194000D03*
X201168000Y-155194000D03*
X198628000Y-157734000D03*
X201168000Y-157734000D03*
X198628000Y-160274000D03*
X201168000Y-160274000D03*
X198628000Y-162814000D03*
X201168000Y-162814000D03*
X198628000Y-165354000D03*
X201168000Y-165354000D03*
X198628000Y-167894000D03*
X201168000Y-167894000D03*
X198628000Y-170434000D03*
X201168000Y-170434000D03*
X198628000Y-172974000D03*
X201168000Y-172974000D03*
X198628000Y-175514000D03*
X201168000Y-175514000D03*
X198628000Y-178054000D03*
X201168000Y-178054000D03*
X198628000Y-180594000D03*
X201168000Y-180594000D03*
X198628000Y-183134000D03*
X201168000Y-183134000D03*
X198628000Y-185674000D03*
X201168000Y-185674000D03*
X198628000Y-188214000D03*
X201168000Y-188214000D03*
X198628000Y-190754000D03*
X201168000Y-190754000D03*
X198628000Y-193294000D03*
X201168000Y-193294000D03*
D14*
X257048000Y-24130000D03*
D13*
X254508000Y-24130000D03*
X251968000Y-24130000D03*
X249428000Y-24130000D03*
X246888000Y-24130000D03*
X244348000Y-24130000D03*
X241808000Y-24130000D03*
X239268000Y-24130000D03*
X239268000Y-31750000D03*
X241808000Y-31750000D03*
X244348000Y-31750000D03*
X246888000Y-31750000D03*
X249428000Y-31750000D03*
X251968000Y-31750000D03*
X254508000Y-31750000D03*
X257048000Y-31750000D03*
X154686000Y-59182000D03*
X164846000Y-59182000D03*
X210566000Y-99822000D03*
X220726000Y-99822000D03*
X223266000Y-125730000D03*
X233426000Y-125730000D03*
X86106000Y-55626000D03*
X96266000Y-55626000D03*
X175768000Y-35306000D03*
X173268000Y-35306000D03*
X223266000Y-208026000D03*
X233426000Y-208026000D03*
X73406000Y-52070000D03*
X83566000Y-52070000D03*
X54615000Y-249701138D03*
X54615000Y-259861138D03*
D14*
X119888000Y-24130000D03*
D13*
X117348000Y-24130000D03*
X114808000Y-24130000D03*
X112268000Y-24130000D03*
X109728000Y-24130000D03*
X107188000Y-24130000D03*
X104648000Y-24130000D03*
X102108000Y-24130000D03*
X102108000Y-31750000D03*
X104648000Y-31750000D03*
X107188000Y-31750000D03*
X109728000Y-31750000D03*
X112268000Y-31750000D03*
X114808000Y-31750000D03*
X117348000Y-31750000D03*
X119888000Y-31750000D03*
X73406000Y-37338000D03*
X83566000Y-37338000D03*
X244348000Y-217170000D03*
X241848000Y-217170000D03*
X141986000Y-156210000D03*
X152146000Y-156210000D03*
X86106000Y-110998000D03*
X96266000Y-110998000D03*
X73406000Y-22606000D03*
X83566000Y-22606000D03*
D14*
X119888000Y-97790000D03*
D13*
X117348000Y-97790000D03*
X114808000Y-97790000D03*
X112268000Y-97790000D03*
X109728000Y-97790000D03*
X107188000Y-97790000D03*
X104648000Y-97790000D03*
X102108000Y-97790000D03*
X102108000Y-105410000D03*
X104648000Y-105410000D03*
X107188000Y-105410000D03*
X109728000Y-105410000D03*
X112268000Y-105410000D03*
X114808000Y-105410000D03*
X117348000Y-105410000D03*
X119888000Y-105410000D03*
X73406000Y-121666000D03*
X83566000Y-121666000D03*
X210566000Y-81534000D03*
X220726000Y-81534000D03*
X210566000Y-44450000D03*
X220726000Y-44450000D03*
X154686000Y-229870000D03*
X164846000Y-229870000D03*
X86106000Y-252222000D03*
X96266000Y-252222000D03*
X210566000Y-96266000D03*
X220726000Y-96266000D03*
X223266000Y-219202000D03*
X233426000Y-219202000D03*
X223266000Y-48006000D03*
X233426000Y-48006000D03*
X141986000Y-163830000D03*
X152146000Y-163830000D03*
X73406000Y-106934000D03*
X83566000Y-106934000D03*
X141986000Y-189738000D03*
X152146000Y-189738000D03*
X223266000Y-37338000D03*
X233426000Y-37338000D03*
X223266000Y-182118000D03*
X233426000Y-182118000D03*
X210566000Y-132842000D03*
X220726000Y-132842000D03*
X86106000Y-77470000D03*
X96266000Y-77470000D03*
X210566000Y-182118000D03*
X220726000Y-182118000D03*
X154686000Y-233934000D03*
X164846000Y-233934000D03*
X223266000Y-62738000D03*
X233426000Y-62738000D03*
X154686000Y-237490000D03*
X164846000Y-237490000D03*
X154686000Y-99822000D03*
X164846000Y-99822000D03*
X73406000Y-204470000D03*
X83566000Y-204470000D03*
X73406000Y-211582000D03*
X83566000Y-211582000D03*
X154686000Y-145542000D03*
X164846000Y-145542000D03*
X210566000Y-204470000D03*
X220726000Y-204470000D03*
X86106000Y-106934000D03*
X96266000Y-106934000D03*
X73406000Y-215138000D03*
X83566000Y-215138000D03*
X154686000Y-129286000D03*
X164846000Y-129286000D03*
X73406000Y-125730000D03*
X83566000Y-125730000D03*
X223266000Y-259334000D03*
X233426000Y-259334000D03*
X244348000Y-123698000D03*
X241848000Y-123698000D03*
X141986000Y-125730000D03*
X152146000Y-125730000D03*
X223266000Y-55626000D03*
X233426000Y-55626000D03*
X73406000Y-185674000D03*
X83566000Y-185674000D03*
X154686000Y-73914000D03*
X164846000Y-73914000D03*
X141986000Y-73914000D03*
X152146000Y-73914000D03*
X154686000Y-52070000D03*
X164846000Y-52070000D03*
X107188000Y-158242000D03*
X104688000Y-158242000D03*
X141986000Y-92202000D03*
X152146000Y-92202000D03*
X86106000Y-33274000D03*
X96266000Y-33274000D03*
X107188000Y-64770000D03*
X104688000Y-64770000D03*
X223266000Y-103378000D03*
X233426000Y-103378000D03*
X223266000Y-241046000D03*
X233426000Y-241046000D03*
X141986000Y-129286000D03*
X152146000Y-129286000D03*
D14*
X188468000Y-38862000D03*
D13*
X185928000Y-38862000D03*
X183388000Y-38862000D03*
X180848000Y-38862000D03*
X178308000Y-38862000D03*
X175768000Y-38862000D03*
X173228000Y-38862000D03*
X170688000Y-38862000D03*
X170688000Y-46482000D03*
X173228000Y-46482000D03*
X175768000Y-46482000D03*
X178308000Y-46482000D03*
X180848000Y-46482000D03*
X183388000Y-46482000D03*
X185928000Y-46482000D03*
X188468000Y-46482000D03*
X86106000Y-204470000D03*
X96266000Y-204470000D03*
X86106000Y-233934000D03*
X96266000Y-233934000D03*
D14*
X257048000Y-176530000D03*
D13*
X254508000Y-176530000D03*
X251968000Y-176530000D03*
X249428000Y-176530000D03*
X246888000Y-176530000D03*
X244348000Y-176530000D03*
X241808000Y-176530000D03*
X239268000Y-176530000D03*
X239268000Y-184150000D03*
X241808000Y-184150000D03*
X244348000Y-184150000D03*
X246888000Y-184150000D03*
X249428000Y-184150000D03*
X251968000Y-184150000D03*
X254508000Y-184150000D03*
X257048000Y-184150000D03*
X107442000Y-172974000D03*
X104942000Y-172974000D03*
D14*
X188468000Y-235458000D03*
D13*
X185928000Y-235458000D03*
X183388000Y-235458000D03*
X180848000Y-235458000D03*
X178308000Y-235458000D03*
X175768000Y-235458000D03*
X173228000Y-235458000D03*
X170688000Y-235458000D03*
X170688000Y-243078000D03*
X173228000Y-243078000D03*
X175768000Y-243078000D03*
X178308000Y-243078000D03*
X180848000Y-243078000D03*
X183388000Y-243078000D03*
X185928000Y-243078000D03*
X188468000Y-243078000D03*
X59695000Y-249701138D03*
X59695000Y-259861138D03*
X86106000Y-73914000D03*
X96266000Y-73914000D03*
D14*
X188468000Y-24130000D03*
D13*
X185928000Y-24130000D03*
X183388000Y-24130000D03*
X180848000Y-24130000D03*
X178308000Y-24130000D03*
X175768000Y-24130000D03*
X173228000Y-24130000D03*
X170688000Y-24130000D03*
X170688000Y-31750000D03*
X173228000Y-31750000D03*
X175768000Y-31750000D03*
X178308000Y-31750000D03*
X180848000Y-31750000D03*
X183388000Y-31750000D03*
X185928000Y-31750000D03*
X188468000Y-31750000D03*
X73406000Y-149098000D03*
X83566000Y-149098000D03*
X141986000Y-114554000D03*
X152146000Y-114554000D03*
X154686000Y-215138000D03*
X164846000Y-215138000D03*
X141986000Y-88646000D03*
X152146000Y-88646000D03*
D14*
X188468000Y-176530000D03*
D13*
X185928000Y-176530000D03*
X183388000Y-176530000D03*
X180848000Y-176530000D03*
X178308000Y-176530000D03*
X175768000Y-176530000D03*
X173228000Y-176530000D03*
X170688000Y-176530000D03*
X170688000Y-184150000D03*
X173228000Y-184150000D03*
X175768000Y-184150000D03*
X178308000Y-184150000D03*
X180848000Y-184150000D03*
X183388000Y-184150000D03*
X185928000Y-184150000D03*
X188468000Y-184150000D03*
X223266000Y-44450000D03*
X233426000Y-44450000D03*
X107188000Y-108966000D03*
X104688000Y-108966000D03*
X66035000Y-233953138D03*
X66035000Y-223793138D03*
X73406000Y-229870000D03*
X83566000Y-229870000D03*
X175728000Y-123698000D03*
X173228000Y-123698000D03*
X223266000Y-149098000D03*
X233426000Y-149098000D03*
D14*
X119888000Y-191262000D03*
D13*
X117348000Y-191262000D03*
X114808000Y-191262000D03*
X112268000Y-191262000D03*
X109728000Y-191262000D03*
X107188000Y-191262000D03*
X104648000Y-191262000D03*
X102108000Y-191262000D03*
X102108000Y-198882000D03*
X104648000Y-198882000D03*
X107188000Y-198882000D03*
X109728000Y-198882000D03*
X112268000Y-198882000D03*
X114808000Y-198882000D03*
X117348000Y-198882000D03*
X119888000Y-198882000D03*
X73406000Y-259334000D03*
X83566000Y-259334000D03*
X86106000Y-226314000D03*
X96266000Y-226314000D03*
X210566000Y-152654000D03*
X220726000Y-152654000D03*
X73406000Y-145542000D03*
X83566000Y-145542000D03*
D14*
X188468000Y-97790000D03*
D13*
X185928000Y-97790000D03*
X183388000Y-97790000D03*
X180848000Y-97790000D03*
X178308000Y-97790000D03*
X175768000Y-97790000D03*
X173228000Y-97790000D03*
X170688000Y-97790000D03*
X170688000Y-105410000D03*
X173228000Y-105410000D03*
X175768000Y-105410000D03*
X178308000Y-105410000D03*
X180848000Y-105410000D03*
X183388000Y-105410000D03*
X185928000Y-105410000D03*
X188468000Y-105410000D03*
X223266000Y-163830000D03*
X233426000Y-163830000D03*
D14*
X257048000Y-97790000D03*
D13*
X254508000Y-97790000D03*
X251968000Y-97790000D03*
X249428000Y-97790000D03*
X246888000Y-97790000D03*
X244348000Y-97790000D03*
X241808000Y-97790000D03*
X239268000Y-97790000D03*
X239268000Y-105410000D03*
X241808000Y-105410000D03*
X244348000Y-105410000D03*
X246888000Y-105410000D03*
X249428000Y-105410000D03*
X251968000Y-105410000D03*
X254508000Y-105410000D03*
X257048000Y-105410000D03*
X210566000Y-193294000D03*
X220726000Y-193294000D03*
X210566000Y-136398000D03*
X220726000Y-136398000D03*
X223266000Y-222758000D03*
X233426000Y-222758000D03*
X141986000Y-70358000D03*
X152146000Y-70358000D03*
X141986000Y-52070000D03*
X152146000Y-52070000D03*
X141986000Y-29718000D03*
X152146000Y-29718000D03*
X141986000Y-255778000D03*
X152146000Y-255778000D03*
X141986000Y-226314000D03*
X152146000Y-226314000D03*
X86106000Y-88646000D03*
X96266000Y-88646000D03*
X86106000Y-66802000D03*
X96266000Y-66802000D03*
X175728000Y-79502000D03*
X173228000Y-79502000D03*
X86106000Y-175006000D03*
X96266000Y-175006000D03*
D15*
X130048000Y-152654000D03*
D12*
X132588000Y-152654000D03*
X130048000Y-155194000D03*
X132588000Y-155194000D03*
X130048000Y-157734000D03*
X132588000Y-157734000D03*
X130048000Y-160274000D03*
X132588000Y-160274000D03*
X130048000Y-162814000D03*
X132588000Y-162814000D03*
X130048000Y-165354000D03*
X132588000Y-165354000D03*
X130048000Y-167894000D03*
X132588000Y-167894000D03*
X130048000Y-170434000D03*
X132588000Y-170434000D03*
X130048000Y-172974000D03*
X132588000Y-172974000D03*
X130048000Y-175514000D03*
X132588000Y-175514000D03*
X130048000Y-178054000D03*
X132588000Y-178054000D03*
X130048000Y-180594000D03*
X132588000Y-180594000D03*
X130048000Y-183134000D03*
X132588000Y-183134000D03*
X130048000Y-185674000D03*
X132588000Y-185674000D03*
X130048000Y-188214000D03*
X132588000Y-188214000D03*
X130048000Y-190754000D03*
X132588000Y-190754000D03*
X130048000Y-193294000D03*
X132588000Y-193294000D03*
D13*
X175728000Y-94234000D03*
X173228000Y-94234000D03*
X210566000Y-29718000D03*
X220726000Y-29718000D03*
X210566000Y-244602000D03*
X220726000Y-244602000D03*
X154686000Y-219202000D03*
X164846000Y-219202000D03*
X223266000Y-248666000D03*
X233426000Y-248666000D03*
X154686000Y-222758000D03*
X164846000Y-222758000D03*
X73406000Y-193294000D03*
X83566000Y-193294000D03*
X73406000Y-59182000D03*
X83566000Y-59182000D03*
X223266000Y-114554000D03*
X233426000Y-114554000D03*
X154686000Y-55626000D03*
X164846000Y-55626000D03*
X141986000Y-62738000D03*
X152146000Y-62738000D03*
X73406000Y-252222000D03*
X83566000Y-252222000D03*
D14*
X119888000Y-53594000D03*
D13*
X117348000Y-53594000D03*
X114808000Y-53594000D03*
X112268000Y-53594000D03*
X109728000Y-53594000D03*
X107188000Y-53594000D03*
X104648000Y-53594000D03*
X102108000Y-53594000D03*
X102108000Y-61214000D03*
X104648000Y-61214000D03*
X107188000Y-61214000D03*
X109728000Y-61214000D03*
X112268000Y-61214000D03*
X114808000Y-61214000D03*
X117348000Y-61214000D03*
X119888000Y-61214000D03*
X86106000Y-118110000D03*
X96266000Y-118110000D03*
X141986000Y-136398000D03*
X152146000Y-136398000D03*
X210566000Y-40894000D03*
X220726000Y-40894000D03*
X210566000Y-88646000D03*
X220726000Y-88646000D03*
X210566000Y-37338000D03*
X220726000Y-37338000D03*
X73406000Y-70358000D03*
X83566000Y-70358000D03*
X223266000Y-106934000D03*
X233426000Y-106934000D03*
X86106000Y-241046000D03*
X96266000Y-241046000D03*
X175728000Y-158242000D03*
X173228000Y-158242000D03*
D14*
X257048000Y-235458000D03*
D13*
X254508000Y-235458000D03*
X251968000Y-235458000D03*
X249428000Y-235458000D03*
X246888000Y-235458000D03*
X244348000Y-235458000D03*
X241808000Y-235458000D03*
X239268000Y-235458000D03*
X239268000Y-243078000D03*
X241808000Y-243078000D03*
X244348000Y-243078000D03*
X246888000Y-243078000D03*
X249428000Y-243078000D03*
X251968000Y-243078000D03*
X254508000Y-243078000D03*
X257048000Y-243078000D03*
X141986000Y-219202000D03*
X152146000Y-219202000D03*
X141986000Y-248666000D03*
X152146000Y-248666000D03*
D14*
X188468000Y-220726000D03*
D13*
X185928000Y-220726000D03*
X183388000Y-220726000D03*
X180848000Y-220726000D03*
X178308000Y-220726000D03*
X175768000Y-220726000D03*
X173228000Y-220726000D03*
X170688000Y-220726000D03*
X170688000Y-228346000D03*
X173228000Y-228346000D03*
X175768000Y-228346000D03*
X178308000Y-228346000D03*
X180848000Y-228346000D03*
X183388000Y-228346000D03*
X185928000Y-228346000D03*
X188468000Y-228346000D03*
X210566000Y-237490000D03*
X220726000Y-237490000D03*
X154686000Y-81534000D03*
X164846000Y-81534000D03*
X175982000Y-261366000D03*
X173482000Y-261366000D03*
X73406000Y-248666000D03*
X83566000Y-248666000D03*
X86106000Y-59182000D03*
X96266000Y-59182000D03*
X73406000Y-77470000D03*
X83566000Y-77470000D03*
X175748000Y-108966000D03*
X173248000Y-108966000D03*
X141986000Y-59182000D03*
X152146000Y-59182000D03*
X73406000Y-233934000D03*
X83566000Y-233934000D03*
X154686000Y-77470000D03*
X164846000Y-77470000D03*
X210566000Y-248666000D03*
X220726000Y-248666000D03*
X223266000Y-136398000D03*
X233426000Y-136398000D03*
D14*
X257048000Y-205994000D03*
D13*
X254508000Y-205994000D03*
X251968000Y-205994000D03*
X249428000Y-205994000D03*
X246888000Y-205994000D03*
X244348000Y-205994000D03*
X241808000Y-205994000D03*
X239268000Y-205994000D03*
X239268000Y-213614000D03*
X241808000Y-213614000D03*
X244348000Y-213614000D03*
X246888000Y-213614000D03*
X249428000Y-213614000D03*
X251968000Y-213614000D03*
X254508000Y-213614000D03*
X257048000Y-213614000D03*
X73406000Y-33274000D03*
X83566000Y-33274000D03*
X73406000Y-103378000D03*
X83566000Y-103378000D03*
D14*
X119888000Y-161798000D03*
D13*
X117348000Y-161798000D03*
X114808000Y-161798000D03*
X112268000Y-161798000D03*
X109728000Y-161798000D03*
X107188000Y-161798000D03*
X104648000Y-161798000D03*
X102108000Y-161798000D03*
X102108000Y-169418000D03*
X104648000Y-169418000D03*
X107188000Y-169418000D03*
X109728000Y-169418000D03*
X112268000Y-169418000D03*
X114808000Y-169418000D03*
X117348000Y-169418000D03*
X119888000Y-169418000D03*
X223266000Y-175006000D03*
X233426000Y-175006000D03*
X210566000Y-167386000D03*
X220726000Y-167386000D03*
X86106000Y-121666000D03*
X96266000Y-121666000D03*
X141986000Y-77470000D03*
X152146000Y-77470000D03*
X154686000Y-200406000D03*
X164846000Y-200406000D03*
X175728000Y-246634000D03*
X173228000Y-246634000D03*
X154686000Y-70358000D03*
X164846000Y-70358000D03*
X154686000Y-193294000D03*
X164846000Y-193294000D03*
X154686000Y-208026000D03*
X164846000Y-208026000D03*
X223266000Y-33274000D03*
X233426000Y-33274000D03*
X210566000Y-26162000D03*
X220726000Y-26162000D03*
X223266000Y-99822000D03*
X233426000Y-99822000D03*
X154686000Y-125730000D03*
X164846000Y-125730000D03*
X154686000Y-103378000D03*
X164846000Y-103378000D03*
X86106000Y-149098000D03*
X96266000Y-149098000D03*
X223266000Y-196850000D03*
X233426000Y-196850000D03*
X244348000Y-50038000D03*
X241848000Y-50038000D03*
X86106000Y-193294000D03*
X96266000Y-193294000D03*
X210566000Y-129286000D03*
X220726000Y-129286000D03*
X141986000Y-175006000D03*
X152146000Y-175006000D03*
X73406000Y-66802000D03*
X83566000Y-66802000D03*
X107188000Y-246634000D03*
X104688000Y-246634000D03*
X73406000Y-156210000D03*
X83566000Y-156210000D03*
X58425000Y-238017138D03*
X60965000Y-238017138D03*
X63505000Y-238017138D03*
X66045000Y-238017138D03*
X66045000Y-245637138D03*
X63505000Y-245637138D03*
X60965000Y-245637138D03*
D18*
X58425000Y-245637138D03*
D13*
X86106000Y-44450000D03*
X96266000Y-44450000D03*
X141986000Y-55626000D03*
X152146000Y-55626000D03*
X223266000Y-40894000D03*
X233426000Y-40894000D03*
D14*
X188468000Y-147066000D03*
D13*
X185928000Y-147066000D03*
X183388000Y-147066000D03*
X180848000Y-147066000D03*
X178308000Y-147066000D03*
X175768000Y-147066000D03*
X173228000Y-147066000D03*
X170688000Y-147066000D03*
X170688000Y-154686000D03*
X173228000Y-154686000D03*
X175768000Y-154686000D03*
X178308000Y-154686000D03*
X180848000Y-154686000D03*
X183388000Y-154686000D03*
X185928000Y-154686000D03*
X188468000Y-154686000D03*
X223266000Y-255778000D03*
X233426000Y-255778000D03*
X175728000Y-187706000D03*
X173228000Y-187706000D03*
X154686000Y-149098000D03*
X164846000Y-149098000D03*
X210566000Y-175006000D03*
X220726000Y-175006000D03*
X73406000Y-55626000D03*
X83566000Y-55626000D03*
X73406000Y-160274000D03*
X83566000Y-160274000D03*
X223266000Y-215138000D03*
X233426000Y-215138000D03*
D14*
X188468000Y-161798000D03*
D13*
X185928000Y-161798000D03*
X183388000Y-161798000D03*
X180848000Y-161798000D03*
X178308000Y-161798000D03*
X175768000Y-161798000D03*
X173228000Y-161798000D03*
X170688000Y-161798000D03*
X170688000Y-169418000D03*
X173228000Y-169418000D03*
X175768000Y-169418000D03*
X178308000Y-169418000D03*
X180848000Y-169418000D03*
X183388000Y-169418000D03*
X185928000Y-169418000D03*
X188468000Y-169418000D03*
X86106000Y-129286000D03*
X96266000Y-129286000D03*
X86106000Y-145542000D03*
X96266000Y-145542000D03*
X107188000Y-50038000D03*
X104688000Y-50038000D03*
X107188000Y-138430000D03*
X104688000Y-138430000D03*
X210566000Y-226314000D03*
X220726000Y-226314000D03*
X141986000Y-110998000D03*
X152146000Y-110998000D03*
X86106000Y-85090000D03*
X96266000Y-85090000D03*
X141986000Y-215138000D03*
X152146000Y-215138000D03*
X154686000Y-241046000D03*
X164846000Y-241046000D03*
X223266000Y-229870000D03*
X233426000Y-229870000D03*
X86106000Y-167386000D03*
X96266000Y-167386000D03*
X73406000Y-152654000D03*
X83566000Y-152654000D03*
D11*
X54615000Y-264179138D03*
D12*
X49535000Y-264179138D03*
X52075000Y-264179138D03*
D13*
X210566000Y-241046000D03*
X220726000Y-241046000D03*
D14*
X257048000Y-191262000D03*
D13*
X254508000Y-191262000D03*
X251968000Y-191262000D03*
X249428000Y-191262000D03*
X246888000Y-191262000D03*
X244348000Y-191262000D03*
X241808000Y-191262000D03*
X239268000Y-191262000D03*
X239268000Y-198882000D03*
X241808000Y-198882000D03*
X244348000Y-198882000D03*
X246888000Y-198882000D03*
X249428000Y-198882000D03*
X251968000Y-198882000D03*
X254508000Y-198882000D03*
X257048000Y-198882000D03*
X210566000Y-252222000D03*
X220726000Y-252222000D03*
X86106000Y-259334000D03*
X96266000Y-259334000D03*
X141986000Y-222758000D03*
X152146000Y-222758000D03*
X141986000Y-204470000D03*
X152146000Y-204470000D03*
X141986000Y-196850000D03*
X152146000Y-196850000D03*
X73406000Y-167386000D03*
X83566000Y-167386000D03*
X210566000Y-211582000D03*
X220726000Y-211582000D03*
X210566000Y-196850000D03*
X220726000Y-196850000D03*
X210566000Y-222758000D03*
X220726000Y-222758000D03*
X86106000Y-92202000D03*
X96266000Y-92202000D03*
X86106000Y-163830000D03*
X96266000Y-163830000D03*
X154686000Y-204470000D03*
X164846000Y-204470000D03*
X210566000Y-170942000D03*
X220726000Y-170942000D03*
X86106000Y-196850000D03*
X96266000Y-196850000D03*
X210566000Y-208026000D03*
X220726000Y-208026000D03*
X86106000Y-40894000D03*
X96266000Y-40894000D03*
X223266000Y-92202000D03*
X233426000Y-92202000D03*
X86106000Y-208026000D03*
X96266000Y-208026000D03*
X73406000Y-110998000D03*
X83566000Y-110998000D03*
X244348000Y-138430000D03*
X241848000Y-138430000D03*
X86106000Y-22606000D03*
X96266000Y-22606000D03*
D14*
X119888000Y-147066000D03*
D13*
X117348000Y-147066000D03*
X114808000Y-147066000D03*
X112268000Y-147066000D03*
X109728000Y-147066000D03*
X107188000Y-147066000D03*
X104648000Y-147066000D03*
X102108000Y-147066000D03*
X102108000Y-154686000D03*
X104648000Y-154686000D03*
X107188000Y-154686000D03*
X109728000Y-154686000D03*
X112268000Y-154686000D03*
X114808000Y-154686000D03*
X117348000Y-154686000D03*
X119888000Y-154686000D03*
X223266000Y-156210000D03*
X233426000Y-156210000D03*
X244348000Y-202438000D03*
X241848000Y-202438000D03*
X154686000Y-132842000D03*
X164846000Y-132842000D03*
D14*
X257048000Y-53594000D03*
D13*
X254508000Y-53594000D03*
X251968000Y-53594000D03*
X249428000Y-53594000D03*
X246888000Y-53594000D03*
X244348000Y-53594000D03*
X241808000Y-53594000D03*
X239268000Y-53594000D03*
X239268000Y-61214000D03*
X241808000Y-61214000D03*
X244348000Y-61214000D03*
X246888000Y-61214000D03*
X249428000Y-61214000D03*
X251968000Y-61214000D03*
X254508000Y-61214000D03*
X257048000Y-61214000D03*
X73406000Y-175006000D03*
X83566000Y-175006000D03*
D14*
X257048000Y-220726000D03*
D13*
X254508000Y-220726000D03*
X251968000Y-220726000D03*
X249428000Y-220726000D03*
X246888000Y-220726000D03*
X244348000Y-220726000D03*
X241808000Y-220726000D03*
X239268000Y-220726000D03*
X239268000Y-228346000D03*
X241808000Y-228346000D03*
X244348000Y-228346000D03*
X246888000Y-228346000D03*
X249428000Y-228346000D03*
X251968000Y-228346000D03*
X254508000Y-228346000D03*
X257048000Y-228346000D03*
X154686000Y-167386000D03*
X164846000Y-167386000D03*
X210566000Y-156210000D03*
X220726000Y-156210000D03*
X210566000Y-160274000D03*
X220726000Y-160274000D03*
X223266000Y-200406000D03*
X233426000Y-200406000D03*
X210566000Y-106934000D03*
X220726000Y-106934000D03*
X86106000Y-189738000D03*
X96266000Y-189738000D03*
X210566000Y-178562000D03*
X220726000Y-178562000D03*
X210566000Y-255778000D03*
X220726000Y-255778000D03*
X244348000Y-158242000D03*
X241848000Y-158242000D03*
X86106000Y-248666000D03*
X96266000Y-248666000D03*
X141986000Y-66802000D03*
X152146000Y-66802000D03*
D14*
X188468000Y-205994000D03*
D13*
X185928000Y-205994000D03*
X183388000Y-205994000D03*
X180848000Y-205994000D03*
X178308000Y-205994000D03*
X175768000Y-205994000D03*
X173228000Y-205994000D03*
X170688000Y-205994000D03*
X170688000Y-213614000D03*
X173228000Y-213614000D03*
X175768000Y-213614000D03*
X178308000Y-213614000D03*
X180848000Y-213614000D03*
X183388000Y-213614000D03*
X185928000Y-213614000D03*
X188468000Y-213614000D03*
X73406000Y-255778000D03*
X83566000Y-255778000D03*
X244348000Y-246634000D03*
X241848000Y-246634000D03*
X154686000Y-189738000D03*
X164846000Y-189738000D03*
X73406000Y-222758000D03*
X83566000Y-222758000D03*
X73406000Y-182118000D03*
X83566000Y-182118000D03*
X223266000Y-118110000D03*
X233426000Y-118110000D03*
D14*
X119888000Y-220726000D03*
D13*
X117348000Y-220726000D03*
X114808000Y-220726000D03*
X112268000Y-220726000D03*
X109728000Y-220726000D03*
X107188000Y-220726000D03*
X104648000Y-220726000D03*
X102108000Y-220726000D03*
X102108000Y-228346000D03*
X104648000Y-228346000D03*
X107188000Y-228346000D03*
X109728000Y-228346000D03*
X112268000Y-228346000D03*
X114808000Y-228346000D03*
X117348000Y-228346000D03*
X119888000Y-228346000D03*
M02*
